<?xml version="1.0" standalone="no"?>
<!DOCTYPE svg PUBLIC "-//W3C//DTD SVG 1.1//EN" "http://www.w3.org/Graphics/SVG/1.1/DTD/svg11.dtd" >
<svg>
<metadata>
Created by FontForge 20090622 at Tue Aug 16 09:45:28 2016
 By deploy user
Copyright (c) 2010-2012 by The Entente (AS&#38;EH). All rights reserved.
</metadata>
<defs>
<font id="ApercuPro-Bold" horiz-adv-x="587" >
  <font-face 
    font-family="Apercu Pro"
    font-weight="700"
    font-stretch="normal"
    units-per-em="1000"
    panose-1="2 0 8 3 4 0 0 2 0 4"
    ascent="800"
    descent="-200"
    x-height="504"
    cap-height="700"
    bbox="-75 -353 1227 1104"
    underline-thickness="50"
    underline-position="-50"
    unicode-range="U+000D-U+FB02"
  />
<missing-glyph horiz-adv-x="651" 
d="M561 0h-471v700h471v-700zM210 594v-488h231v488h-231z" />
    <glyph glyph-name="uniFB01" unicode="fi" horiz-adv-x="572" 
d="M96 398h-64v106h64v6q0 98 63 148t171 50q89 0 145 -29l-39 -94q-42 17 -99 17q-55 0 -86 -24t-31 -69v-5h283v-504h-124v398h-159v-398h-124v398z" />
    <glyph glyph-name="uniFB02" unicode="fl" horiz-adv-x="623" 
d="M96 398h-64v106h64v26q0 89 46.5 133.5t127.5 44.5h277v-708h-124v602h-146q-57 0 -57 -63v-35h106v-106h-106v-398h-124v398z" />
    <glyph glyph-name=".notdef" horiz-adv-x="651" 
d="M561 0h-471v700h471v-700zM210 594v-488h231v488h-231z" />
    <glyph glyph-name="uni0000" horiz-adv-x="0" 
 />
    <glyph glyph-name="uni0000" horiz-adv-x="0" 
 />
    <glyph glyph-name="uni000D" unicode="&#xd;" horiz-adv-x="248" 
 />
    <glyph glyph-name="space" unicode=" " horiz-adv-x="248" 
 />
    <glyph glyph-name="exclam" unicode="!" horiz-adv-x="360" 
d="M100 76q0 35 24 59.5t59 24.5t59 -24.5t24 -59.5t-24 -58.5t-59 -23.5t-59 23.5t-24 58.5zM129 242l-28 458h164l-28 -458h-108z" />
    <glyph glyph-name="quotedbl" unicode="&#x22;" horiz-adv-x="491" 
d="M111 459l-31 249h141l-31 -249h-79zM301 459l-31 249h141l-31 -249h-79z" />
    <glyph glyph-name="numbersign" unicode="#" horiz-adv-x="736" 
d="M179 193h-114v98h134l24 118h-118v98h138l40 193h100l-40 -193h114l39 193h100l-39 -193h114v-98h-134l-24 -118h118v-98h-138l-40 -193h-100l40 193h-114l-39 -193h-100zM323 409l-24 -118h114l24 118h-114z" />
    <glyph glyph-name="dollar" unicode="$" horiz-adv-x="537" 
d="M35 188l105 66q41 -142 139 -142q91 0 91 91q0 23 -16 41.5t-42 32.5t-57 28t-62.5 32.5t-57.5 41t-42 58.5t-16 81q0 66 37.5 116t99.5 67v89h122v-91q90 -25 134 -118l-105 -67q-38 74 -97 74q-29 0 -48 -18t-19 -46q0 -33 31 -58.5t74.5 -45.5t87.5 -44t75 -66.5
t31 -99.5q0 -86 -43.5 -141t-120.5 -71v-88h-122v90q-71 17 -117.5 68.5t-61.5 119.5z" />
    <glyph glyph-name="percent" unicode="%" horiz-adv-x="838" 
d="M52 548q0 68 46.5 114t117.5 46t117.5 -46t46.5 -114t-46.5 -114t-117.5 -46t-117.5 46t-46.5 114zM189 -38l-72 58l538 718l72 -57zM154 548q0 -28 16.5 -46.5t45.5 -18.5t45.5 18.5t16.5 46.5t-16.5 46.5t-45.5 18.5t-45.5 -18.5t-16.5 -46.5zM458 152q0 68 46.5 114
t117.5 46t117.5 -46t46.5 -114t-46.5 -114t-117.5 -46t-117.5 46t-46.5 114zM560 152q0 -28 16.5 -46.5t45.5 -18.5t45.5 18.5t16.5 46.5t-16.5 46.5t-45.5 18.5t-45.5 -18.5t-16.5 -46.5z" />
    <glyph glyph-name="ampersand" unicode="&#x26;" horiz-adv-x="696" 
d="M66 206q0 139 133 216q-48 67 -48 137q0 63 45 106t118 43q74 0 118 -41.5t44 -98.5q0 -60 -32 -105.5t-82 -72.5l115 -151q29 55 51 126l72 -84q-18 -77 -52 -135l112 -146h-147l-41 54q-76 -62 -184 -62q-96 0 -159 57.5t-63 156.5zM186 208q0 -43 28 -72t75 -29
q68 0 114 39l-141 188q-76 -46 -76 -126zM261 551q0 -37 32 -77q71 29 71 81q0 21 -13.5 34t-36.5 13t-38 -14t-15 -37z" />
    <glyph glyph-name="quotesingle" unicode="'" horiz-adv-x="301" 
d="M111 459l-31 249h141l-31 -249h-79z" />
    <glyph glyph-name="parenleft" unicode="(" horiz-adv-x="300" 
d="M64 350q0 135 27 222t78 178h107q-46 -87 -69 -180t-23 -220q0 -133 22.5 -223.5t69.5 -176.5h-107q-33 59 -52.5 103.5t-36 123.5t-16.5 173z" />
    <glyph glyph-name="parenright" unicode=")" horiz-adv-x="300" 
d="M131 -50h-107q47 86 69.5 176.5t22.5 223.5q0 127 -23 220t-69 180h107q33 -59 52.5 -103.5t36 -123.5t16.5 -173q0 -135 -27 -222t-78 -178z" />
    <glyph glyph-name="asterisk" unicode="*" horiz-adv-x="486" 
d="M159 495l-109 37l33 99l109 -36v113h102v-113l109 36l33 -99l-109 -37l67 -91l-85 -63l-66 93l-66 -93l-85 63z" />
    <glyph glyph-name="plus" unicode="+" horiz-adv-x="584" 
d="M239 263h-184v108h184v184h108v-184h184v-108h-184v-184h-108v184z" />
    <glyph glyph-name="comma" unicode="," horiz-adv-x="363" 
d="M144 -156h-87l75 302h167z" />
    <glyph glyph-name="hyphen" unicode="-" horiz-adv-x="503" 
d="M438 263h-373v108h373v-108z" />
    <glyph glyph-name="period" unicode="." horiz-adv-x="328" 
d="M80 78q0 36 24 60t60 24t60 -24t24 -60t-24 -60t-60 -24t-60 24t-24 60z" />
    <glyph glyph-name="slash" unicode="/" horiz-adv-x="550" 
d="M128 -50h-120l436 800h120z" />
    <glyph glyph-name="zero" unicode="0" horiz-adv-x="640" 
d="M62 350q0 169 67 263.5t191 94.5t191 -94.5t67 -263.5t-67 -263.5t-191 -94.5t-191 94.5t-67 263.5zM186 350q0 -242 134 -242t134 242t-134 242t-134 -242z" />
    <glyph glyph-name="one" unicode="1" horiz-adv-x="414" 
d="M202 524l-134 -80v136l205 120h55v-700h-126v524z" />
    <glyph glyph-name="two" unicode="2" horiz-adv-x="579" 
d="M509 0h-445v50l250 323q54 67 54 127q0 43 -22 67.5t-64 24.5q-79 0 -91 -92l-116 22q6 81 64 133.5t146 52.5q98 0 153.5 -56t55.5 -147q0 -88 -60 -166l-171 -223h246v-116z" />
    <glyph glyph-name="three" unicode="3" horiz-adv-x="589" 
d="M56 194l121 16q24 -102 113 -102q49 0 80 32t31 85q0 59 -30 91t-80 32q-32 0 -61 -15l-50 70l132 181h-223v116h401v-44l-165 -223q18 2 28 2q80 0 127 -57t47 -151q0 -106 -67 -170.5t-170 -64.5q-97 0 -161.5 56.5t-72.5 145.5z" />
    <glyph glyph-name="four" unicode="4" horiz-adv-x="615" 
d="M360 130h-301v64l295 506h132v-454h78v-116h-78v-130h-126v130zM360 513l-148 -267h148v267z" />
    <glyph glyph-name="five" unicode="5" horiz-adv-x="583" 
d="M72 183l119 22q20 -97 105 -97q51 0 77.5 32t26.5 92q0 121 -110 121q-68 0 -124 -63l-79 16l39 394h360v-116h-257l-16 -146q44 26 99 26q106 0 160 -62.5t54 -169.5q0 -106 -63 -173t-167 -67q-90 0 -153 52.5t-71 138.5z" />
    <glyph glyph-name="six" unicode="6" horiz-adv-x="593" 
d="M70 220q0 64 34 123l204 365h140l-152 -260h16q97 0 161.5 -63.5t64.5 -164.5q0 -98 -67 -163t-167 -65t-167 65t-67 163zM196 220q0 -50 31.5 -81t76.5 -31q46 0 77 31t31 81q0 52 -30.5 82t-77.5 30t-77.5 -30t-30.5 -82z" />
    <glyph glyph-name="seven" unicode="7" horiz-adv-x="497" 
d="M324 584h-275v116h424v-52l-264 -648h-124z" />
    <glyph glyph-name="eight" unicode="8" horiz-adv-x="594" 
d="M69 209q0 116 92 168q-65 50 -65 140q0 80 56.5 135.5t144.5 55.5t144.5 -55.5t56.5 -135.5q0 -89 -66 -140q93 -52 93 -168q0 -99 -66.5 -158t-161.5 -59t-161.5 59t-66.5 158zM195 209q0 -47 29 -74t73 -27t73 27t29 74t-29 74t-73 27t-73 -27t-29 -74zM213 515
q0 -40 23 -64.5t61 -24.5t61 24.5t23 64.5q0 39 -23 63t-61 24t-61 -24t-23 -63z" />
    <glyph glyph-name="nine" unicode="9" horiz-adv-x="593" 
d="M71 480q0 98 67 163t167 65t167 -65t67 -163q0 -64 -34 -123l-204 -365h-140l152 260h-16q-97 0 -161.5 63.5t-64.5 164.5zM197 480q0 -52 30.5 -82t77.5 -30t77.5 30t30.5 82q0 50 -31.5 81t-76.5 31q-46 0 -77 -31t-31 -81z" />
    <glyph glyph-name="colon" unicode=":" horiz-adv-x="338" 
d="M82 78q0 36 24 60t60 24t60 -24t24 -60t-24 -60t-60 -24t-60 24t-24 60zM82 428q0 36 24 60t60 24t60 -24t24 -60t-24 -60t-60 -24t-60 24t-24 60z" />
    <glyph glyph-name="semicolon" unicode=";" horiz-adv-x="338" 
d="M99 -156h-87l75 302h167zM81 428q0 36 24 60t60 24t60 -24t24 -60t-24 -60t-60 -24t-60 24t-24 60z" />
    <glyph glyph-name="less" unicode="&#x3c;" horiz-adv-x="487" 
d="M436 48l-391 204v116l391 204v-131l-252 -131l252 -131v-131z" />
    <glyph glyph-name="equal" unicode="=" horiz-adv-x="617" 
d="M527 166h-437v108h437v-108zM527 346h-437v108h437v-108z" />
    <glyph glyph-name="greater" unicode="&#x3e;" horiz-adv-x="487" 
d="M442 252l-391 -204v131l252 131l-252 131v131l391 -204v-116z" />
    <glyph glyph-name="question" unicode="?" horiz-adv-x="460" 
d="M151 537l-109 18q13 67 62.5 110t128.5 43q84 0 134.5 -43t50.5 -115q0 -57 -32.5 -87t-105.5 -59q-52 -21 -68.5 -33.5t-16.5 -32.5q0 -17 10 -26t26 -9q39 0 57 46l88 -33q-37 -103 -145 -103q-61 0 -99.5 35.5t-38.5 92.5q0 89 108 130q57 22 78.5 40t21.5 43
t-18 37.5t-47 12.5q-66 0 -85 -67zM148 76q0 35 24 59.5t59 24.5t59 -24.5t24 -59.5t-24 -58.5t-59 -23.5t-59 23.5t-24 58.5z" />
    <glyph glyph-name="at" unicode="@" horiz-adv-x="906" 
d="M60 301q0 188 116 302.5t300 114.5q183 0 282.5 -100.5t99.5 -265.5q0 -110 -52.5 -177t-137.5 -67q-38 0 -67.5 20t-41.5 49q-56 -69 -134 -69q-83 0 -130.5 52t-47.5 136q0 92 59 156t157 64q61 0 104 -38l11 31h83l-20 -219q0 -5 -0.5 -10t-1 -7.5t-0.5 -6v-5.5
q0 -51 39 -51q60 0 60 147q0 128 -73 193.5t-194 65.5q-55 0 -106.5 -20t-93 -57.5t-66.5 -99t-25 -138.5q0 -72 26 -129.5t68.5 -92t93 -53t102.5 -18.5q40 0 67 2.5t74 15t97 37.5l39 -97q-71 -33 -133.5 -46.5t-143.5 -13.5q-182 0 -296 111.5t-114 283.5zM362 291
q0 -81 72 -81q45 0 75 34.5t30 85.5q0 40 -21 62t-60 22t-67.5 -33.5t-28.5 -89.5z" />
    <glyph glyph-name="A" unicode="A" horiz-adv-x="614" 
d="M145 0h-140l237 700h130l237 -700h-140l-51 165h-222zM307 528l-74 -243h148z" />
    <glyph glyph-name="B" unicode="B" horiz-adv-x="624" 
d="M351 0h-261v700h256q92 0 146 -48t54 -141q0 -43 -18 -77.5t-51 -51.5q105 -42 105 -171q0 -102 -61 -156.5t-170 -54.5zM220 308v-188h119q113 0 113 94t-113 94h-119zM220 580v-152h119q41 0 61.5 17.5t20.5 58.5t-20.5 58.5t-64.5 17.5h-116z" />
    <glyph glyph-name="C" unicode="C" horiz-adv-x="700" 
d="M48 350q0 168 96 263t235 95q115 0 190 -55.5t100 -156.5l-117 -30q-46 122 -173 122q-86 0 -142.5 -61t-56.5 -177t56.5 -177t142.5 -61q127 0 173 122l117 -30q-25 -101 -100 -156.5t-190 -55.5q-139 0 -235 95t-96 263z" />
    <glyph glyph-name="D" unicode="D" horiz-adv-x="683" 
d="M309 0h-219v700h219q64 0 121 -21t103.5 -62t74 -109.5t27.5 -157.5t-27.5 -157.5t-74 -109.5t-103.5 -62t-121 -21zM220 580v-460h48q46 0 84.5 10.5t74 34.5t56 71t20.5 114t-20.5 114t-56 71t-74 34.5t-84.5 10.5h-48z" />
    <glyph glyph-name="E" unicode="E" horiz-adv-x="575" 
d="M533 0h-443v700h433v-120h-303v-147h243v-120h-243v-193h313v-120z" />
    <glyph glyph-name="F" unicode="F" horiz-adv-x="562" 
d="M220 0h-130v700h443v-120h-313v-160h252v-120h-252v-300z" />
    <glyph glyph-name="G" unicode="G" horiz-adv-x="732" 
d="M48 350q0 170 97 264t236 94q113 0 187.5 -60t103.5 -161l-119 -31q-54 132 -172 132q-89 0 -145 -60.5t-56 -177.5q0 -120 55 -179t143 -59q71 0 110.5 39.5t46.5 93.5h-130v108h256v-353h-109l-11 75q-55 -83 -170 -83q-135 0 -229 94t-94 264z" />
    <glyph glyph-name="H" unicode="H" horiz-adv-x="720" 
d="M220 0h-130v700h130v-266h280v266h130v-700h-130v314h-280v-314z" />
    <glyph glyph-name="I" unicode="I" horiz-adv-x="310" 
d="M220 0h-130v700h130v-700z" />
    <glyph glyph-name="J" unicode="J" horiz-adv-x="515" 
d="M2 173l128 27q9 -46 30.5 -67t57.5 -21q45 0 69 27t24 93v468h130v-454q0 -136 -57 -195t-166 -59q-92 0 -148.5 48t-67.5 133z" />
    <glyph glyph-name="K" unicode="K" horiz-adv-x="643" 
d="M220 0h-130v700h130v-260l239 260h160l-284 -313l304 -387h-165l-254 334v-334z" />
    <glyph glyph-name="L" unicode="L" horiz-adv-x="531" 
d="M517 0h-427v700h130v-580h297v-120z" />
    <glyph glyph-name="M" unicode="M" horiz-adv-x="802" 
d="M220 0h-130v700h146l165 -437l165 437h146v-700h-130v432l-134 -368h-94l-134 368v-432z" />
    <glyph glyph-name="N" unicode="N" horiz-adv-x="704" 
d="M220 0h-130v700h137l257 -462v462h130v-700h-137l-257 462v-462z" />
    <glyph glyph-name="O" unicode="O" horiz-adv-x="756" 
d="M48 350q0 117 46.5 200t119.5 120.5t164 37.5t164 -37.5t119.5 -120.5t46.5 -200t-46.5 -200t-119.5 -120.5t-164 -37.5t-164 37.5t-119.5 120.5t-46.5 200zM180 350q0 -117 56.5 -177.5t141.5 -60.5t141.5 60.5t56.5 177.5t-56.5 177.5t-141.5 60.5t-141.5 -60.5
t-56.5 -177.5z" />
    <glyph glyph-name="P" unicode="P" horiz-adv-x="592" 
d="M220 0h-130v700h264q107 0 163 -58.5t56 -154.5t-56 -154.5t-163 -58.5h-134v-274zM220 580v-186h129q92 0 92 93t-92 93h-129z" />
    <glyph glyph-name="Q" unicode="Q" horiz-adv-x="756" 
d="M48 350q0 117 46.5 200t119.5 120.5t164 37.5t164 -37.5t119.5 -120.5t46.5 -200q0 -122 -47 -202l67 -66l-91 -90l-61 60q-82 -60 -198 -60q-91 0 -164 37.5t-119.5 120.5t-46.5 200zM180 350q0 -117 56.5 -177.5t141.5 -60.5q61 0 107 30l-91 92l91 90l76 -77
q15 44 15 103q0 117 -56.5 177.5t-141.5 60.5t-141.5 -60.5t-56.5 -177.5z" />
    <glyph glyph-name="R" unicode="R" horiz-adv-x="653" 
d="M220 0h-130v700h255q102 0 157.5 -54.5t55.5 -144.5q0 -70 -34 -119t-97 -69l194 -313h-145l-188 302h-68v-302zM220 580v-158h126q82 0 82 79t-82 79h-126z" />
    <glyph glyph-name="S" unicode="S" horiz-adv-x="537" 
d="M35 188l105 66q41 -142 139 -142q91 0 91 91q0 23 -16 41.5t-42 32.5t-57 28t-62.5 32.5t-57.5 41t-42 58.5t-16 81q0 80 55 135t136 55q141 0 202 -127l-105 -67q-38 74 -97 74q-29 0 -48 -18t-19 -46q0 -33 31 -58.5t74.5 -45.5t87.5 -44t75 -66.5t31 -99.5
q0 -101 -61 -159.5t-163 -58.5q-92 0 -158.5 56.5t-82.5 139.5z" />
    <glyph glyph-name="T" unicode="T" horiz-adv-x="534" 
d="M202 580h-194v120h518v-120h-194v-580h-130v580z" />
    <glyph glyph-name="U" unicode="U" horiz-adv-x="656" 
d="M67 266v434h130v-436q0 -152 131 -152t131 152v436h130v-434q0 -135 -71 -204.5t-190 -69.5t-190 69.5t-71 204.5z" />
    <glyph glyph-name="V" unicode="V" horiz-adv-x="604" 
d="M236 0l-235 700h144l157 -518l157 518h144l-235 -700h-132z" />
    <glyph glyph-name="W" unicode="W" horiz-adv-x="920" 
d="M201 0l-183 700h138l117 -515l131 441h112l131 -441l117 515h138l-183 -700h-132l-127 412l-127 -412h-132z" />
    <glyph glyph-name="X" unicode="X" horiz-adv-x="592" 
d="M151 0h-144l218 378l-185 322h142l114 -198l114 198h142l-185 -322l218 -378h-144l-145 253z" />
    <glyph glyph-name="Y" unicode="Y" horiz-adv-x="534" 
d="M202 298l-202 402h140l127 -272l127 272h140l-202 -402v-298h-130v298z" />
    <glyph glyph-name="Z" unicode="Z" horiz-adv-x="558" 
d="M525 0h-495v60l303 520h-286v120h464v-60l-300 -520h314v-120z" />
    <glyph glyph-name="bracketleft" unicode="[" horiz-adv-x="352" 
d="M320 -50h-230v800h230v-108h-110v-584h110v-108z" />
    <glyph glyph-name="backslash" unicode="\" horiz-adv-x="550" 
d="M422 -50l-436 800h120l436 -800h-120z" />
    <glyph glyph-name="bracketright" unicode="]" horiz-adv-x="352" 
d="M262 -50h-230v108h110v584h-110v108h230v-800z" />
    <glyph glyph-name="asciicircum" unicode="^" horiz-adv-x="599" 
d="M171 403h-120l195 297h107l195 -297h-120l-128 189z" />
    <glyph glyph-name="underscore" unicode="_" horiz-adv-x="505" 
d="M25 -108v108h455v-108h-455z" />
    <glyph glyph-name="grave" unicode="`" horiz-adv-x="260" 
d="M150 560l-137 148h168l64 -148h-95z" />
    <glyph glyph-name="a" unicode="a" horiz-adv-x="514" 
d="M38 145q0 75 59.5 120t155.5 45h84v22q0 39 -25 56.5t-63 17.5q-67 0 -87 -58l-105 24q12 64 63.5 102t128.5 38q212 0 212 -211v-301h-102l-13 64q-59 -72 -155 -72q-67 0 -110 40.5t-43 112.5zM168 147q0 -20 13.5 -34.5t38.5 -14.5q45 0 81 29t36 75v10h-83
q-86 0 -86 -65z" />
    <glyph glyph-name="b" unicode="b" horiz-adv-x="599" 
d="M204 0h-124v708h124v-250q18 22 52 38t70 16q111 0 170.5 -70.5t59.5 -189.5t-59.5 -189.5t-170.5 -70.5q-43 0 -77 18.5t-45 41.5v-52zM193 252q0 -73 32.5 -113.5t83.5 -40.5t84 41t33 113t-33 113t-84 41t-83.5 -40.5t-32.5 -113.5z" />
    <glyph glyph-name="c" unicode="c" horiz-adv-x="551" 
d="M43 252q0 112 64 186t182 74q171 0 229 -144l-111 -45q-42 83 -118 83q-57 0 -86.5 -42t-29.5 -112t29.5 -112t86.5 -42q76 0 118 83l111 -45q-58 -144 -229 -144q-118 0 -182 74t-64 186z" />
    <glyph glyph-name="d" unicode="d" horiz-adv-x="599" 
d="M43 252q0 119 59.5 189.5t170.5 70.5q36 0 70 -16t52 -38v250h124v-708h-124v52q-11 -23 -45 -41.5t-77 -18.5q-111 0 -170.5 70.5t-59.5 189.5zM173 252q0 -72 33 -113t84 -41t83.5 40.5t32.5 113.5t-32.5 113.5t-83.5 40.5t-84 -41t-33 -113z" />
    <glyph glyph-name="e" unicode="e" horiz-adv-x="556" 
d="M43 252q0 47 14 91.5t41.5 83t76 62t110.5 23.5q60 0 107 -23t74 -61t40.5 -80t13.5 -85v-51h-347q2 -46 33.5 -80t85.5 -34q76 0 122 78l100 -37q-64 -147 -229 -147q-62 0 -110.5 23.5t-76 62t-41.5 83t-14 91.5zM176 310h217q-8 42 -35 69t-73 27q-44 0 -73 -29
t-36 -67z" />
    <glyph glyph-name="f" unicode="f" horiz-adv-x="368" 
d="M96 398h-64v106h64v26q0 89 46.5 133.5t127.5 44.5q56 0 94 -20l-27 -100q-33 14 -60 14q-57 0 -57 -63v-35h106v-106h-106v-398h-124v398z" />
    <glyph glyph-name="g" unicode="g" horiz-adv-x="515" 
d="M39 -46q0 64 41 100q-26 31 -26 78q0 67 62 106q-35 41 -35 104q0 76 53 123t132 47q50 0 93 -22l95 50l49 -82l-72 -36q20 -35 20 -80q0 -77 -53 -122.5t-132 -45.5q-37 0 -73 11q-24 -13 -24 -38q0 -37 47 -37h103q82 0 129.5 -38.5t47.5 -109.5q0 -87 -67.5 -130.5
t-161.5 -43.5q-101 0 -164.5 43.5t-63.5 122.5zM154 -36q0 -35 31 -53.5t82 -18.5q105 0 105 62q0 30 -20.5 41t-60.5 11h-68q-33 0 -58 4q-11 -17 -11 -46zM197 342q0 -30 19.5 -49t49.5 -19t49.5 19t19.5 49q0 32 -19.5 51t-49.5 19t-49.5 -19t-19.5 -51z" />
    <glyph glyph-name="h" unicode="h" horiz-adv-x="593" 
d="M204 0h-124v708h124v-285q56 89 160 89q74 0 115.5 -38t41.5 -114v-360h-124v316q0 90 -75 90q-48 0 -83 -49t-35 -144v-213z" />
    <glyph glyph-name="i" unicode="i" horiz-adv-x="260" 
d="M50 649q0 34 22.5 57t57.5 23t57.5 -23t22.5 -57t-22.5 -57t-57.5 -23t-57.5 23t-22.5 57zM192 0h-124v504h124v-504z" />
    <glyph glyph-name="j" unicode="j" horiz-adv-x="260" 
d="M-19 -212l-30 109q60 16 88.5 47.5t28.5 98.5v461h124v-446q0 -118 -51.5 -182t-159.5 -88zM50 649q0 34 22.5 57t57.5 23t57.5 -23t22.5 -57t-22.5 -57t-57.5 -23t-57.5 23t-22.5 57z" />
    <glyph glyph-name="k" unicode="k" horiz-adv-x="537" 
d="M204 0h-124v708h124v-402l164 198h153l-202 -232l215 -272h-152l-178 238v-238z" />
    <glyph glyph-name="l" unicode="l" horiz-adv-x="278" 
d="M202 0h-124v708h124v-708z" />
    <glyph glyph-name="m" unicode="m" horiz-adv-x="866" 
d="M204 0h-124v504h124v-81q59 89 145 89q108 0 141 -104q58 104 154 104q71 0 110.5 -41t39.5 -114v-357h-124v336q0 70 -62 70q-48 0 -78.5 -53.5t-30.5 -156.5v-196h-124v336q0 70 -62 70q-48 0 -78.5 -56t-30.5 -165v-185z" />
    <glyph glyph-name="n" unicode="n" 
d="M204 0h-124v504h124v-81q62 89 156 89q70 0 112.5 -39t42.5 -113v-360h-124v323q0 83 -72 83q-48 0 -81.5 -55t-33.5 -150v-201z" />
    <glyph glyph-name="o" unicode="o" horiz-adv-x="598" 
d="M43 252q0 114 68.5 187t187.5 73t187.5 -73t68.5 -187t-68.5 -187t-187.5 -73t-187.5 73t-68.5 187zM173 252q0 -65 34 -109.5t92 -44.5t92 44.5t34 109.5t-34 109.5t-92 44.5t-92 -44.5t-34 -109.5z" />
    <glyph glyph-name="p" unicode="p" horiz-adv-x="599" 
d="M204 -204h-124v708h124v-52q11 23 45 41.5t77 18.5q111 0 170.5 -70.5t59.5 -189.5t-59.5 -189.5t-170.5 -70.5q-36 0 -70 16t-52 38v-250zM193 252q0 -73 32.5 -113.5t83.5 -40.5t84 41t33 113t-33 113t-84 41t-83.5 -40.5t-32.5 -113.5z" />
    <glyph glyph-name="q" unicode="q" horiz-adv-x="599" 
d="M43 252q0 119 59.5 189.5t170.5 70.5q43 0 77 -18.5t45 -41.5v52h124v-708h-124v250q-18 -22 -52 -38t-70 -16q-111 0 -170.5 70.5t-59.5 189.5zM173 252q0 -72 33 -113t84 -41t83.5 40.5t32.5 113.5t-32.5 113.5t-83.5 40.5t-84 -41t-33 -113z" />
    <glyph glyph-name="r" unicode="r" horiz-adv-x="422" 
d="M204 0h-124v504h124v-82q54 90 149 90q32 0 61 -10l-23 -115q-23 14 -52 14q-59 0 -97 -53.5t-38 -168.5v-179z" />
    <glyph glyph-name="s" unicode="s" horiz-adv-x="456" 
d="M36 128l99 53q32 -83 101 -83q62 0 62 54q0 15 -12.5 26.5t-26.5 17.5t-42.5 16t-44.5 17q-49 21 -75.5 51.5t-26.5 84.5q0 60 45 103.5t116 43.5q50 0 92 -22.5t66 -59.5l-74 -68q-33 44 -84 44q-19 0 -32.5 -11t-13.5 -31q0 -32 48 -49q5 -2 31 -10.5t36 -12.5
t32.5 -14t33.5 -20t24.5 -24.5t19 -33t5.5 -40.5q0 -70 -49.5 -119t-129.5 -49q-73 0 -126 41.5t-74 94.5z" />
    <glyph glyph-name="t" unicode="t" horiz-adv-x="392" 
d="M96 398h-78v106h78v126l124 78v-204h133v-106h-133v-218q0 -45 16 -63.5t50 -18.5q25 0 48 12l29 -100q-39 -18 -82 -18q-88 0 -136.5 47t-48.5 139v220z" />
    <glyph glyph-name="u" unicode="u" 
d="M72 144v360h124v-323q0 -83 72 -83q48 0 81.5 55t33.5 150v201h124v-504h-124v81q-62 -89 -156 -89q-70 0 -112.5 39t-42.5 113z" />
    <glyph glyph-name="v" unicode="v" horiz-adv-x="464" 
d="M176 0l-171 504h125l102 -351l102 351h125l-171 -504h-112z" />
    <glyph glyph-name="w" unicode="w" horiz-adv-x="766" 
d="M186 0l-161 504h125l90 -346l85 346h116l85 -346l90 346h125l-161 -504h-110l-87 326l-87 -326h-110z" />
    <glyph glyph-name="x" unicode="x" horiz-adv-x="482" 
d="M138 0h-130l167 269l-146 235h130l82 -131l82 131h130l-146 -235l167 -269h-130l-103 164z" />
    <glyph glyph-name="y" unicode="y" horiz-adv-x="481" 
d="M186 32l-183 472h125l117 -316l110 316h124l-260 -708h-120z" />
    <glyph glyph-name="z" unicode="z" horiz-adv-x="465" 
d="M427 0h-386v48l218 350h-202v106h356v-48l-216 -350h230v-106z" />
    <glyph glyph-name="braceleft" unicode="{" horiz-adv-x="346" 
d="M56 296v108q46 0 63 16.5t17 63.5v166q0 45 27.5 72.5t72.5 27.5h88v-108h-27q-24 0 -32.5 -9.5t-8.5 -35.5v-149q0 -54 -19 -74t-55 -24q36 -4 55 -24t19 -74v-149q0 -26 8.5 -35.5t32.5 -9.5h27v-108h-88q-45 0 -72.5 27.5t-27.5 72.5v166q0 47 -17 63.5t-63 16.5z" />
    <glyph glyph-name="bar" unicode="|" horiz-adv-x="302" 
d="M212 -50h-122v800h122v-800z" />
    <glyph glyph-name="braceright" unicode="}" horiz-adv-x="346" 
d="M110 -50h-88v108h27q24 0 32.5 9.5t8.5 35.5v149q0 54 19 74t55 24q-36 4 -55 24t-19 74v149q0 26 -8.5 35.5t-32.5 9.5h-27v108h88q45 0 72.5 -27.5t27.5 -72.5v-166q0 -47 17 -63.5t63 -16.5v-108q-46 0 -63 -16.5t-17 -63.5v-166q0 -45 -27.5 -72.5t-72.5 -27.5z" />
    <glyph glyph-name="asciitilde" unicode="~" horiz-adv-x="654" 
d="M138 249l-64 69q19 45 61 78t90 33q45 0 106 -29.5t94 -29.5q49 0 91 51l64 -69q-19 -45 -61 -78t-90 -33q-45 0 -106 29.5t-94 29.5q-49 0 -91 -51z" />
    <glyph glyph-name="uni00A0" unicode="&#xa0;" horiz-adv-x="248" 
 />
    <glyph glyph-name="exclamdown" unicode="&#xa1;" horiz-adv-x="360" 
d="M95 420q0 35 24 58.5t59 23.5t59 -23.5t24 -58.5t-24 -59.5t-59 -24.5t-59 24.5t-24 59.5zM96 -204l28 458h108l28 -458h-164z" />
    <glyph glyph-name="cent" unicode="&#xa2;" horiz-adv-x="583" 
d="M54 350q0 97 47.5 166t137.5 88v146h122v-146q121 -22 168 -138l-111 -45q-42 83 -118 83q-57 0 -86.5 -42t-29.5 -112t29.5 -112t86.5 -42q76 0 118 83l111 -45q-47 -116 -168 -138v-146h-122v146q-90 19 -137.5 88t-47.5 166z" />
    <glyph glyph-name="sterling" unicode="&#xa3;" horiz-adv-x="557" 
d="M106 -8l-69 76q35 32 54.5 53t36.5 55t17 69q0 27 -9 61h-83v116h48q-16 46 -16 78q0 90 58.5 149t154.5 59q78 0 130.5 -36.5t76.5 -101.5l-103 -49q-33 71 -104 71q-37 0 -63 -24.5t-26 -74.5q0 -41 8 -71h173v-116h-138q3 -18 3 -38q0 -56 -21.5 -92.5t-59.5 -70.5
q53 32 99 32q24 0 54.5 -15t53.5 -15q21 0 37 11.5t35 44.5l86 -54q-34 -61 -73 -89t-92 -28q-37 0 -80 18.5t-72 18.5q-52 0 -116 -37z" />
    <glyph glyph-name="currency" unicode="&#xa4;" horiz-adv-x="570" 
d="M117 42l-97 97l89 69q-25 44 -25 99t25 99l-89 69l97 97l69 -89q44 26 99 26t99 -26l69 89l97 -97l-89 -69q25 -44 25 -99t-25 -99l89 -69l-97 -97l-69 89q-44 -26 -99 -26t-99 26zM204 307q0 -40 21.5 -64.5t59.5 -24.5t59.5 24.5t21.5 64.5t-21.5 64.5t-59.5 24.5
t-59.5 -24.5t-21.5 -64.5z" />
    <glyph glyph-name="yen" unicode="&#xa5;" horiz-adv-x="538" 
d="M152 406l-144 294h140l121 -272l121 272h140l-144 -294h91v-108h-143v-72h143v-108h-143v-118h-130v118h-143v108h143v72h-143v108h91z" />
    <glyph glyph-name="brokenbar" unicode="&#xa6;" horiz-adv-x="302" 
d="M212 -50h-122v349h122v-349zM212 401h-122v349h122v-349z" />
    <glyph glyph-name="section" unicode="&#xa7;" horiz-adv-x="549" 
d="M60 274q0 88 59 139q-25 44 -25 100q0 87 53 141t128 54q160 0 200 -151l-110 -36q-25 71 -90 71q-28 0 -44.5 -18.5t-16.5 -53.5q0 -14 3.5 -26t13.5 -23.5l17 -19t27.5 -19l30 -16.5t38.5 -19l41 -20q105 -54 105 -155q0 -88 -59 -139q25 -44 25 -100q0 -87 -53 -141
t-128 -54q-160 0 -200 151l110 36q25 -71 90 -71q28 0 44.5 18.5t16.5 53.5q0 17 -6.5 31.5t-14.5 24t-27.5 22t-32.5 19.5t-43 22l-47 24q-105 54 -105 155zM168 283q0 -17 10 -31.5t31.5 -28.5t40 -23l52 -24.5l50.5 -23.5q30 24 30 61q0 21 -18.5 40t-40 30.5t-63 30.5
t-62.5 30q-30 -24 -30 -61z" />
    <glyph glyph-name="dieresis" unicode="&#xa8;" horiz-adv-x="381" 
d="M16 651q0 31 19.5 51t51.5 20t51.5 -20t19.5 -51t-19.5 -51t-51.5 -20t-51.5 20t-19.5 51zM223 651q0 31 19.5 51t51.5 20t51.5 -20t19.5 -51t-19.5 -51t-51.5 -20t-51.5 20t-19.5 51z" />
    <glyph glyph-name="copyright" unicode="&#xa9;" horiz-adv-x="890" 
d="M60 350q0 166 110.5 278t274.5 112t274.5 -112t110.5 -278t-110.5 -278t-274.5 -112t-274.5 112t-110.5 278zM170 350q0 -124 77.5 -204t197.5 -80t197.5 80t77.5 204t-77.5 204t-197.5 80t-197.5 -80t-77.5 -204zM244 350q0 103 58.5 159.5t142.5 56.5q72 0 124 -37
t61 -104l-97 -19q-21 65 -88 65q-41 0 -66 -33.5t-25 -87.5t25 -87.5t66 -33.5q67 0 88 65l97 -19q-9 -67 -61 -104t-124 -37q-84 0 -142.5 56.5t-58.5 159.5z" />
    <glyph glyph-name="ordfeminine" unicode="&#xaa;" horiz-adv-x="449" 
d="M58 416q0 59 46.5 94.5t122.5 35.5h66v17q0 58 -69 58q-53 0 -69 -46l-82 19q9 49 50 79.5t101 30.5q166 0 166 -166v-238h-81l-9 52q-48 -56 -122 -56q-51 0 -85.5 32t-34.5 88zM160 416q0 -16 10.5 -26.5t30.5 -10.5q36 0 64 22.5t28 59.5v11h-66q-31 0 -49 -15
t-18 -41z" />
    <glyph glyph-name="guillemotleft" unicode="&#xab;" horiz-adv-x="703" 
d="M353 51l-309 218v82l309 218v-128l-185 -131l185 -131v-128zM653 51l-309 218v82l309 218v-128l-185 -131l185 -131v-128z" />
    <glyph glyph-name="logicalnot" unicode="&#xac;" horiz-adv-x="596" 
d="M402 295h-342v112h466v-265h-124v153z" />
    <glyph glyph-name="uni00AD" unicode="&#xad;" horiz-adv-x="503" 
d="M438 263h-373v108h373v-108z" />
    <glyph glyph-name="registered" unicode="&#xae;" horiz-adv-x="890" 
d="M60 350q0 166 110.5 278t274.5 112t274.5 -112t110.5 -278t-110.5 -278t-274.5 -112t-274.5 112t-110.5 278zM170 350q0 -124 77.5 -204t197.5 -80t197.5 80t77.5 204t-77.5 204t-197.5 80t-197.5 -80t-77.5 -204zM394 137h-105v426h169q140 0 140 -122q0 -49 -23 -78.5
t-64 -38.5l117 -187h-113l-109 182h-12v-182zM394 480v-78h54q48 0 48 39t-48 39h-54z" />
    <glyph glyph-name="overscore" unicode="&#xaf;" horiz-adv-x="287" 
d="M278 618h-269v110h269v-110z" />
    <glyph glyph-name="degree" unicode="&#xb0;" horiz-adv-x="364" 
d="M60 593q0 52 35 86.5t87 34.5t87 -34.5t35 -86.5t-35 -86.5t-87 -34.5t-87 34.5t-35 86.5zM143 593q0 -18 10.5 -29t28.5 -11t28.5 11t10.5 29t-10.5 29t-28.5 11t-28.5 -11t-10.5 -29z" />
    <glyph glyph-name="plusminus" unicode="&#xb1;" horiz-adv-x="591" 
d="M242 345h-184v108h184v184h108v-184h184v-108h-184v-184h-108v184zM535 1h-476v108h476v-108z" />
    <glyph glyph-name="uni00B2" unicode="&#xb2;" horiz-adv-x="379" 
d="M324 300h-271v35l145 177q27 32 27 68q0 41 -38 41q-41 0 -51 -53l-80 23q6 51 42.5 82t88.5 31q59 0 95 -33t36 -89q0 -52 -40 -99l-82 -100h128v-83z" />
    <glyph glyph-name="uni00B3" unicode="&#xb3;" horiz-adv-x="388" 
d="M53 422l80 10q5 -26 21 -39.5t37 -13.5q49 0 49 59q0 26 -13 39.5t-35 13.5q-18 0 -37 -10l-40 50l66 86h-110v83h237v-35l-89 -114q49 0 81.5 -34t32.5 -82q0 -65 -35 -102t-105 -37q-60 0 -99 35.5t-41 90.5z" />
    <glyph glyph-name="acute" unicode="&#xb4;" horiz-adv-x="260" 
d="M110 560h-95l64 148h168z" />
    <glyph glyph-name="uni00B5" unicode="&#xb5;" 
d="M196 -204h-124v708h124v-323q0 -83 72 -83q48 0 81.5 55t33.5 150v201h124v-504h-124v81q-62 -89 -156 -89q-16 0 -31 3v-199z" />
    <glyph glyph-name="paragraph" unicode="&#xb6;" horiz-adv-x="744" 
d="M54 473q0 94 66.5 160.5t160.5 66.5h403v-108h-62v-796h-120v796h-101v-796h-120v450q-94 0 -160.5 66.5t-66.5 160.5z" />
    <glyph glyph-name="middot" unicode="&#xb7;" horiz-adv-x="328" 
d="M80 368q0 36 24 60t60 24t60 -24t24 -60t-24 -60t-60 -24t-60 24t-24 60z" />
    <glyph glyph-name="cedilla" unicode="&#xb8;" horiz-adv-x="241" 
d="M153 -266l-148 66l141 140h90z" />
    <glyph glyph-name="uni00B9" unicode="&#xb9;" horiz-adv-x="306" 
d="M137 578l-85 -38v95l137 65h37v-400h-89v278z" />
    <glyph glyph-name="ordmasculine" unicode="&#xba;" horiz-adv-x="522" 
d="M60 500q0 89 54 146.5t147 57.5t147 -57.5t54 -146.5t-54 -146.5t-147 -57.5t-147 57.5t-54 146.5zM162 500q0 -50 27 -85.5t72 -35.5t72 35.5t27 85.5t-27 85.5t-72 35.5t-72 -35.5t-27 -85.5z" />
    <glyph glyph-name="guillemotright" unicode="&#xbb;" horiz-adv-x="703" 
d="M359 269l-309 -218v128l185 131l-185 131v128l309 -218v-82zM659 269l-309 -218v128l185 131l-185 131v128l309 -218v-82z" />
    <glyph glyph-name="onequarter" unicode="&#xbc;" horiz-adv-x="863" 
d="M203 -38l-72 58l538 718l72 -57zM155 578l-85 -38v95l137 65h37v-400h-89v278zM651 66h-167v45l161 290h95v-252h43v-83h-43v-65h-89v65zM651 271l-63 -122h63v122z" />
    <glyph glyph-name="onehalf" unicode="&#xbd;" horiz-adv-x="918" 
d="M203 -38l-72 58l538 718l72 -57zM155 578l-85 -38v95l137 65h37v-400h-89v278zM838 1h-271v35l145 177q27 32 27 68q0 41 -38 41q-41 0 -51 -53l-80 23q6 51 42.5 82t88.5 31q59 0 95 -33t36 -89q0 -52 -40 -99l-82 -100h128v-83z" />
    <glyph glyph-name="threequarters" unicode="&#xbe;" horiz-adv-x="841" 
d="M225 -38l-72 58l538 718l72 -57zM53 422l80 10q5 -26 21 -39.5t37 -13.5q49 0 49 59q0 26 -13 39.5t-35 13.5q-18 0 -37 -10l-40 50l66 86h-110v83h237v-35l-89 -114q49 0 81.5 -34t32.5 -82q0 -65 -35 -102t-105 -37q-60 0 -99 35.5t-41 90.5zM654 66h-167v45l161 290
h95v-252h43v-83h-43v-65h-89v65zM654 271l-63 -122h63v122z" />
    <glyph glyph-name="questiondown" unicode="&#xbf;" horiz-adv-x="472" 
d="M315 -41l109 -18q-13 -67 -62.5 -110t-128.5 -43q-84 0 -134.5 43t-50.5 115q0 57 32.5 87t105.5 59q52 21 68.5 33.5t16.5 32.5q0 17 -10 26t-26 9q-39 0 -57 -46l-88 33q37 103 145 103q61 0 99.5 -35.5t38.5 -92.5q0 -89 -108 -130q-57 -22 -78.5 -40t-21.5 -43
t18 -37.5t47 -12.5q66 0 85 67zM318 420q0 -35 -24 -59.5t-59 -24.5t-59 24.5t-24 59.5t24 58.5t59 23.5t59 -23.5t24 -58.5z" />
    <glyph glyph-name="Agrave" unicode="&#xc0;" horiz-adv-x="614" 
d="M145 0h-140l237 700h130l237 -700h-140l-51 165h-222zM307 528l-74 -243h148zM287 756l-137 148h168l64 -148h-95z" />
    <glyph glyph-name="Aacute" unicode="&#xc1;" horiz-adv-x="614" 
d="M145 0h-140l237 700h130l237 -700h-140l-51 165h-222zM307 528l-74 -243h148zM316 756h-95l64 148h168z" />
    <glyph glyph-name="Acircumflex" unicode="&#xc2;" horiz-adv-x="614" 
d="M145 0h-140l237 700h130l237 -700h-140l-51 165h-222zM307 528l-74 -243h148zM239 762h-120l171 186h34l171 -186h-120l-68 74z" />
    <glyph glyph-name="Atilde" unicode="&#xc3;" horiz-adv-x="614" 
d="M145 0h-140l237 700h130l237 -700h-140l-51 165h-222zM307 528l-74 -243h148zM180 765l-65 55q17 39 51 63t72 24q35 0 73 -20.5t60 -20.5q34 0 64 43l65 -55q-17 -39 -51 -63t-72 -24q-35 0 -73.5 20.5t-59.5 20.5q-34 0 -64 -43z" />
    <glyph glyph-name="Adieresis" unicode="&#xc4;" horiz-adv-x="614" 
d="M145 0h-140l237 700h130l237 -700h-140l-51 165h-222zM307 528l-74 -243h148zM133 847q0 31 19.5 51t51.5 20t51.5 -20t19.5 -51t-19.5 -51t-51.5 -20t-51.5 20t-19.5 51zM340 847q0 31 19.5 51t51.5 20t51.5 -20t19.5 -51t-19.5 -51t-51.5 -20t-51.5 20t-19.5 51z" />
    <glyph glyph-name="Aring" unicode="&#xc5;" horiz-adv-x="614" 
d="M145 0h-140l237 700h130l237 -700h-140l-51 165h-222zM307 528l-74 -243h148zM204 851q0 44 29 73t74 29t74 -29t29 -73t-29 -73t-74 -29t-74 29t-29 73zM277 851q0 -32 30 -32t30 32t-30 32t-30 -32z" />
    <glyph glyph-name="AE" unicode="&#xc6;" horiz-adv-x="859" 
d="M148 0h-140l306 700h493v-120h-303v-147h243v-120h-243v-193h313v-120h-443v165h-160zM361 528l-98 -243h111v243h-13z" />
    <glyph glyph-name="Ccedilla" unicode="&#xc7;" horiz-adv-x="700" 
d="M48 350q0 168 96 263t235 95q115 0 190 -55.5t100 -156.5l-117 -30q-46 122 -173 122q-86 0 -142.5 -61t-56.5 -177t56.5 -177t142.5 -61q127 0 173 122l117 -30q-25 -101 -100 -156.5t-190 -55.5q-139 0 -235 95t-96 263zM381 -266l-148 66l141 140h90z" />
    <glyph glyph-name="Egrave" unicode="&#xc8;" horiz-adv-x="575" 
d="M533 0h-443v700h433v-120h-303v-147h243v-120h-243v-193h313v-120zM295 756l-137 148h168l64 -148h-95z" />
    <glyph glyph-name="Eacute" unicode="&#xc9;" horiz-adv-x="575" 
d="M533 0h-443v700h433v-120h-303v-147h243v-120h-243v-193h313v-120zM313 756h-95l64 148h168z" />
    <glyph glyph-name="Ecircumflex" unicode="&#xca;" horiz-adv-x="575" 
d="M533 0h-443v700h433v-120h-303v-147h243v-120h-243v-193h313v-120zM244 762h-120l171 186h34l171 -186h-120l-68 74z" />
    <glyph glyph-name="Edieresis" unicode="&#xcb;" horiz-adv-x="575" 
d="M533 0h-443v700h433v-120h-303v-147h243v-120h-243v-193h313v-120zM139 847q0 31 19.5 51t51.5 20t51.5 -20t19.5 -51t-19.5 -51t-51.5 -20t-51.5 20t-19.5 51zM346 847q0 31 19.5 51t51.5 20t51.5 -20t19.5 -51t-19.5 -51t-51.5 -20t-51.5 20t-19.5 51z" />
    <glyph glyph-name="Igrave" unicode="&#xcc;" horiz-adv-x="310" 
d="M220 0h-130v700h130v-700zM137 756l-137 148h168l64 -148h-95z" />
    <glyph glyph-name="Iacute" unicode="&#xcd;" horiz-adv-x="310" 
d="M220 0h-130v700h130v-700zM174 756h-95l64 148h168z" />
    <glyph glyph-name="Icircumflex" unicode="&#xce;" horiz-adv-x="310" 
d="M220 0h-130v700h130v-700zM88 762h-120l171 186h34l171 -186h-120l-68 74z" />
    <glyph glyph-name="Idieresis" unicode="&#xcf;" horiz-adv-x="310" 
d="M220 0h-130v700h130v-700zM-18 847q0 31 19.5 51t51.5 20t51.5 -20t19.5 -51t-19.5 -51t-51.5 -20t-51.5 20t-19.5 51zM189 847q0 31 19.5 51t51.5 20t51.5 -20t19.5 -51t-19.5 -51t-51.5 -20t-51.5 20t-19.5 51z" />
    <glyph glyph-name="Eth" unicode="&#xd0;" horiz-adv-x="708" 
d="M115 296h-93v108h93v296h219q64 0 121 -21t103.5 -62t74 -109.5t27.5 -157.5t-27.5 -157.5t-74 -109.5t-103.5 -62t-121 -21h-219v296zM245 296v-176h48q46 0 84.5 10.5t74 34.5t56 71t20.5 114t-20.5 114t-56 71t-74 34.5t-84.5 10.5h-48v-176h93v-108h-93z" />
    <glyph glyph-name="Ntilde" unicode="&#xd1;" horiz-adv-x="704" 
d="M220 0h-130v700h137l257 -462v462h130v-700h-137l-257 462v-462zM219 765l-65 55q17 39 51 63t72 24q35 0 73 -20.5t60 -20.5q34 0 64 43l65 -55q-17 -39 -51 -63t-72 -24q-35 0 -73.5 20.5t-59.5 20.5q-34 0 -64 -43z" />
    <glyph glyph-name="Ograve" unicode="&#xd2;" horiz-adv-x="756" 
d="M48 350q0 117 46.5 200t119.5 120.5t164 37.5t164 -37.5t119.5 -120.5t46.5 -200t-46.5 -200t-119.5 -120.5t-164 -37.5t-164 37.5t-119.5 120.5t-46.5 200zM180 350q0 -117 56.5 -177.5t141.5 -60.5t141.5 60.5t56.5 177.5t-56.5 177.5t-141.5 60.5t-141.5 -60.5
t-56.5 -177.5zM349 756l-137 148h168l64 -148h-95z" />
    <glyph glyph-name="Oacute" unicode="&#xd3;" horiz-adv-x="756" 
d="M48 350q0 117 46.5 200t119.5 120.5t164 37.5t164 -37.5t119.5 -120.5t46.5 -200t-46.5 -200t-119.5 -120.5t-164 -37.5t-164 37.5t-119.5 120.5t-46.5 200zM180 350q0 -117 56.5 -177.5t141.5 -60.5t141.5 60.5t56.5 177.5t-56.5 177.5t-141.5 60.5t-141.5 -60.5
t-56.5 -177.5zM387 756h-95l64 148h168z" />
    <glyph glyph-name="Ocircumflex" unicode="&#xd4;" horiz-adv-x="756" 
d="M48 350q0 117 46.5 200t119.5 120.5t164 37.5t164 -37.5t119.5 -120.5t46.5 -200t-46.5 -200t-119.5 -120.5t-164 -37.5t-164 37.5t-119.5 120.5t-46.5 200zM180 350q0 -117 56.5 -177.5t141.5 -60.5t141.5 60.5t56.5 177.5t-56.5 177.5t-141.5 60.5t-141.5 -60.5
t-56.5 -177.5zM310 762h-120l171 186h34l171 -186h-120l-68 74z" />
    <glyph glyph-name="Otilde" unicode="&#xd5;" horiz-adv-x="756" 
d="M48 350q0 117 46.5 200t119.5 120.5t164 37.5t164 -37.5t119.5 -120.5t46.5 -200t-46.5 -200t-119.5 -120.5t-164 -37.5t-164 37.5t-119.5 120.5t-46.5 200zM180 350q0 -117 56.5 -177.5t141.5 -60.5t141.5 60.5t56.5 177.5t-56.5 177.5t-141.5 60.5t-141.5 -60.5
t-56.5 -177.5zM251 765l-65 55q17 39 51 63t72 24q35 0 73 -20.5t60 -20.5q34 0 64 43l65 -55q-17 -39 -51 -63t-72 -24q-35 0 -73.5 20.5t-59.5 20.5q-34 0 -64 -43z" />
    <glyph glyph-name="Odieresis" unicode="&#xd6;" horiz-adv-x="756" 
d="M48 350q0 117 46.5 200t119.5 120.5t164 37.5t164 -37.5t119.5 -120.5t46.5 -200t-46.5 -200t-119.5 -120.5t-164 -37.5t-164 37.5t-119.5 120.5t-46.5 200zM180 350q0 -117 56.5 -177.5t141.5 -60.5t141.5 60.5t56.5 177.5t-56.5 177.5t-141.5 60.5t-141.5 -60.5
t-56.5 -177.5zM204 847q0 31 19.5 51t51.5 20t51.5 -20t19.5 -51t-19.5 -51t-51.5 -20t-51.5 20t-19.5 51zM411 847q0 31 19.5 51t51.5 20t51.5 -20t19.5 -51t-19.5 -51t-51.5 -20t-51.5 20t-19.5 51z" />
    <glyph glyph-name="multiply" unicode="&#xd7;" horiz-adv-x="590" 
d="M137 82l-77 77l159 158l-159 158l77 77l158 -159l158 159l77 -77l-159 -158l159 -158l-77 -77l-158 159z" />
    <glyph glyph-name="Oslash" unicode="&#xd8;" horiz-adv-x="756" 
d="M48 350q0 117 46.5 200t119.5 120.5t164 37.5q101 0 175 -45l61 78l86 -63l-66 -85q74 -93 74 -243q0 -117 -46.5 -200t-119.5 -120.5t-164 -37.5q-101 0 -175 45l-61 -78l-86 63l66 85q-74 93 -74 243zM180 350q0 -78 27 -134l269 347q-43 25 -98 25q-85 0 -141.5 -59.5
t-56.5 -178.5zM549 484l-269 -347q43 -25 98 -25q85 0 141.5 59.5t56.5 178.5q0 78 -27 134z" />
    <glyph glyph-name="Ugrave" unicode="&#xd9;" horiz-adv-x="656" 
d="M67 266v434h130v-436q0 -152 131 -152t131 152v436h130v-434q0 -135 -71 -204.5t-190 -69.5t-190 69.5t-71 204.5zM305 756l-137 148h168l64 -148h-95z" />
    <glyph glyph-name="Uacute" unicode="&#xda;" horiz-adv-x="656" 
d="M67 266v434h130v-436q0 -152 131 -152t131 152v436h130v-434q0 -135 -71 -204.5t-190 -69.5t-190 69.5t-71 204.5zM349 756h-95l64 148h168z" />
    <glyph glyph-name="Ucircumflex" unicode="&#xdb;" horiz-adv-x="656" 
d="M67 266v434h130v-436q0 -152 131 -152t131 152v436h130v-434q0 -135 -71 -204.5t-190 -69.5t-190 69.5t-71 204.5zM260 762h-120l171 186h34l171 -186h-120l-68 74z" />
    <glyph glyph-name="Udieresis" unicode="&#xdc;" horiz-adv-x="656" 
d="M67 266v434h130v-436q0 -152 131 -152t131 152v436h130v-434q0 -135 -71 -204.5t-190 -69.5t-190 69.5t-71 204.5zM154 847q0 31 19.5 51t51.5 20t51.5 -20t19.5 -51t-19.5 -51t-51.5 -20t-51.5 20t-19.5 51zM361 847q0 31 19.5 51t51.5 20t51.5 -20t19.5 -51t-19.5 -51
t-51.5 -20t-51.5 20t-19.5 51z" />
    <glyph glyph-name="Yacute" unicode="&#xdd;" horiz-adv-x="534" 
d="M202 298l-202 402h140l127 -272l127 272h140l-202 -402v-298h-130v298zM286 756h-95l64 148h168z" />
    <glyph glyph-name="Thorn" unicode="&#xde;" horiz-adv-x="592" 
d="M220 0h-130v700h130v-137h134q107 0 163 -58.5t56 -154.5t-56 -154.5t-163 -58.5h-134v-137zM220 443v-186h129q92 0 92 93t-92 93h-129z" />
    <glyph glyph-name="germandbls" unicode="&#xdf;" horiz-adv-x="570" 
d="M84 326h-52v112h52v62q0 100 55 154t146 54q92 0 141 -47.5t49 -129.5q0 -49 -23 -83.5t-57 -46.5q60 -17 98 -62.5t38 -119.5q0 -117 -56 -172t-167 -55q-35 0 -65 8v108q40 -8 63 -8q105 0 105 112q0 114 -120 114h-33v112h20q84 0 84 82q0 39 -20.5 60.5t-56.5 21.5
q-37 0 -59 -25t-22 -74v-503h-120v326z" />
    <glyph glyph-name="agrave" unicode="&#xe0;" horiz-adv-x="514" 
d="M38 145q0 75 59.5 120t155.5 45h84v22q0 39 -25 56.5t-63 17.5q-67 0 -87 -58l-105 24q12 64 63.5 102t128.5 38q212 0 212 -211v-301h-102l-13 64q-59 -72 -155 -72q-67 0 -110 40.5t-43 112.5zM168 147q0 -20 13.5 -34.5t38.5 -14.5q45 0 81 29t36 75v10h-83
q-86 0 -86 -65zM239 560l-137 148h168l64 -148h-95z" />
    <glyph glyph-name="aacute" unicode="&#xe1;" horiz-adv-x="514" 
d="M38 145q0 75 59.5 120t155.5 45h84v22q0 39 -25 56.5t-63 17.5q-67 0 -87 -58l-105 24q12 64 63.5 102t128.5 38q212 0 212 -211v-301h-102l-13 64q-59 -72 -155 -72q-67 0 -110 40.5t-43 112.5zM168 147q0 -20 13.5 -34.5t38.5 -14.5q45 0 81 29t36 75v10h-83
q-86 0 -86 -65zM268 560h-95l64 148h168z" />
    <glyph glyph-name="acircumflex" unicode="&#xe2;" horiz-adv-x="514" 
d="M38 145q0 75 59.5 120t155.5 45h84v22q0 39 -25 56.5t-63 17.5q-67 0 -87 -58l-105 24q12 64 63.5 102t128.5 38q212 0 212 -211v-301h-102l-13 64q-59 -72 -155 -72q-67 0 -110 40.5t-43 112.5zM168 147q0 -20 13.5 -34.5t38.5 -14.5q45 0 81 29t36 75v10h-83
q-86 0 -86 -65zM188 566h-120l171 186h34l171 -186h-120l-68 74z" />
    <glyph glyph-name="atilde" unicode="&#xe3;" horiz-adv-x="514" 
d="M38 145q0 75 59.5 120t155.5 45h84v22q0 39 -25 56.5t-63 17.5q-67 0 -87 -58l-105 24q12 64 63.5 102t128.5 38q212 0 212 -211v-301h-102l-13 64q-59 -72 -155 -72q-67 0 -110 40.5t-43 112.5zM168 147q0 -20 13.5 -34.5t38.5 -14.5q45 0 81 29t36 75v10h-83
q-86 0 -86 -65zM131 569l-65 55q17 39 51 63t72 24q35 0 73 -20.5t60 -20.5q34 0 64 43l65 -55q-17 -39 -51 -63t-72 -24q-35 0 -73.5 20.5t-59.5 20.5q-34 0 -64 -43z" />
    <glyph glyph-name="adieresis" unicode="&#xe4;" horiz-adv-x="514" 
d="M38 145q0 75 59.5 120t155.5 45h84v22q0 39 -25 56.5t-63 17.5q-67 0 -87 -58l-105 24q12 64 63.5 102t128.5 38q212 0 212 -211v-301h-102l-13 64q-59 -72 -155 -72q-67 0 -110 40.5t-43 112.5zM168 147q0 -20 13.5 -34.5t38.5 -14.5q45 0 81 29t36 75v10h-83
q-86 0 -86 -65zM79 651q0 31 19.5 51t51.5 20t51.5 -20t19.5 -51t-19.5 -51t-51.5 -20t-51.5 20t-19.5 51zM286 651q0 31 19.5 51t51.5 20t51.5 -20t19.5 -51t-19.5 -51t-51.5 -20t-51.5 20t-19.5 51z" />
    <glyph glyph-name="aring" unicode="&#xe5;" horiz-adv-x="514" 
d="M38 145q0 75 59.5 120t155.5 45h84v22q0 39 -25 56.5t-63 17.5q-67 0 -87 -58l-105 24q12 64 63.5 102t128.5 38q212 0 212 -211v-301h-102l-13 64q-59 -72 -155 -72q-67 0 -110 40.5t-43 112.5zM168 147q0 -20 13.5 -34.5t38.5 -14.5q45 0 81 29t36 75v10h-83
q-86 0 -86 -65zM148 655q0 44 29 73t74 29t74 -29t29 -73t-29 -73t-74 -29t-74 29t-29 73zM221 655q0 -32 30 -32t30 32t-30 32t-30 -32z" />
    <glyph glyph-name="ae" unicode="&#xe6;" horiz-adv-x="850" 
d="M38 145q0 75 59.5 120t155.5 45h84v22q0 39 -25 56.5t-63 17.5q-67 0 -87 -58l-105 24q12 64 63.5 102t128.5 38q112 0 166 -61q64 61 164 61q60 0 107 -23t74 -61t40.5 -80t13.5 -85v-51h-347q2 -46 33.5 -80t85.5 -34q76 0 122 78l100 -37q-64 -147 -229 -147
q-132 0 -200 105q-70 -105 -188 -105q-67 0 -110 40.5t-43 112.5zM168 147q0 -20 13.5 -34.5t38.5 -14.5q45 0 81 29t36 75v10h-83q-86 0 -86 -65zM469 310h218q-8 42 -35 69t-73 27q-44 0 -73.5 -29t-36.5 -67z" />
    <glyph glyph-name="ccedilla" unicode="&#xe7;" horiz-adv-x="551" 
d="M43 252q0 112 64 186t182 74q171 0 229 -144l-111 -45q-42 83 -118 83q-57 0 -86.5 -42t-29.5 -112t29.5 -112t86.5 -42q76 0 118 83l111 -45q-58 -144 -229 -144q-118 0 -182 74t-64 186zM290 -266l-148 66l141 140h90z" />
    <glyph glyph-name="egrave" unicode="&#xe8;" horiz-adv-x="556" 
d="M43 252q0 47 14 91.5t41.5 83t76 62t110.5 23.5q60 0 107 -23t74 -61t40.5 -80t13.5 -85v-51h-347q2 -46 33.5 -80t85.5 -34q76 0 122 78l100 -37q-64 -147 -229 -147q-62 0 -110.5 23.5t-76 62t-41.5 83t-14 91.5zM176 310h217q-8 42 -35 69t-73 27q-44 0 -73 -29
t-36 -67zM257 560l-137 148h168l64 -148h-95z" />
    <glyph glyph-name="eacute" unicode="&#xe9;" horiz-adv-x="556" 
d="M43 252q0 47 14 91.5t41.5 83t76 62t110.5 23.5q60 0 107 -23t74 -61t40.5 -80t13.5 -85v-51h-347q2 -46 33.5 -80t85.5 -34q76 0 122 78l100 -37q-64 -147 -229 -147q-62 0 -110.5 23.5t-76 62t-41.5 83t-14 91.5zM176 310h217q-8 42 -35 69t-73 27q-44 0 -73 -29
t-36 -67zM293 560h-95l64 148h168z" />
    <glyph glyph-name="ecircumflex" unicode="&#xea;" horiz-adv-x="556" 
d="M43 252q0 47 14 91.5t41.5 83t76 62t110.5 23.5q60 0 107 -23t74 -61t40.5 -80t13.5 -85v-51h-347q2 -46 33.5 -80t85.5 -34q76 0 122 78l100 -37q-64 -147 -229 -147q-62 0 -110.5 23.5t-76 62t-41.5 83t-14 91.5zM176 310h217q-8 42 -35 69t-73 27q-44 0 -73 -29
t-36 -67zM217 566h-120l171 186h34l171 -186h-120l-68 74z" />
    <glyph glyph-name="edieresis" unicode="&#xeb;" horiz-adv-x="556" 
d="M43 252q0 47 14 91.5t41.5 83t76 62t110.5 23.5q60 0 107 -23t74 -61t40.5 -80t13.5 -85v-51h-347q2 -46 33.5 -80t85.5 -34q76 0 122 78l100 -37q-64 -147 -229 -147q-62 0 -110.5 23.5t-76 62t-41.5 83t-14 91.5zM176 310h217q-8 42 -35 69t-73 27q-44 0 -73 -29
t-36 -67zM111 651q0 31 19.5 51t51.5 20t51.5 -20t19.5 -51t-19.5 -51t-51.5 -20t-51.5 20t-19.5 51zM318 651q0 31 19.5 51t51.5 20t51.5 -20t19.5 -51t-19.5 -51t-51.5 -20t-51.5 20t-19.5 51z" />
    <glyph glyph-name="igrave" unicode="&#xec;" horiz-adv-x="260" 
d="M192 0h-124v504h124v-504zM122 560l-137 148h168l64 -148h-95z" />
    <glyph glyph-name="iacute" unicode="&#xed;" horiz-adv-x="260" 
d="M192 0h-124v504h124v-504zM139 560h-95l64 148h168z" />
    <glyph glyph-name="icircumflex" unicode="&#xee;" horiz-adv-x="260" 
d="M192 0h-124v504h124v-504zM64 566h-120l171 186h34l171 -186h-120l-68 74z" />
    <glyph glyph-name="idieresis" unicode="&#xef;" horiz-adv-x="260" 
d="M192 0h-124v504h124v-504zM-43 651q0 31 19.5 51t51.5 20t51.5 -20t19.5 -51t-19.5 -51t-51.5 -20t-51.5 20t-19.5 51zM164 651q0 31 19.5 51t51.5 20t51.5 -20t19.5 -51t-19.5 -51t-51.5 -20t-51.5 20t-19.5 51z" />
    <glyph glyph-name="eth" unicode="&#xf0;" horiz-adv-x="584" 
d="M43 252q0 115 65.5 187.5t183.5 72.5q43 0 81 -20q-28 51 -82 89l-32 -47l-75 53l29 42q-50 26 -86 39l62 91q45 -19 84 -42l33 48l76 -52l-32 -47q97 -69 144 -163t47 -227q0 -128 -65.5 -206t-183.5 -78t-183.5 72.5t-65.5 187.5zM173 252q0 -66 31 -110t88 -44t88 44
t31 110t-31 110t-88 44t-88 -44t-31 -110z" />
    <glyph glyph-name="ntilde" unicode="&#xf1;" 
d="M204 0h-124v504h124v-81q62 89 156 89q70 0 112.5 -39t42.5 -113v-360h-124v323q0 83 -72 83q-48 0 -81.5 -55t-33.5 -150v-201zM178 569l-65 55q17 39 51 63t72 24q35 0 73 -20.5t60 -20.5q34 0 64 43l65 -55q-17 -39 -51 -63t-72 -24q-35 0 -73.5 20.5t-59.5 20.5
q-34 0 -64 -43z" />
    <glyph glyph-name="ograve" unicode="&#xf2;" horiz-adv-x="598" 
d="M43 252q0 114 68.5 187t187.5 73t187.5 -73t68.5 -187t-68.5 -187t-187.5 -73t-187.5 73t-68.5 187zM173 252q0 -65 34 -109.5t92 -44.5t92 44.5t34 109.5t-34 109.5t-92 44.5t-92 -44.5t-34 -109.5zM280 560l-137 148h168l64 -148h-95z" />
    <glyph glyph-name="oacute" unicode="&#xf3;" horiz-adv-x="598" 
d="M43 252q0 114 68.5 187t187.5 73t187.5 -73t68.5 -187t-68.5 -187t-187.5 -73t-187.5 73t-68.5 187zM173 252q0 -65 34 -109.5t92 -44.5t92 44.5t34 109.5t-34 109.5t-92 44.5t-92 -44.5t-34 -109.5zM308 560h-95l64 148h168z" />
    <glyph glyph-name="ocircumflex" unicode="&#xf4;" horiz-adv-x="598" 
d="M43 252q0 114 68.5 187t187.5 73t187.5 -73t68.5 -187t-68.5 -187t-187.5 -73t-187.5 73t-68.5 187zM173 252q0 -65 34 -109.5t92 -44.5t92 44.5t34 109.5t-34 109.5t-92 44.5t-92 -44.5t-34 -109.5zM231 566h-120l171 186h34l171 -186h-120l-68 74z" />
    <glyph glyph-name="otilde" unicode="&#xf5;" horiz-adv-x="598" 
d="M43 252q0 114 68.5 187t187.5 73t187.5 -73t68.5 -187t-68.5 -187t-187.5 -73t-187.5 73t-68.5 187zM173 252q0 -65 34 -109.5t92 -44.5t92 44.5t34 109.5t-34 109.5t-92 44.5t-92 -44.5t-34 -109.5zM172 569l-65 55q17 39 51 63t72 24q35 0 73 -20.5t60 -20.5
q34 0 64 43l65 -55q-17 -39 -51 -63t-72 -24q-35 0 -73.5 20.5t-59.5 20.5q-34 0 -64 -43z" />
    <glyph glyph-name="odieresis" unicode="&#xf6;" horiz-adv-x="598" 
d="M43 252q0 114 68.5 187t187.5 73t187.5 -73t68.5 -187t-68.5 -187t-187.5 -73t-187.5 73t-68.5 187zM173 252q0 -65 34 -109.5t92 -44.5t92 44.5t34 109.5t-34 109.5t-92 44.5t-92 -44.5t-34 -109.5zM125 651q0 31 19.5 51t51.5 20t51.5 -20t19.5 -51t-19.5 -51
t-51.5 -20t-51.5 20t-19.5 51zM332 651q0 31 19.5 51t51.5 20t51.5 -20t19.5 -51t-19.5 -51t-51.5 -20t-51.5 20t-19.5 51z" />
    <glyph glyph-name="divide" unicode="&#xf7;" horiz-adv-x="560" 
d="M518 261h-476v108h476v-108zM196 124q0 36 24 60t60 24t60 -24t24 -60t-24 -60t-60 -24t-60 24t-24 60zM196 506q0 36 24 60t60 24t60 -24t24 -60t-24 -60t-60 -24t-60 24t-24 60z" />
    <glyph glyph-name="oslash" unicode="&#xf8;" horiz-adv-x="598" 
d="M122 -60l-86 63l62 79q-55 68 -55 170q0 114 68.5 187t187.5 73q64 0 117 -24l60 76l86 -63l-62 -79q55 -68 55 -170q0 -114 -68.5 -187t-187.5 -73q-64 0 -117 24zM173 252q0 -36 10 -62l162 207q-21 9 -46 9q-58 0 -92 -44.5t-34 -109.5zM415 314l-162 -207
q21 -9 46 -9q58 0 92 44.5t34 109.5q0 36 -10 62z" />
    <glyph glyph-name="ugrave" unicode="&#xf9;" 
d="M72 144v360h124v-323q0 -83 72 -83q48 0 81.5 55t33.5 150v201h124v-504h-124v81q-62 -89 -156 -89q-70 0 -112.5 39t-42.5 113zM258 560l-137 148h168l64 -148h-95z" />
    <glyph glyph-name="uacute" unicode="&#xfa;" 
d="M72 144v360h124v-323q0 -83 72 -83q48 0 81.5 55t33.5 150v201h124v-504h-124v81q-62 -89 -156 -89q-70 0 -112.5 39t-42.5 113zM317 560h-95l64 148h168z" />
    <glyph glyph-name="ucircumflex" unicode="&#xfb;" 
d="M72 144v360h124v-323q0 -83 72 -83q48 0 81.5 55t33.5 150v201h124v-504h-124v81q-62 -89 -156 -89q-70 0 -112.5 39t-42.5 113zM223 566h-120l171 186h34l171 -186h-120l-68 74z" />
    <glyph glyph-name="udieresis" unicode="&#xfc;" 
d="M72 144v360h124v-323q0 -83 72 -83q48 0 81.5 55t33.5 150v201h124v-504h-124v81q-62 -89 -156 -89q-70 0 -112.5 39t-42.5 113zM124 651q0 31 19.5 51t51.5 20t51.5 -20t19.5 -51t-19.5 -51t-51.5 -20t-51.5 20t-19.5 51zM331 651q0 31 19.5 51t51.5 20t51.5 -20
t19.5 -51t-19.5 -51t-51.5 -20t-51.5 20t-19.5 51z" />
    <glyph glyph-name="yacute" unicode="&#xfd;" horiz-adv-x="481" 
d="M186 32l-183 472h125l117 -316l110 316h124l-260 -708h-120zM262 560h-95l64 148h168z" />
    <glyph glyph-name="thorn" unicode="&#xfe;" horiz-adv-x="599" 
d="M204 -204h-124v912h124v-250q18 22 52 38t70 16q111 0 170.5 -70.5t59.5 -189.5t-59.5 -189.5t-170.5 -70.5q-43 0 -77 18.5t-45 41.5v-256zM193 252q0 -73 32.5 -113.5t83.5 -40.5t84 41t33 113t-33 113t-84 41t-83.5 -40.5t-32.5 -113.5z" />
    <glyph glyph-name="ydieresis" unicode="&#xff;" horiz-adv-x="481" 
d="M186 32l-183 472h125l117 -316l110 316h124l-260 -708h-120zM69 651q0 31 19.5 51t51.5 20t51.5 -20t19.5 -51t-19.5 -51t-51.5 -20t-51.5 20t-19.5 51zM276 651q0 31 19.5 51t51.5 20t51.5 -20t19.5 -51t-19.5 -51t-51.5 -20t-51.5 20t-19.5 51z" />
    <glyph glyph-name="Amacron" unicode="&#x100;" horiz-adv-x="614" 
d="M145 0h-140l237 700h130l237 -700h-140l-51 165h-222zM307 528l-74 -243h148zM442 794h-269v110h269v-110z" />
    <glyph glyph-name="amacron" unicode="&#x101;" horiz-adv-x="514" 
d="M38 145q0 75 59.5 120t155.5 45h84v22q0 39 -25 56.5t-63 17.5q-67 0 -87 -58l-105 24q12 64 63.5 102t128.5 38q212 0 212 -211v-301h-102l-13 64q-59 -72 -155 -72q-67 0 -110 40.5t-43 112.5zM168 147q0 -20 13.5 -34.5t38.5 -14.5q45 0 81 29t36 75v10h-83
q-86 0 -86 -65zM389 599h-269v110h269v-110z" />
    <glyph glyph-name="Abreve" unicode="&#x102;" horiz-adv-x="614" 
d="M145 0h-140l237 700h130l237 -700h-140l-51 165h-222zM307 528l-74 -243h148zM189 896h91q0 -12 7.5 -20t19.5 -8t19.5 8t7.5 20h91q0 -45 -32.5 -77t-85.5 -32t-85.5 32t-32.5 77z" />
    <glyph glyph-name="abreve" unicode="&#x103;" horiz-adv-x="514" 
d="M38 145q0 75 59.5 120t155.5 45h84v22q0 39 -25 56.5t-63 17.5q-67 0 -87 -58l-105 24q12 64 63.5 102t128.5 38q212 0 212 -211v-301h-102l-13 64q-59 -72 -155 -72q-67 0 -110 40.5t-43 112.5zM168 147q0 -20 13.5 -34.5t38.5 -14.5q45 0 81 29t36 75v10h-83
q-86 0 -86 -65zM139 700h91q0 -12 7.5 -20t19.5 -8t19.5 8t7.5 20h91q0 -45 -32.5 -77t-85.5 -32t-85.5 32t-32.5 77z" />
    <glyph glyph-name="Aogonek" unicode="&#x104;" horiz-adv-x="614" 
d="M145 0h-140l237 700h130l237 -700q-58 -48 -58 -78q0 -26 26 -26q13 0 22.5 8t26.5 31l53 -43q-25 -40 -51 -58.5t-65 -18.5q-44 0 -70.5 24t-26.5 66q0 28 18 53.5t45 41.5h-60l-51 165h-222zM307 528l-74 -243h148z" />
    <glyph glyph-name="aogonek" unicode="&#x105;" horiz-adv-x="514" 
d="M38 145q0 75 59.5 120t155.5 45h84v22q0 39 -25 56.5t-63 17.5q-67 0 -87 -58l-105 24q12 64 63.5 102t128.5 38q212 0 212 -211v-301q-58 -48 -58 -78q0 -26 26 -26q13 0 22.5 8t26.5 31l53 -43q-25 -40 -51 -58.5t-65 -18.5q-44 0 -70.5 24t-26.5 66q0 28 18 53.5
t45 41.5h-22l-13 64q-59 -72 -155 -72q-67 0 -110 40.5t-43 112.5zM168 147q0 -20 13.5 -34.5t38.5 -14.5q45 0 81 29t36 75v10h-83q-86 0 -86 -65z" />
    <glyph glyph-name="Cacute" unicode="&#x106;" horiz-adv-x="700" 
d="M48 350q0 168 96 263t235 95q115 0 190 -55.5t100 -156.5l-117 -30q-46 122 -173 122q-86 0 -142.5 -61t-56.5 -177t56.5 -177t142.5 -61q127 0 173 122l117 -30q-25 -101 -100 -156.5t-190 -55.5q-139 0 -235 95t-96 263zM379 756h-95l64 148h168z" />
    <glyph glyph-name="cacute" unicode="&#x107;" horiz-adv-x="551" 
d="M43 252q0 112 64 186t182 74q171 0 229 -144l-111 -45q-42 83 -118 83q-57 0 -86.5 -42t-29.5 -112t29.5 -112t86.5 -42q76 0 118 83l111 -45q-58 -144 -229 -144q-118 0 -182 74t-64 186zM296 560h-95l64 148h168z" />
    <glyph glyph-name="Ccircumflex" unicode="&#x108;" horiz-adv-x="700" 
d="M48 350q0 168 96 263t235 95q115 0 190 -55.5t100 -156.5l-117 -30q-46 122 -173 122q-86 0 -142.5 -61t-56.5 -177t56.5 -177t142.5 -61q127 0 173 122l117 -30q-25 -101 -100 -156.5t-190 -55.5q-139 0 -235 95t-96 263zM312 762h-120l171 186h34l171 -186h-120l-68 74
z" />
    <glyph glyph-name="ccircumflex" unicode="&#x109;" horiz-adv-x="551" 
d="M43 252q0 112 64 186t182 74q171 0 229 -144l-111 -45q-42 83 -118 83q-57 0 -86.5 -42t-29.5 -112t29.5 -112t86.5 -42q76 0 118 83l111 -45q-58 -144 -229 -144q-118 0 -182 74t-64 186zM224 566h-120l171 186h34l171 -186h-120l-68 74z" />
    <glyph glyph-name="Cdotaccent" unicode="&#x10a;" horiz-adv-x="700" 
d="M48 350q0 168 96 263t235 95q115 0 190 -55.5t100 -156.5l-117 -30q-46 122 -173 122q-86 0 -142.5 -61t-56.5 -177t56.5 -177t142.5 -61q127 0 173 122l117 -30q-25 -101 -100 -156.5t-190 -55.5q-139 0 -235 95t-96 263zM301 845q0 34 22.5 57t57.5 23t57.5 -23
t22.5 -57t-22.5 -57t-57.5 -23t-57.5 23t-22.5 57z" />
    <glyph glyph-name="cdotaccent" unicode="&#x10b;" horiz-adv-x="551" 
d="M43 252q0 112 64 186t182 74q171 0 229 -144l-111 -45q-42 83 -118 83q-57 0 -86.5 -42t-29.5 -112t29.5 -112t86.5 -42q76 0 118 83l111 -45q-58 -144 -229 -144q-118 0 -182 74t-64 186zM210 649q0 34 22.5 57t57.5 23t57.5 -23t22.5 -57t-22.5 -57t-57.5 -23t-57.5 23
t-22.5 57z" />
    <glyph glyph-name="Ccaron" unicode="&#x10c;" horiz-adv-x="700" 
d="M48 350q0 168 96 263t235 95q115 0 190 -55.5t100 -156.5l-117 -30q-46 122 -173 122q-86 0 -142.5 -61t-56.5 -177t56.5 -177t142.5 -61q127 0 173 122l117 -30q-25 -101 -100 -156.5t-190 -55.5q-139 0 -235 95t-96 263zM364 762l-171 186h120l68 -74l68 74h120
l-171 -186h-34z" />
    <glyph glyph-name="ccaron" unicode="&#x10d;" horiz-adv-x="551" 
d="M43 252q0 112 64 186t182 74q171 0 229 -144l-111 -45q-42 83 -118 83q-57 0 -86.5 -42t-29.5 -112t29.5 -112t86.5 -42q76 0 118 83l111 -45q-58 -144 -229 -144q-118 0 -182 74t-64 186zM273 566l-171 186h120l68 -74l68 74h120l-171 -186h-34z" />
    <glyph glyph-name="Dcaron" unicode="&#x10e;" horiz-adv-x="683" 
d="M309 0h-219v700h219q64 0 121 -21t103.5 -62t74 -109.5t27.5 -157.5t-27.5 -157.5t-74 -109.5t-103.5 -62t-121 -21zM220 580v-460h48q46 0 84.5 10.5t74 34.5t56 71t20.5 114t-20.5 114t-56 71t-74 34.5t-84.5 10.5h-48zM246 762l-171 186h120l68 -74l68 74h120
l-171 -186h-34z" />
    <glyph glyph-name="dcaron" unicode="&#x10f;" horiz-adv-x="821" 
d="M43 252q0 119 59.5 189.5t170.5 70.5q36 0 70 -16t52 -38v250h124v-708h-124v52q-11 -23 -45 -41.5t-77 -18.5q-111 0 -170.5 70.5t-59.5 189.5zM173 252q0 -72 33 -113t84 -41t83.5 40.5t32.5 113.5t-32.5 113.5t-83.5 40.5t-84 -41t-33 -113zM671 464h-92l78 244h163z
" />
    <glyph glyph-name="Dcroat" unicode="&#x110;" horiz-adv-x="708" 
d="M115 296h-93v108h93v296h219q64 0 121 -21t103.5 -62t74 -109.5t27.5 -157.5t-27.5 -157.5t-74 -109.5t-103.5 -62t-121 -21h-219v296zM245 296v-176h48q46 0 84.5 10.5t74 34.5t56 71t20.5 114t-20.5 114t-56 71t-74 34.5t-84.5 10.5h-48v-176h93v-108h-93z" />
    <glyph glyph-name="dslash" unicode="&#x111;" horiz-adv-x="599" 
d="M43 252q0 119 59.5 189.5t170.5 70.5q36 0 70 -16t52 -38v101h-111v92h111v57h124v-57h72v-92h-72v-559h-124v52q-11 -23 -45 -41.5t-77 -18.5q-111 0 -170.5 70.5t-59.5 189.5zM173 252q0 -72 33 -113t84 -41t83.5 40.5t32.5 113.5t-32.5 113.5t-83.5 40.5t-84 -41
t-33 -113z" />
    <glyph glyph-name="Emacron" unicode="&#x112;" horiz-adv-x="575" 
d="M533 0h-443v700h433v-120h-303v-147h243v-120h-243v-193h313v-120zM450 794h-269v110h269v-110z" />
    <glyph glyph-name="emacron" unicode="&#x113;" horiz-adv-x="556" 
d="M43 252q0 47 14 91.5t41.5 83t76 62t110.5 23.5q60 0 107 -23t74 -61t40.5 -80t13.5 -85v-51h-347q2 -46 33.5 -80t85.5 -34q76 0 122 78l100 -37q-64 -147 -229 -147q-62 0 -110.5 23.5t-76 62t-41.5 83t-14 91.5zM176 310h217q-8 42 -35 69t-73 27q-44 0 -73 -29
t-36 -67zM420 599h-269v110h269v-110z" />
    <glyph glyph-name="Ebreve" unicode="&#x114;" horiz-adv-x="575" 
d="M533 0h-443v700h433v-120h-303v-147h243v-120h-243v-193h313v-120zM186 896h91q0 -12 7.5 -20t19.5 -8t19.5 8t7.5 20h91q0 -45 -32.5 -77t-85.5 -32t-85.5 32t-32.5 77z" />
    <glyph glyph-name="ebreve" unicode="&#x115;" horiz-adv-x="556" 
d="M43 252q0 47 14 91.5t41.5 83t76 62t110.5 23.5q60 0 107 -23t74 -61t40.5 -80t13.5 -85v-51h-347q2 -46 33.5 -80t85.5 -34q76 0 122 78l100 -37q-64 -147 -229 -147q-62 0 -110.5 23.5t-76 62t-41.5 83t-14 91.5zM176 310h217q-8 42 -35 69t-73 27q-44 0 -73 -29
t-36 -67zM164 700h91q0 -12 7.5 -20t19.5 -8t19.5 8t7.5 20h91q0 -45 -32.5 -77t-85.5 -32t-85.5 32t-32.5 77z" />
    <glyph glyph-name="Edotaccent" unicode="&#x116;" horiz-adv-x="575" 
d="M533 0h-443v700h433v-120h-303v-147h243v-120h-243v-193h313v-120zM223 845q0 34 22.5 57t57.5 23t57.5 -23t22.5 -57t-22.5 -57t-57.5 -23t-57.5 23t-22.5 57z" />
    <glyph glyph-name="edotaccent" unicode="&#x117;" horiz-adv-x="556" 
d="M43 252q0 47 14 91.5t41.5 83t76 62t110.5 23.5q60 0 107 -23t74 -61t40.5 -80t13.5 -85v-51h-347q2 -46 33.5 -80t85.5 -34q76 0 122 78l100 -37q-64 -147 -229 -147q-62 0 -110.5 23.5t-76 62t-41.5 83t-14 91.5zM176 310h217q-8 42 -35 69t-73 27q-44 0 -73 -29
t-36 -67zM206 649q0 34 22.5 57t57.5 23t57.5 -23t22.5 -57t-22.5 -57t-57.5 -23t-57.5 23t-22.5 57z" />
    <glyph glyph-name="Eogonek" unicode="&#x118;" horiz-adv-x="575" 
d="M453 0h-363v700h433v-120h-303v-147h243v-120h-243v-193h313v-120q-58 -48 -58 -78q0 -26 26 -26q13 0 22.5 8t26.5 31l53 -43q-25 -40 -51 -58.5t-65 -18.5q-44 0 -70.5 24t-26.5 66q0 28 18 53.5t45 41.5z" />
    <glyph glyph-name="eogonek" unicode="&#x119;" horiz-adv-x="556" 
d="M43 252q0 47 14 91.5t41.5 83t76 62t110.5 23.5q60 0 107 -23t74 -61t40.5 -80t13.5 -85v-51h-347q2 -46 33.5 -80t85.5 -34q76 0 122 78l100 -37q-49 -113 -156 -139q-58 -48 -58 -78q0 -26 26 -26q13 0 22.5 8t26.5 31l53 -43q-25 -40 -51 -58.5t-65 -18.5
q-44 0 -70.5 24t-26.5 66q0 51 51 88q-110 6 -166.5 83.5t-56.5 175.5zM176 310h217q-8 42 -35 69t-73 27q-44 0 -73 -29t-36 -67z" />
    <glyph glyph-name="Ecaron" unicode="&#x11a;" horiz-adv-x="575" 
d="M533 0h-443v700h433v-120h-303v-147h243v-120h-243v-193h313v-120zM289 762l-171 186h120l68 -74l68 74h120l-171 -186h-34z" />
    <glyph glyph-name="ecaron" unicode="&#x11b;" horiz-adv-x="556" 
d="M43 252q0 47 14 91.5t41.5 83t76 62t110.5 23.5q60 0 107 -23t74 -61t40.5 -80t13.5 -85v-51h-347q2 -46 33.5 -80t85.5 -34q76 0 122 78l100 -37q-64 -147 -229 -147q-62 0 -110.5 23.5t-76 62t-41.5 83t-14 91.5zM176 310h217q-8 42 -35 69t-73 27q-44 0 -73 -29
t-36 -67zM268 566l-171 186h120l68 -74l68 74h120l-171 -186h-34z" />
    <glyph glyph-name="Gcircumflex" unicode="&#x11c;" horiz-adv-x="732" 
d="M48 350q0 170 97 264t236 94q113 0 187.5 -60t103.5 -161l-119 -31q-54 132 -172 132q-89 0 -145 -60.5t-56 -177.5q0 -120 55 -179t143 -59q71 0 110.5 39.5t46.5 93.5h-130v108h256v-353h-109l-11 75q-55 -83 -170 -83q-135 0 -229 94t-94 264zM313 762h-120l171 186
h34l171 -186h-120l-68 74z" />
    <glyph glyph-name="gcircumflex" unicode="&#x11d;" horiz-adv-x="515" 
d="M39 -46q0 64 41 100q-26 31 -26 78q0 67 62 106q-35 41 -35 104q0 76 53 123t132 47q50 0 93 -22l95 50l49 -82l-72 -36q20 -35 20 -80q0 -77 -53 -122.5t-132 -45.5q-37 0 -73 11q-24 -13 -24 -38q0 -37 47 -37h103q82 0 129.5 -38.5t47.5 -109.5q0 -87 -67.5 -130.5
t-161.5 -43.5q-101 0 -164.5 43.5t-63.5 122.5zM154 -36q0 -35 31 -53.5t82 -18.5q105 0 105 62q0 30 -20.5 41t-60.5 11h-68q-33 0 -58 4q-11 -17 -11 -46zM197 342q0 -30 19.5 -49t49.5 -19t49.5 19t19.5 49q0 32 -19.5 51t-49.5 19t-49.5 -19t-19.5 -51zM191 566h-120
l171 186h34l171 -186h-120l-68 74z" />
    <glyph glyph-name="Gbreve" unicode="&#x11e;" horiz-adv-x="732" 
d="M48 350q0 170 97 264t236 94q113 0 187.5 -60t103.5 -161l-119 -31q-54 132 -172 132q-89 0 -145 -60.5t-56 -177.5q0 -120 55 -179t143 -59q71 0 110.5 39.5t46.5 93.5h-130v108h256v-353h-109l-11 75q-55 -83 -170 -83q-135 0 -229 94t-94 264zM262 896h91
q0 -12 7.5 -20t19.5 -8t19.5 8t7.5 20h91q0 -45 -32.5 -77t-85.5 -32t-85.5 32t-32.5 77z" />
    <glyph glyph-name="gbreve" unicode="&#x11f;" horiz-adv-x="515" 
d="M39 -46q0 64 41 100q-26 31 -26 78q0 67 62 106q-35 41 -35 104q0 76 53 123t132 47q50 0 93 -22l95 50l49 -82l-72 -36q20 -35 20 -80q0 -77 -53 -122.5t-132 -45.5q-37 0 -73 11q-24 -13 -24 -38q0 -37 47 -37h103q82 0 129.5 -38.5t47.5 -109.5q0 -87 -67.5 -130.5
t-161.5 -43.5q-101 0 -164.5 43.5t-63.5 122.5zM154 -36q0 -35 31 -53.5t82 -18.5q105 0 105 62q0 30 -20.5 41t-60.5 11h-68q-33 0 -58 4q-11 -17 -11 -46zM197 342q0 -30 19.5 -49t49.5 -19t49.5 19t19.5 49q0 32 -19.5 51t-49.5 19t-49.5 -19t-19.5 -51zM149 700h91
q0 -12 7.5 -20t19.5 -8t19.5 8t7.5 20h91q0 -45 -32.5 -77t-85.5 -32t-85.5 32t-32.5 77z" />
    <glyph glyph-name="Gdotaccent" unicode="&#x120;" horiz-adv-x="732" 
d="M48 350q0 170 97 264t236 94q113 0 187.5 -60t103.5 -161l-119 -31q-54 132 -172 132q-89 0 -145 -60.5t-56 -177.5q0 -120 55 -179t143 -59q71 0 110.5 39.5t46.5 93.5h-130v108h256v-353h-109l-11 75q-55 -83 -170 -83q-135 0 -229 94t-94 264zM302 845q0 34 22.5 57
t57.5 23t57.5 -23t22.5 -57t-22.5 -57t-57.5 -23t-57.5 23t-22.5 57z" />
    <glyph glyph-name="gdotaccent" unicode="&#x121;" horiz-adv-x="515" 
d="M39 -46q0 64 41 100q-26 31 -26 78q0 67 62 106q-35 41 -35 104q0 76 53 123t132 47q50 0 93 -22l95 50l49 -82l-72 -36q20 -35 20 -80q0 -77 -53 -122.5t-132 -45.5q-37 0 -73 11q-24 -13 -24 -38q0 -37 47 -37h103q82 0 129.5 -38.5t47.5 -109.5q0 -87 -67.5 -130.5
t-161.5 -43.5q-101 0 -164.5 43.5t-63.5 122.5zM154 -36q0 -35 31 -53.5t82 -18.5q105 0 105 62q0 30 -20.5 41t-60.5 11h-68q-33 0 -58 4q-11 -17 -11 -46zM197 342q0 -30 19.5 -49t49.5 -19t49.5 19t19.5 49q0 32 -19.5 51t-49.5 19t-49.5 -19t-19.5 -51zM186 649
q0 34 22.5 57t57.5 23t57.5 -23t22.5 -57t-22.5 -57t-57.5 -23t-57.5 23t-22.5 57z" />
    <glyph glyph-name="Gcommaaccent" unicode="&#x122;" horiz-adv-x="732" 
d="M48 350q0 170 97 264t236 94q113 0 187.5 -60t103.5 -161l-119 -31q-54 132 -172 132q-89 0 -145 -60.5t-56 -177.5q0 -120 55 -179t143 -59q71 0 110.5 39.5t46.5 93.5h-130v108h256v-353h-109l-11 75q-55 -83 -170 -83q-135 0 -229 94t-94 264zM328 -353h-87l75 302
h167z" />
    <glyph glyph-name="gcommaaccent" unicode="&#x123;" horiz-adv-x="515" 
d="M39 -46q0 64 41 100q-26 31 -26 78q0 67 62 106q-35 41 -35 104q0 76 53 123t132 47q50 0 93 -22l95 50l49 -82l-72 -36q20 -35 20 -80q0 -77 -53 -122.5t-132 -45.5q-37 0 -73 11q-24 -13 -24 -38q0 -37 47 -37h103q82 0 129.5 -38.5t47.5 -109.5q0 -87 -67.5 -130.5
t-161.5 -43.5q-101 0 -164.5 43.5t-63.5 122.5zM154 -36q0 -35 31 -53.5t82 -18.5q105 0 105 62q0 30 -20.5 41t-60.5 11h-68q-33 0 -58 4q-11 -17 -11 -46zM197 342q0 -30 19.5 -49t49.5 -19t49.5 19t19.5 49q0 32 -19.5 51t-49.5 19t-49.5 -19t-19.5 -51zM230 576
l-149 244h163l78 -244h-92z" />
    <glyph glyph-name="Hcircumflex" unicode="&#x124;" horiz-adv-x="720" 
d="M220 0h-130v700h130v-266h280v266h130v-700h-130v314h-280v-314zM292 762h-120l171 186h34l171 -186h-120l-68 74z" />
    <glyph glyph-name="hcircumflex" unicode="&#x125;" horiz-adv-x="593" 
d="M204 0h-124v708h124v-285q56 89 160 89q74 0 115.5 -38t41.5 -114v-360h-124v316q0 90 -75 90q-48 0 -83 -49t-35 -144v-213zM209 762h-120l171 186h34l171 -186h-120l-68 74z" />
    <glyph glyph-name="Hbar" unicode="&#x126;" horiz-adv-x="720" 
d="M90 496h-65v108h65v96h130v-96h280v96h130v-96h64v-108h-64v-496h-130v314h-280v-314h-130v496zM220 496v-62h280v62h-280z" />
    <glyph glyph-name="hbar" unicode="&#x127;" horiz-adv-x="593" 
d="M80 559h-72v92h72v57h124v-57h111v-92h-111v-136q56 89 160 89q74 0 115.5 -38t41.5 -114v-360h-124v316q0 90 -75 90q-48 0 -83 -49t-35 -144v-213h-124v559z" />
    <glyph glyph-name="Itilde" unicode="&#x128;" horiz-adv-x="310" 
d="M220 0h-130v700h130v-700zM29 765l-65 55q17 39 51 63t72 24q35 0 73 -20.5t60 -20.5q34 0 64 43l65 -55q-17 -39 -51 -63t-72 -24q-35 0 -73.5 20.5t-59.5 20.5q-34 0 -64 -43z" />
    <glyph glyph-name="itilde" unicode="&#x129;" horiz-adv-x="260" 
d="M192 0h-124v504h124v-504zM4 569l-65 55q17 39 51 63t72 24q35 0 73 -20.5t60 -20.5q34 0 64 43l65 -55q-17 -39 -51 -63t-72 -24q-35 0 -73.5 20.5t-59.5 20.5q-34 0 -64 -43z" />
    <glyph glyph-name="Imacron" unicode="&#x12a;" horiz-adv-x="310" 
d="M220 0h-130v700h130v-700zM289 794h-269v110h269v-110z" />
    <glyph glyph-name="imacron" unicode="&#x12b;" horiz-adv-x="260" 
d="M192 0h-124v504h124v-504zM266 599h-269v110h269v-110z" />
    <glyph glyph-name="Ibreve" unicode="&#x12c;" horiz-adv-x="310" 
d="M220 0h-130v700h130v-700zM37 896h91q0 -12 7.5 -20t19.5 -8t19.5 8t7.5 20h91q0 -45 -32.5 -77t-85.5 -32t-85.5 32t-32.5 77z" />
    <glyph glyph-name="ibreve" unicode="&#x12d;" horiz-adv-x="260" 
d="M192 0h-124v504h124v-504zM12 700h91q0 -12 7.5 -20t19.5 -8t19.5 8t7.5 20h91q0 -45 -32.5 -77t-85.5 -32t-85.5 32t-32.5 77z" />
    <glyph glyph-name="Iogonek" unicode="&#x12e;" horiz-adv-x="310" 
d="M77 -95q0 28 18 53.5t45 41.5h-50v700h130v-700q-58 -48 -58 -78q0 -26 26 -26q13 0 22.5 8t26.5 31l53 -43q-25 -40 -51 -58.5t-65 -18.5q-44 0 -70.5 24t-26.5 66z" />
    <glyph glyph-name="iogonek" unicode="&#x12f;" horiz-adv-x="260" 
d="M49 -95q0 28 18 53.5t45 41.5h-44v504h124v-504q-58 -48 -58 -78q0 -26 26 -26q13 0 22.5 8t26.5 31l53 -43q-25 -40 -51 -58.5t-65 -18.5q-44 0 -70.5 24t-26.5 66zM50 649q0 34 22.5 57t57.5 23t57.5 -23t22.5 -57t-22.5 -57t-57.5 -23t-57.5 23t-22.5 57z" />
    <glyph glyph-name="Idot" unicode="&#x130;" horiz-adv-x="310" 
d="M220 0h-130v700h130v-700zM75 845q0 34 22.5 57t57.5 23t57.5 -23t22.5 -57t-22.5 -57t-57.5 -23t-57.5 23t-22.5 57z" />
    <glyph glyph-name="dotlessi" unicode="&#x131;" horiz-adv-x="260" 
d="M192 0h-124v504h124v-504z" />
    <glyph glyph-name="IJ" unicode="&#x132;" horiz-adv-x="825" 
d="M220 0h-130v700h130v-700zM312 173l128 27q9 -46 30.5 -67t57.5 -21q45 0 69 27t24 93v468h130v-454q0 -136 -57 -195t-166 -59q-92 0 -148.5 48t-67.5 133z" />
    <glyph glyph-name="ij" unicode="&#x133;" horiz-adv-x="520" 
d="M50 649q0 34 22.5 57t57.5 23t57.5 -23t22.5 -57t-22.5 -57t-57.5 -23t-57.5 23t-22.5 57zM192 0h-124v504h124v-504zM241 -212l-30 109q60 16 88.5 47.5t28.5 98.5v461h124v-446q0 -118 -51.5 -182t-159.5 -88zM310 649q0 34 22.5 57t57.5 23t57.5 -23t22.5 -57
t-22.5 -57t-57.5 -23t-57.5 23t-22.5 57z" />
    <glyph glyph-name="Jcircumflex" unicode="&#x134;" horiz-adv-x="515" 
d="M2 173l128 27q9 -46 30.5 -67t57.5 -21q45 0 69 27t24 93v468h130v-454q0 -136 -57 -195t-166 -59q-92 0 -148.5 48t-67.5 133zM310 762h-120l171 186h34l171 -186h-120l-68 74z" />
    <glyph glyph-name="jcircumflex" unicode="&#x135;" horiz-adv-x="260" 
d="M62 566h-120l171 186h34l171 -186h-120l-68 74zM-19 -212l-30 109q60 16 88.5 47.5t28.5 98.5v461h124v-446q0 -118 -51.5 -182t-159.5 -88z" />
    <glyph glyph-name="Kcommaaccent" unicode="&#x136;" horiz-adv-x="643" 
d="M220 0h-130v700h130v-260l239 260h160l-284 -313l304 -387h-165l-254 334v-334zM298 -353h-87l75 302h167z" />
    <glyph glyph-name="kcommaaccent" unicode="&#x137;" horiz-adv-x="537" 
d="M204 0h-124v708h124v-402l164 198h153l-202 -232l215 -272h-152l-178 238v-238zM248 -353h-87l75 302h167z" />
    <glyph glyph-name="kgreenlandic" unicode="&#x138;" horiz-adv-x="537" 
d="M204 0h-124v504h124v-198l164 198h153l-202 -232l215 -272h-152l-178 238v-238z" />
    <glyph glyph-name="Lacute" unicode="&#x139;" horiz-adv-x="531" 
d="M517 0h-427v700h130v-580h297v-120zM187 756h-95l64 148h168z" />
    <glyph glyph-name="lacute" unicode="&#x13a;" horiz-adv-x="278" 
d="M202 0h-124v708h124v-708zM175 756h-95l64 148h168z" />
    <glyph glyph-name="Lcommaaccent" unicode="&#x13b;" horiz-adv-x="531" 
d="M517 0h-427v700h130v-580h297v-120zM252 -353h-87l75 302h167z" />
    <glyph glyph-name="lcommaaccent" unicode="&#x13c;" horiz-adv-x="278" 
d="M202 0h-124v708h124v-708zM92 -353h-87l75 302h167z" />
    <glyph glyph-name="Lcaron" unicode="&#x13d;" horiz-adv-x="551" 
d="M517 0h-427v700h130v-580h297v-120zM411 464h-92l78 244h163z" />
    <glyph glyph-name="lcaron" unicode="&#x13e;" horiz-adv-x="533" 
d="M202 0h-124v708h124v-708zM338 464h-92l78 244h163z" />
    <glyph glyph-name="Ldot" unicode="&#x13f;" horiz-adv-x="531" 
d="M517 0h-427v700h130v-580h297v-120zM315 369q0 36 24 60t60 24t60 -24t24 -60t-24 -60t-60 -24t-60 24t-24 60z" />
    <glyph glyph-name="ldot" unicode="&#x140;" horiz-adv-x="506" 
d="M202 0h-124v708h124v-708zM271 369q0 36 24 60t60 24t60 -24t24 -60t-24 -60t-60 -24t-60 24t-24 60z" />
    <glyph glyph-name="Lslash" unicode="&#x141;" horiz-adv-x="551" 
d="M56 206l-53 95l107 59v340h130v-268l101 56l53 -95l-154 -85v-188h297v-120h-427v236z" />
    <glyph glyph-name="lslash" unicode="&#x142;" horiz-adv-x="368" 
d="M71 241l-53 95l102 55v317h124v-249l49 27l53 -95l-102 -56v-335h-124v267z" />
    <glyph glyph-name="Nacute" unicode="&#x143;" horiz-adv-x="704" 
d="M220 0h-130v700h137l257 -462v462h130v-700h-137l-257 462v-462zM361 756h-95l64 148h168z" />
    <glyph glyph-name="nacute" unicode="&#x144;" 
d="M204 0h-124v504h124v-81q62 89 156 89q70 0 112.5 -39t42.5 -113v-360h-124v323q0 83 -72 83q-48 0 -81.5 -55t-33.5 -150v-201zM301 560h-95l64 148h168z" />
    <glyph glyph-name="Ncommaaccent" unicode="&#x145;" horiz-adv-x="704" 
d="M220 0h-130v700h137l257 -462v462h130v-700h-137l-257 462v-462zM298 -353h-87l75 302h167z" />
    <glyph glyph-name="ncommaaccent" unicode="&#x146;" 
d="M204 0h-124v504h124v-81q62 89 156 89q70 0 112.5 -39t42.5 -113v-360h-124v323q0 83 -72 83q-48 0 -81.5 -55t-33.5 -150v-201zM238 -353h-87l75 302h167z" />
    <glyph glyph-name="Ncaron" unicode="&#x147;" horiz-adv-x="704" 
d="M220 0h-130v700h137l257 -462v462h130v-700h-137l-257 462v-462zM335 762l-171 186h120l68 -74l68 74h120l-171 -186h-34z" />
    <glyph glyph-name="ncaron" unicode="&#x148;" 
d="M204 0h-124v504h124v-81q62 89 156 89q70 0 112.5 -39t42.5 -113v-360h-124v323q0 83 -72 83q-48 0 -81.5 -55t-33.5 -150v-201zM276 566l-171 186h120l68 -74l68 74h120l-171 -186h-34z" />
    <glyph glyph-name="napostrophe" unicode="&#x149;" horiz-adv-x="749" 
d="M366 0h-124v504h124v-81q62 89 156 89q70 0 112.5 -39t42.5 -113v-360h-124v323q0 83 -72 83q-48 0 -81.5 -55t-33.5 -150v-201zM109 464h-92l78 244h163z" />
    <glyph glyph-name="Eng" unicode="&#x14a;" horiz-adv-x="704" 
d="M220 0h-130v700h137l257 -462v462h130v-700q0 -212 -223 -212v120q43 0 66 20t27 72l-264 462v-462z" />
    <glyph glyph-name="eng" unicode="&#x14b;" 
d="M204 0h-124v504h124v-81q62 89 156 89q70 0 112.5 -39t42.5 -113v-302q0 -118 -51.5 -182t-159.5 -88l-30 109q60 16 88.5 47.5t28.5 98.5v280q0 83 -72 83q-48 0 -81.5 -55t-33.5 -150v-201z" />
    <glyph glyph-name="Omacron" unicode="&#x14c;" horiz-adv-x="756" 
d="M48 350q0 117 46.5 200t119.5 120.5t164 37.5t164 -37.5t119.5 -120.5t46.5 -200t-46.5 -200t-119.5 -120.5t-164 -37.5t-164 37.5t-119.5 120.5t-46.5 200zM180 350q0 -117 56.5 -177.5t141.5 -60.5t141.5 60.5t56.5 177.5t-56.5 177.5t-141.5 60.5t-141.5 -60.5
t-56.5 -177.5zM512 794h-269v110h269v-110z" />
    <glyph glyph-name="omacron" unicode="&#x14d;" horiz-adv-x="598" 
d="M43 252q0 114 68.5 187t187.5 73t187.5 -73t68.5 -187t-68.5 -187t-187.5 -73t-187.5 73t-68.5 187zM173 252q0 -65 34 -109.5t92 -44.5t92 44.5t34 109.5t-34 109.5t-92 44.5t-92 -44.5t-34 -109.5zM433 599h-269v110h269v-110z" />
    <glyph glyph-name="Obreve" unicode="&#x14e;" horiz-adv-x="756" 
d="M48 350q0 117 46.5 200t119.5 120.5t164 37.5t164 -37.5t119.5 -120.5t46.5 -200t-46.5 -200t-119.5 -120.5t-164 -37.5t-164 37.5t-119.5 120.5t-46.5 200zM180 350q0 -117 56.5 -177.5t141.5 -60.5t141.5 60.5t56.5 177.5t-56.5 177.5t-141.5 60.5t-141.5 -60.5
t-56.5 -177.5zM260 896h91q0 -12 7.5 -20t19.5 -8t19.5 8t7.5 20h91q0 -45 -32.5 -77t-85.5 -32t-85.5 32t-32.5 77z" />
    <glyph glyph-name="obreve" unicode="&#x14f;" horiz-adv-x="598" 
d="M43 252q0 114 68.5 187t187.5 73t187.5 -73t68.5 -187t-68.5 -187t-187.5 -73t-187.5 73t-68.5 187zM173 252q0 -65 34 -109.5t92 -44.5t92 44.5t34 109.5t-34 109.5t-92 44.5t-92 -44.5t-34 -109.5zM181 700h91q0 -12 7.5 -20t19.5 -8t19.5 8t7.5 20h91q0 -45 -32.5 -77
t-85.5 -32t-85.5 32t-32.5 77z" />
    <glyph glyph-name="Ohungarumlaut" unicode="&#x150;" horiz-adv-x="756" 
d="M48 350q0 117 46.5 200t119.5 120.5t164 37.5t164 -37.5t119.5 -120.5t46.5 -200t-46.5 -200t-119.5 -120.5t-164 -37.5t-164 37.5t-119.5 120.5t-46.5 200zM180 350q0 -117 56.5 -177.5t141.5 -60.5t141.5 60.5t56.5 177.5t-56.5 177.5t-141.5 60.5t-141.5 -60.5
t-56.5 -177.5zM295 756h-95l64 148h168zM498 756h-95l64 148h168z" />
    <glyph glyph-name="ohungarumlaut" unicode="&#x151;" horiz-adv-x="598" 
d="M43 252q0 114 68.5 187t187.5 73t187.5 -73t68.5 -187t-68.5 -187t-187.5 -73t-187.5 73t-68.5 187zM173 252q0 -65 34 -109.5t92 -44.5t92 44.5t34 109.5t-34 109.5t-92 44.5t-92 -44.5t-34 -109.5zM206 560h-95l64 148h168zM409 560h-95l64 148h168z" />
    <glyph glyph-name="OE" unicode="&#x152;" horiz-adv-x="1062" 
d="M48 350q0 117 46.5 200t119.5 120.5t164 37.5q116 0 199 -61v53h433v-120h-303v-147h243v-120h-243v-193h313v-120h-443v52q-84 -60 -199 -60q-91 0 -164 37.5t-119.5 120.5t-46.5 200zM180 350q0 -117 56.5 -177.5t141.5 -60.5q84 0 141.5 60.5t57.5 177.5t-57.5 177.5
t-141.5 60.5q-85 0 -141.5 -60.5t-56.5 -177.5z" />
    <glyph glyph-name="oe" unicode="&#x153;" horiz-adv-x="938" 
d="M43 252q0 114 68.5 187t187.5 73t190 -76q66 76 178 76q60 0 107 -23t74 -61t40.5 -80t13.5 -85v-51h-347q2 -46 33.5 -80t85.5 -34q42 0 70 19t52 59l100 -37q-64 -147 -229 -147q-113 0 -179 76q-71 -76 -189 -76q-119 0 -187.5 73t-68.5 187zM173 252q0 -65 34 -109.5
t92 -44.5t92 44.5t34 109.5q0 64 -34.5 109t-91.5 45q-58 0 -92 -44.5t-34 -109.5zM558 310h217q-8 42 -35 69t-73 27q-44 0 -73 -29t-36 -67z" />
    <glyph glyph-name="Racute" unicode="&#x154;" horiz-adv-x="653" 
d="M220 0h-130v700h255q102 0 157.5 -54.5t55.5 -144.5q0 -70 -34 -119t-97 -69l194 -313h-145l-188 302h-68v-302zM220 580v-158h126q82 0 82 79t-82 79h-126zM310 756h-95l64 148h168z" />
    <glyph glyph-name="racute" unicode="&#x155;" horiz-adv-x="422" 
d="M204 0h-124v504h124v-82q54 90 149 90q32 0 61 -10l-23 -115q-23 14 -52 14q-59 0 -97 -53.5t-38 -168.5v-179zM250 560h-95l64 148h168z" />
    <glyph glyph-name="Rcommaaccent" unicode="&#x156;" horiz-adv-x="653" 
d="M220 0h-130v700h255q102 0 157.5 -54.5t55.5 -144.5q0 -70 -34 -119t-97 -69l194 -313h-145l-188 302h-68v-302zM220 580v-158h126q82 0 82 79t-82 79h-126zM288 -353h-87l75 302h167z" />
    <glyph glyph-name="rcommaaccent" unicode="&#x157;" horiz-adv-x="422" 
d="M204 0h-124v504h124v-82q54 90 149 90q32 0 61 -10l-23 -115q-23 14 -52 14q-59 0 -97 -53.5t-38 -168.5v-179zM129 -353h-87l75 302h167z" />
    <glyph glyph-name="Rcaron" unicode="&#x158;" horiz-adv-x="653" 
d="M220 0h-130v700h255q102 0 157.5 -54.5t55.5 -144.5q0 -70 -34 -119t-97 -69l194 -313h-145l-188 302h-68v-302zM220 580v-158h126q82 0 82 79t-82 79h-126zM272 762l-171 186h120l68 -74l68 74h120l-171 -186h-34z" />
    <glyph glyph-name="rcaron" unicode="&#x159;" horiz-adv-x="422" 
d="M204 0h-124v504h124v-82q54 90 149 90q32 0 61 -10l-23 -115q-23 14 -52 14q-59 0 -97 -53.5t-38 -168.5v-179zM230 566l-171 186h120l68 -74l68 74h120l-171 -186h-34z" />
    <glyph glyph-name="Sacute" unicode="&#x15a;" horiz-adv-x="537" 
d="M35 188l105 66q41 -142 139 -142q91 0 91 91q0 23 -16 41.5t-42 32.5t-57 28t-62.5 32.5t-57.5 41t-42 58.5t-16 81q0 80 55 135t136 55q141 0 202 -127l-105 -67q-38 74 -97 74q-29 0 -48 -18t-19 -46q0 -33 31 -58.5t74.5 -45.5t87.5 -44t75 -66.5t31 -99.5
q0 -101 -61 -159.5t-163 -58.5q-92 0 -158.5 56.5t-82.5 139.5zM294 756h-95l64 148h168z" />
    <glyph glyph-name="sacute" unicode="&#x15b;" horiz-adv-x="456" 
d="M36 128l99 53q32 -83 101 -83q62 0 62 54q0 15 -12.5 26.5t-26.5 17.5t-42.5 16t-44.5 17q-49 21 -75.5 51.5t-26.5 84.5q0 60 45 103.5t116 43.5q50 0 92 -22.5t66 -59.5l-74 -68q-33 44 -84 44q-19 0 -32.5 -11t-13.5 -31q0 -32 48 -49q5 -2 31 -10.5t36 -12.5
t32.5 -14t33.5 -20t24.5 -24.5t19 -33t5.5 -40.5q0 -70 -49.5 -119t-129.5 -49q-73 0 -126 41.5t-74 94.5zM237 560h-95l64 148h168z" />
    <glyph glyph-name="Scircumflex" unicode="&#x15c;" horiz-adv-x="537" 
d="M35 188l105 66q41 -142 139 -142q91 0 91 91q0 23 -16 41.5t-42 32.5t-57 28t-62.5 32.5t-57.5 41t-42 58.5t-16 81q0 80 55 135t136 55q141 0 202 -127l-105 -67q-38 74 -97 74q-29 0 -48 -18t-19 -46q0 -33 31 -58.5t74.5 -45.5t87.5 -44t75 -66.5t31 -99.5
q0 -101 -61 -159.5t-163 -58.5q-92 0 -158.5 56.5t-82.5 139.5zM205 762h-120l171 186h34l171 -186h-120l-68 74z" />
    <glyph glyph-name="scircumflex" unicode="&#x15d;" horiz-adv-x="456" 
d="M36 128l99 53q32 -83 101 -83q62 0 62 54q0 15 -12.5 26.5t-26.5 17.5t-42.5 16t-44.5 17q-49 21 -75.5 51.5t-26.5 84.5q0 60 45 103.5t116 43.5q50 0 92 -22.5t66 -59.5l-74 -68q-33 44 -84 44q-19 0 -32.5 -11t-13.5 -31q0 -32 48 -49q5 -2 31 -10.5t36 -12.5
t32.5 -14t33.5 -20t24.5 -24.5t19 -33t5.5 -40.5q0 -70 -49.5 -119t-129.5 -49q-73 0 -126 41.5t-74 94.5zM166 566h-120l171 186h34l171 -186h-120l-68 74z" />
    <glyph glyph-name="Scedilla" unicode="&#x15e;" horiz-adv-x="537" 
d="M35 188l105 66q41 -142 139 -142q91 0 91 91q0 23 -16 41.5t-42 32.5t-57 28t-62.5 32.5t-57.5 41t-42 58.5t-16 81q0 80 55 135t136 55q141 0 202 -127l-105 -67q-38 74 -97 74q-29 0 -48 -18t-19 -46q0 -33 31 -58.5t74.5 -45.5t87.5 -44t75 -66.5t31 -99.5
q0 -101 -61 -159.5t-163 -58.5q-92 0 -158.5 56.5t-82.5 139.5zM269 -266l-148 66l141 140h90z" />
    <glyph glyph-name="scedilla" unicode="&#x15f;" horiz-adv-x="456" 
d="M36 128l99 53q32 -83 101 -83q62 0 62 54q0 15 -12.5 26.5t-26.5 17.5t-42.5 16t-44.5 17q-49 21 -75.5 51.5t-26.5 84.5q0 60 45 103.5t116 43.5q50 0 92 -22.5t66 -59.5l-74 -68q-33 44 -84 44q-19 0 -32.5 -11t-13.5 -31q0 -32 48 -49q5 -2 31 -10.5t36 -12.5
t32.5 -14t33.5 -20t24.5 -24.5t19 -33t5.5 -40.5q0 -70 -49.5 -119t-129.5 -49q-73 0 -126 41.5t-74 94.5zM232 -266l-148 66l141 140h90z" />
    <glyph glyph-name="Scaron" unicode="&#x160;" horiz-adv-x="537" 
d="M35 188l105 66q41 -142 139 -142q91 0 91 91q0 23 -16 41.5t-42 32.5t-57 28t-62.5 32.5t-57.5 41t-42 58.5t-16 81q0 80 55 135t136 55q141 0 202 -127l-105 -67q-38 74 -97 74q-29 0 -48 -18t-19 -46q0 -33 31 -58.5t74.5 -45.5t87.5 -44t75 -66.5t31 -99.5
q0 -101 -61 -159.5t-163 -58.5q-92 0 -158.5 56.5t-82.5 139.5zM251 762l-171 186h120l68 -74l68 74h120l-171 -186h-34z" />
    <glyph glyph-name="scaron" unicode="&#x161;" horiz-adv-x="462" 
d="M36 128l99 53q32 -83 101 -83q62 0 62 54q0 15 -12.5 26.5t-26.5 17.5t-42.5 16t-44.5 17q-49 21 -75.5 51.5t-26.5 84.5q0 60 45 103.5t116 43.5q50 0 92 -22.5t66 -59.5l-74 -68q-33 44 -84 44q-19 0 -32.5 -11t-13.5 -31q0 -32 48 -49q5 -2 31 -10.5t36 -12.5
t32.5 -14t33.5 -20t24.5 -24.5t19 -33t5.5 -40.5q0 -70 -49.5 -119t-129.5 -49q-73 0 -126 41.5t-74 94.5zM216 566l-171 186h120l68 -74l68 74h120l-171 -186h-34z" />
    <glyph glyph-name="Tcommaaccent" unicode="&#x162;" horiz-adv-x="534" 
d="M202 580h-194v120h518v-120h-194v-580h-130v580zM201 -353h-87l75 302h167z" />
    <glyph glyph-name="tcommaaccent" unicode="&#x163;" horiz-adv-x="392" 
d="M96 398h-78v106h78v126l124 78v-204h133v-106h-133v-218q0 -45 16 -63.5t50 -18.5q25 0 48 12l29 -100q-39 -18 -82 -18q-88 0 -136.5 47t-48.5 139v220zM168 -353h-87l75 302h167z" />
    <glyph glyph-name="Tcaron" unicode="&#x164;" horiz-adv-x="534" 
d="M202 580h-194v120h518v-120h-194v-580h-130v580zM250 762l-171 186h120l68 -74l68 74h120l-171 -186h-34z" />
    <glyph glyph-name="tcaron" unicode="&#x165;" horiz-adv-x="618" 
d="M96 398h-78v106h78v126l124 78v-204h133v-106h-133v-218q0 -45 16 -63.5t50 -18.5q25 0 48 12l29 -100q-39 -18 -82 -18q-88 0 -136.5 47t-48.5 139v220zM479 464h-92l78 244h163z" />
    <glyph glyph-name="Tbar" unicode="&#x166;" horiz-adv-x="534" 
d="M202 580h-194v120h518v-120h-194v-96h169v-108h-169v-376h-130v376h-170v108h170v96z" />
    <glyph glyph-name="tbar" unicode="&#x167;" horiz-adv-x="392" 
d="M96 398h-78v106h78v126l124 78v-204h133v-106h-133v-64h111v-92h-111v-62q0 -45 16 -63.5t50 -18.5q25 0 48 12l29 -100q-39 -18 -82 -18q-88 0 -136.5 47t-48.5 139v64h-62v92h62v64z" />
    <glyph glyph-name="Utilde" unicode="&#x168;" horiz-adv-x="656" 
d="M67 266v434h130v-436q0 -152 131 -152t131 152v436h130v-434q0 -135 -71 -204.5t-190 -69.5t-190 69.5t-71 204.5zM201 765l-65 55q17 39 51 63t72 24q35 0 73 -20.5t60 -20.5q34 0 64 43l65 -55q-17 -39 -51 -63t-72 -24q-35 0 -73.5 20.5t-59.5 20.5q-34 0 -64 -43z
" />
    <glyph glyph-name="utilde" unicode="&#x169;" 
d="M72 144v360h124v-323q0 -83 72 -83q48 0 81.5 55t33.5 150v201h124v-504h-124v81q-62 -89 -156 -89q-70 0 -112.5 39t-42.5 113zM166 569l-65 55q17 39 51 63t72 24q35 0 73 -20.5t60 -20.5q34 0 64 43l65 -55q-17 -39 -51 -63t-72 -24q-35 0 -73.5 20.5t-59.5 20.5
q-34 0 -64 -43z" />
    <glyph glyph-name="Umacron" unicode="&#x16a;" horiz-adv-x="656" 
d="M67 266v434h130v-436q0 -152 131 -152t131 152v436h130v-434q0 -135 -71 -204.5t-190 -69.5t-190 69.5t-71 204.5zM463 794h-269v110h269v-110z" />
    <glyph glyph-name="umacron" unicode="&#x16b;" 
d="M72 144v360h124v-323q0 -83 72 -83q48 0 81.5 55t33.5 150v201h124v-504h-124v81q-62 -89 -156 -89q-70 0 -112.5 39t-42.5 113zM428 599h-269v110h269v-110z" />
    <glyph glyph-name="Ubreve" unicode="&#x16c;" horiz-adv-x="656" 
d="M67 266v434h130v-436q0 -152 131 -152t131 152v436h130v-434q0 -135 -71 -204.5t-190 -69.5t-190 69.5t-71 204.5zM210 896h91q0 -12 7.5 -20t19.5 -8t19.5 8t7.5 20h91q0 -45 -32.5 -77t-85.5 -32t-85.5 32t-32.5 77z" />
    <glyph glyph-name="ubreve" unicode="&#x16d;" 
d="M72 144v360h124v-323q0 -83 72 -83q48 0 81.5 55t33.5 150v201h124v-504h-124v81q-62 -89 -156 -89q-70 0 -112.5 39t-42.5 113zM175 700h91q0 -12 7.5 -20t19.5 -8t19.5 8t7.5 20h91q0 -45 -32.5 -77t-85.5 -32t-85.5 32t-32.5 77z" />
    <glyph glyph-name="Uring" unicode="&#x16e;" horiz-adv-x="656" 
d="M67 266v434h130v-436q0 -152 131 -152t131 152v436h130v-434q0 -135 -71 -204.5t-190 -69.5t-190 69.5t-71 204.5zM225 851q0 44 29 73t74 29t74 -29t29 -73t-29 -73t-74 -29t-74 29t-29 73zM298 851q0 -32 30 -32t30 32t-30 32t-30 -32z" />
    <glyph glyph-name="uring" unicode="&#x16f;" 
d="M72 144v360h124v-323q0 -83 72 -83q48 0 81.5 55t33.5 150v201h124v-504h-124v81q-62 -89 -156 -89q-70 0 -112.5 39t-42.5 113zM190 655q0 44 29 73t74 29t74 -29t29 -73t-29 -73t-74 -29t-74 29t-29 73zM263 655q0 -32 30 -32t30 32t-30 32t-30 -32z" />
    <glyph glyph-name="Uhungarumlaut" unicode="&#x170;" horiz-adv-x="656" 
d="M67 266v434h130v-436q0 -152 131 -152t131 152v436h130v-434q0 -135 -71 -204.5t-190 -69.5t-190 69.5t-71 204.5zM235 756h-95l64 148h168zM438 756h-95l64 148h168z" />
    <glyph glyph-name="uhungarumlaut" unicode="&#x171;" 
d="M72 144v360h124v-323q0 -83 72 -83q48 0 81.5 55t33.5 150v201h124v-504h-124v81q-62 -89 -156 -89q-70 0 -112.5 39t-42.5 113zM200 560h-95l64 148h168zM403 560h-95l64 148h168z" />
    <glyph glyph-name="Uogonek" unicode="&#x172;" horiz-adv-x="656" 
d="M67 266v434h130v-436q0 -152 131 -152t131 152v436h130v-434q0 -114 -49.5 -180.5t-137.5 -85.5q-57 -50 -57 -78q0 -26 26 -26q13 0 22.5 8t26.5 31l53 -43q-25 -40 -51 -58.5t-65 -18.5q-44 0 -70.5 24t-26.5 66q0 51 50 87q-111 4 -177 74t-66 200z" />
    <glyph glyph-name="uogonek" unicode="&#x173;" 
d="M72 144v360h124v-323q0 -83 72 -83q48 0 81.5 55t33.5 150v201h124v-504q-58 -48 -58 -78q0 -26 26 -26q13 0 22.5 8t26.5 31l53 -43q-25 -40 -51 -58.5t-65 -18.5q-44 0 -70.5 24t-26.5 66q0 28 18 53.5t45 41.5h-44v81q-62 -89 -156 -89q-70 0 -112.5 39t-42.5 113z
" />
    <glyph glyph-name="Wcircumflex" unicode="&#x174;" horiz-adv-x="920" 
d="M201 0l-183 700h138l117 -515l131 441h112l131 -441l117 515h138l-183 -700h-132l-127 412l-127 -412h-132zM392 762h-120l171 186h34l171 -186h-120l-68 74z" />
    <glyph glyph-name="wcircumflex" unicode="&#x175;" horiz-adv-x="766" 
d="M186 0l-161 504h125l90 -346l85 346h116l85 -346l90 346h125l-161 -504h-110l-87 326l-87 -326h-110zM315 566h-120l171 186h34l171 -186h-120l-68 74z" />
    <glyph glyph-name="Ycircumflex" unicode="&#x176;" horiz-adv-x="534" 
d="M202 298l-202 402h140l127 -272l127 272h140l-202 -402v-298h-130v298zM199 762h-120l171 186h34l171 -186h-120l-68 74z" />
    <glyph glyph-name="ycircumflex" unicode="&#x177;" horiz-adv-x="481" 
d="M186 32l-183 472h125l117 -316l110 316h124l-260 -708h-120zM177 566h-120l171 186h34l171 -186h-120l-68 74z" />
    <glyph glyph-name="Ydieresis" unicode="&#x178;" horiz-adv-x="534" 
d="M202 298l-202 402h140l127 -272l127 272h140l-202 -402v-298h-130v298zM93 847q0 31 19.5 51t51.5 20t51.5 -20t19.5 -51t-19.5 -51t-51.5 -20t-51.5 20t-19.5 51zM300 847q0 31 19.5 51t51.5 20t51.5 -20t19.5 -51t-19.5 -51t-51.5 -20t-51.5 20t-19.5 51z" />
    <glyph glyph-name="Zacute" unicode="&#x179;" horiz-adv-x="558" 
d="M525 0h-495v60l303 520h-286v120h464v-60l-300 -520h314v-120zM286 756h-95l64 148h168z" />
    <glyph glyph-name="zacute" unicode="&#x17a;" horiz-adv-x="465" 
d="M427 0h-386v48l218 350h-202v106h356v-48l-216 -350h230v-106zM241 560h-95l64 148h168z" />
    <glyph glyph-name="Zdotaccent" unicode="&#x17b;" horiz-adv-x="558" 
d="M525 0h-495v60l303 520h-286v120h464v-60l-300 -520h314v-120zM190 845q0 34 22.5 57t57.5 23t57.5 -23t22.5 -57t-22.5 -57t-57.5 -23t-57.5 23t-22.5 57z" />
    <glyph glyph-name="zdotaccent" unicode="&#x17c;" horiz-adv-x="465" 
d="M427 0h-386v48l218 350h-202v106h356v-48l-216 -350h230v-106zM154 649q0 34 22.5 57t57.5 23t57.5 -23t22.5 -57t-22.5 -57t-57.5 -23t-57.5 23t-22.5 57z" />
    <glyph glyph-name="Zcaron" unicode="&#x17d;" horiz-adv-x="558" 
d="M525 0h-495v60l303 520h-286v120h464v-60l-300 -520h314v-120zM259 762l-171 186h120l68 -74l68 74h120l-171 -186h-34z" />
    <glyph glyph-name="zcaron" unicode="&#x17e;" horiz-adv-x="465" 
d="M427 0h-386v48l218 350h-202v106h356v-48l-216 -350h230v-106zM220 566l-171 186h120l68 -74l68 74h120l-171 -186h-34z" />
    <glyph glyph-name="longs" unicode="&#x17f;" horiz-adv-x="368" 
d="M96 398h-64v106h64v26q0 89 46.5 133.5t127.5 44.5q56 0 94 -20l-27 -100q-33 14 -60 14q-57 0 -57 -63v-539h-124v398z" />
    <glyph glyph-name="uni018E" unicode="&#x18e;" horiz-adv-x="575" 
d="M42 700h443v-700h-433v120h303v147h-243v120h243v193h-313v120z" />
    <glyph glyph-name="uni018F" unicode="&#x18f;" horiz-adv-x="556" 
d="M513 252q0 -47 -14 -91.5t-41.5 -83t-76 -62t-110.5 -23.5q-60 0 -107 23t-74 61t-40.5 80t-13.5 85v51h347q-2 46 -33.5 80t-85.5 34q-76 0 -122 -78l-100 37q64 147 229 147q62 0 110.5 -23.5t76 -62t41.5 -83t14 -91.5zM380 194h-217q8 -42 35 -69t73 -27q44 0 73 29
t36 67z" />
    <glyph glyph-name="florin" unicode="&#x192;" horiz-adv-x="483" 
d="M-75 -192l46 100q30 -14 57 -14q57 0 70 63l85 441h-79l21 106h80l5 26q17 90 72 134t136 44q58 0 90 -20l-46 -100q-30 14 -57 14q-57 0 -70 -63l-6 -35h108l-21 -106h-108l-85 -432q-17 -90 -72 -134t-136 -44q-58 0 -90 20z" />
    <glyph glyph-name="uni01B5" unicode="&#x1b5;" horiz-adv-x="558" 
d="M525 0h-495v60l137 236h-94v108h157l103 176h-286v120h464v-60l-136 -236h114v-108h-177l-101 -176h314v-120z" />
    <glyph glyph-name="uni01B6" unicode="&#x1b6;" horiz-adv-x="465" 
d="M427 0h-386v48l106 170h-79v92h135l56 88h-202v106h356v-48l-90 -146h68v-92h-124l-70 -112h230v-106z" />
    <glyph glyph-name="Aringacute" unicode="&#x1fa;" horiz-adv-x="614" 
d="M145 0h-140l237 700h130l237 -700h-140l-51 165h-222zM307 528l-74 -243h148zM204 825q0 44 29 73t74 29t74 -29t29 -73t-29 -73t-74 -29t-74 29t-29 73zM277 825q0 -32 30 -32t30 32t-30 32t-30 -32zM322 956h-95l64 148h168z" />
    <glyph glyph-name="aringacute" unicode="&#x1fb;" horiz-adv-x="514" 
d="M38 145q0 75 59.5 120t155.5 45h84v22q0 39 -25 56.5t-63 17.5q-67 0 -87 -58l-105 24q12 64 63.5 102t128.5 38q212 0 212 -211v-301h-102l-13 64q-59 -72 -155 -72q-67 0 -110 40.5t-43 112.5zM168 147q0 -20 13.5 -34.5t38.5 -14.5q45 0 81 29t36 75v10h-83
q-86 0 -86 -65zM151 655q0 44 29 73t74 29t74 -29t29 -73t-29 -73t-74 -29t-74 29t-29 73zM224 655q0 -32 30 -32t30 32t-30 32t-30 -32zM270 786h-95l64 148h168z" />
    <glyph glyph-name="AEacute" unicode="&#x1fc;" horiz-adv-x="859" 
d="M148 0h-140l306 700h493v-120h-303v-147h243v-120h-243v-193h313v-120h-443v165h-160zM361 528l-98 -243h111v243h-13zM556 756h-95l64 148h168z" />
    <glyph glyph-name="aeacute" unicode="&#x1fd;" horiz-adv-x="850" 
d="M38 145q0 75 59.5 120t155.5 45h84v22q0 39 -25 56.5t-63 17.5q-67 0 -87 -58l-105 24q12 64 63.5 102t128.5 38q112 0 166 -61q64 61 164 61q60 0 107 -23t74 -61t40.5 -80t13.5 -85v-51h-347q2 -46 33.5 -80t85.5 -34q76 0 122 78l100 -37q-64 -147 -229 -147
q-132 0 -200 105q-70 -105 -188 -105q-67 0 -110 40.5t-43 112.5zM168 147q0 -20 13.5 -34.5t38.5 -14.5q45 0 81 29t36 75v10h-83q-86 0 -86 -65zM469 310h218q-8 42 -35 69t-73 27q-44 0 -73.5 -29t-36.5 -67zM447 560h-95l64 148h168z" />
    <glyph glyph-name="circumflex" unicode="&#x2c6;" horiz-adv-x="428" 
d="M146 566h-120l171 186h34l171 -186h-120l-68 74z" />
    <glyph glyph-name="caron" unicode="&#x2c7;" horiz-adv-x="428" 
d="M197 566l-171 186h120l68 -74l68 74h120l-171 -186h-34z" />
    <glyph glyph-name="breve" unicode="&#x2d8;" horiz-adv-x="259" 
d="M8 700h91q0 -12 7.5 -20t19.5 -8t19.5 8t7.5 20h91q0 -45 -32.5 -77t-85.5 -32t-85.5 32t-32.5 77z" />
    <glyph glyph-name="dotaccent" unicode="&#x2d9;" horiz-adv-x="288" 
d="M64 649q0 34 22.5 57t57.5 23t57.5 -23t22.5 -57t-22.5 -57t-57.5 -23t-57.5 23t-22.5 57z" />
    <glyph glyph-name="ring" unicode="&#x2da;" horiz-adv-x="234" 
d="M14 655q0 44 29 73t74 29t74 -29t29 -73t-29 -73t-74 -29t-74 29t-29 73zM87 655q0 -32 30 -32t30 32t-30 32t-30 -32z" />
    <glyph glyph-name="ogonek" unicode="&#x2db;" horiz-adv-x="229" 
d="M8 -95q0 28 18 53.5t45 41.5h80q-58 -48 -58 -78q0 -26 26 -26q13 0 22.5 8t26.5 31l53 -43q-25 -40 -51 -58.5t-65 -18.5q-44 0 -70.5 24t-26.5 66z" />
    <glyph glyph-name="tilde" unicode="&#x2dc;" horiz-adv-x="415" 
d="M80 569l-65 55q17 39 51 63t72 24q35 0 73 -20.5t60 -20.5q34 0 64 43l65 -55q-17 -39 -51 -63t-72 -24q-35 0 -73.5 20.5t-59.5 20.5q-34 0 -64 -43z" />
    <glyph glyph-name="hungarumlaut" unicode="&#x2dd;" horiz-adv-x="463" 
d="M113 560h-95l64 148h168zM316 560h-95l64 148h168z" />
    <glyph glyph-name="pi" unicode="&#x3c0;" horiz-adv-x="620" 
d="M133 396h-83v108h519v-108h-83v-396h-124v396h-105v-396h-124v396z" />
    <glyph glyph-name="uni0400" unicode="&#x400;" horiz-adv-x="575" 
d="M533 0h-443v700h433v-120h-303v-147h243v-120h-243v-193h313v-120zM295 756l-137 148h168l64 -148h-95z" />
    <glyph glyph-name="afii10023" unicode="&#x401;" horiz-adv-x="575" 
d="M533 0h-443v700h433v-120h-303v-147h243v-120h-243v-193h313v-120zM139 847q0 31 19.5 51t51.5 20t51.5 -20t19.5 -51t-19.5 -51t-51.5 -20t-51.5 20t-19.5 51zM346 847q0 31 19.5 51t51.5 20t51.5 -20t19.5 -51t-19.5 -51t-51.5 -20t-51.5 20t-19.5 51z" />
    <glyph glyph-name="afii10051" unicode="&#x402;" horiz-adv-x="720" 
d="M202 580h-194v120h518v-120h-194v-157q56 89 160 89q74 0 115.5 -38t41.5 -114v-98q0 -118 -51.5 -182t-159.5 -88l-30 109q60 16 88.5 47.5t28.5 98.5v69q0 90 -75 90q-47 0 -82.5 -49t-35.5 -144v-213h-130v580z" />
    <glyph glyph-name="afii10052" unicode="&#x403;" horiz-adv-x="530" 
d="M220 0h-130v700h434v-120h-304v-580zM313 756h-95l64 148h168z" />
    <glyph glyph-name="afii10053" unicode="&#x404;" horiz-adv-x="685" 
d="M48 350q0 171 87.5 264.5t227.5 93.5q104 0 181 -58t110 -154l-117 -32q-55 124 -174 124q-72 0 -118.5 -44.5t-60.5 -133.5h316v-120h-316q14 -89 60.5 -133.5t118.5 -44.5q121 0 174 124l117 -32q-33 -96 -110 -154t-181 -58q-140 0 -227.5 93.5t-87.5 264.5z" />
    <glyph glyph-name="afii10054" unicode="&#x405;" horiz-adv-x="537" 
d="M35 188l105 66q41 -142 139 -142q91 0 91 91q0 23 -16 41.5t-42 32.5t-57 28t-62.5 32.5t-57.5 41t-42 58.5t-16 81q0 80 55 135t136 55q141 0 202 -127l-105 -67q-38 74 -97 74q-29 0 -48 -18t-19 -46q0 -33 31 -58.5t74.5 -45.5t87.5 -44t75 -66.5t31 -99.5
q0 -101 -61 -159.5t-163 -58.5q-92 0 -158.5 56.5t-82.5 139.5z" />
    <glyph glyph-name="afii10055" unicode="&#x406;" horiz-adv-x="310" 
d="M220 0h-130v700h130v-700z" />
    <glyph glyph-name="afii10056" unicode="&#x407;" horiz-adv-x="310" 
d="M220 0h-130v700h130v-700zM-18 847q0 31 19.5 51t51.5 20t51.5 -20t19.5 -51t-19.5 -51t-51.5 -20t-51.5 20t-19.5 51zM189 847q0 31 19.5 51t51.5 20t51.5 -20t19.5 -51t-19.5 -51t-51.5 -20t-51.5 20t-19.5 51z" />
    <glyph glyph-name="afii10057" unicode="&#x408;" horiz-adv-x="515" 
d="M2 173l128 27q9 -46 30.5 -67t57.5 -21q45 0 69 27t24 93v468h130v-454q0 -136 -57 -195t-166 -59q-92 0 -148.5 48t-67.5 133z" />
    <glyph glyph-name="afii10058" unicode="&#x409;" horiz-adv-x="917" 
d="M7 0v124q33 0 49.5 3.5t29.5 20.5t15 52l37 500h375v-272h131q109 0 170 -55t61 -159t-61 -159t-170 -55h-261v576h-128l-28 -386q-13 -190 -220 -190zM513 308v-188h119q113 0 113 94t-113 94h-119z" />
    <glyph glyph-name="afii10059" unicode="&#x40a;" horiz-adv-x="952" 
d="M220 0h-130v700h130v-272h198v272h130v-272h131q109 0 170 -55t61 -159t-61 -159t-170 -55h-261v308h-198v-308zM548 308v-188h119q113 0 113 94t-113 94h-119z" />
    <glyph glyph-name="afii10060" unicode="&#x40b;" horiz-adv-x="721" 
d="M202 580h-194v120h518v-120h-194v-157q56 89 160 89q74 0 115.5 -38t41.5 -114v-360h-124v316q0 90 -75 90q-48 0 -83 -49t-35 -144v-213h-130v580z" />
    <glyph glyph-name="afii10061" unicode="&#x40c;" horiz-adv-x="643" 
d="M220 0h-130v700h130v-260l239 260h160l-284 -313l304 -387h-165l-254 334v-334zM349 756h-95l64 148h168z" />
    <glyph glyph-name="uni040D" unicode="&#x40d;" horiz-adv-x="704" 
d="M614 0h-130v462l-257 -462h-137v700h130v-462l257 462h137v-700zM325 756l-137 148h168l64 -148h-95z" />
    <glyph glyph-name="afii10062" unicode="&#x40e;" horiz-adv-x="520" 
d="M201 212l-203 488h125l139 -337l136 337h124l-290 -708h-120zM136 896h91q0 -12 7.5 -20t19.5 -8t19.5 8t7.5 20h91q0 -45 -32.5 -77t-85.5 -32t-85.5 32t-32.5 77z" />
    <glyph glyph-name="afii10145" unicode="&#x40f;" horiz-adv-x="692" 
d="M281 0h-191v700h130v-576h252v576h130v-700h-191v-124h-130v124z" />
    <glyph glyph-name="afii10017" unicode="&#x410;" horiz-adv-x="614" 
d="M145 0h-140l237 700h130l237 -700h-140l-51 165h-222zM307 528l-74 -243h148z" />
    <glyph glyph-name="afii10018" unicode="&#x411;" horiz-adv-x="624" 
d="M351 0h-261v700h426v-120h-296v-152h131q109 0 170 -55t61 -159t-61 -159t-170 -55zM220 308v-188h119q113 0 113 94t-113 94h-119z" />
    <glyph glyph-name="afii10019" unicode="&#x412;" horiz-adv-x="624" 
d="M351 0h-261v700h256q92 0 146 -48t54 -141q0 -43 -18 -77.5t-51 -51.5q105 -42 105 -171q0 -102 -61 -156.5t-170 -54.5zM220 308v-188h119q113 0 113 94t-113 94h-119zM220 580v-152h119q41 0 61.5 17.5t20.5 58.5t-20.5 58.5t-64.5 17.5h-116z" />
    <glyph glyph-name="afii10020" unicode="&#x413;" horiz-adv-x="530" 
d="M220 0h-130v700h434v-120h-304v-580z" />
    <glyph glyph-name="afii10021" unicode="&#x414;" horiz-adv-x="704" 
d="M64 -124l-14 248h64l98 576h403v-576h61l-14 -248h-112v124h-374v-124h-112zM326 580l-84 -456h243v456h-159z" />
    <glyph glyph-name="afii10022" unicode="&#x415;" horiz-adv-x="575" 
d="M533 0h-443v700h433v-120h-303v-147h243v-120h-243v-193h313v-120z" />
    <glyph glyph-name="afii10024" unicode="&#x416;" horiz-adv-x="976" 
d="M169 0h-165l304 387l-284 313h160l239 -260v260h130v-260l239 260h160l-284 -313l304 -387h-165l-254 334v-334h-130v334z" />
    <glyph glyph-name="afii10025" unicode="&#x417;" horiz-adv-x="589" 
d="M56 194l121 16q24 -102 113 -102q49 0 80 32t31 85q0 59 -30 91t-80 32q-32 0 -61 -15l-50 70l132 181h-223v116h401v-44l-165 -223q18 2 28 2q80 0 127 -57t47 -151q0 -106 -67 -170.5t-170 -64.5q-97 0 -161.5 56.5t-72.5 145.5z" />
    <glyph glyph-name="afii10026" unicode="&#x418;" horiz-adv-x="704" 
d="M614 0h-130v462l-257 -462h-137v700h130v-462l257 462h137v-700z" />
    <glyph glyph-name="afii10027" unicode="&#x419;" horiz-adv-x="704" 
d="M614 0h-130v462l-257 -462h-137v700h130v-462l257 462h137v-700zM234 896h91q0 -12 7.5 -20t19.5 -8t19.5 8t7.5 20h91q0 -45 -32.5 -77t-85.5 -32t-85.5 32t-32.5 77z" />
    <glyph glyph-name="afii10028" unicode="&#x41a;" horiz-adv-x="643" 
d="M220 0h-130v700h130v-260l239 260h160l-284 -313l304 -387h-165l-254 334v-334z" />
    <glyph glyph-name="afii10029" unicode="&#x41b;" horiz-adv-x="651" 
d="M7 0v124q26 0 39 1.5t27 9t20.5 23t8.5 42.5l37 500h422v-700h-130v576h-175l-28 -386q-8 -99 -63 -144.5t-158 -45.5z" />
    <glyph glyph-name="afii10030" unicode="&#x41c;" horiz-adv-x="802" 
d="M220 0h-130v700h146l165 -437l165 437h146v-700h-130v432l-134 -368h-94l-134 368v-432z" />
    <glyph glyph-name="afii10031" unicode="&#x41d;" horiz-adv-x="720" 
d="M220 0h-130v700h130v-266h280v266h130v-700h-130v314h-280v-314z" />
    <glyph glyph-name="afii10032" unicode="&#x41e;" horiz-adv-x="756" 
d="M48 350q0 117 46.5 200t119.5 120.5t164 37.5t164 -37.5t119.5 -120.5t46.5 -200t-46.5 -200t-119.5 -120.5t-164 -37.5t-164 37.5t-119.5 120.5t-46.5 200zM180 350q0 -117 56.5 -177.5t141.5 -60.5t141.5 60.5t56.5 177.5t-56.5 177.5t-141.5 60.5t-141.5 -60.5
t-56.5 -177.5z" />
    <glyph glyph-name="afii10033" unicode="&#x41f;" horiz-adv-x="692" 
d="M220 0h-130v700h512v-700h-130v576h-252v-576z" />
    <glyph glyph-name="afii10034" unicode="&#x420;" horiz-adv-x="592" 
d="M220 0h-130v700h264q107 0 163 -58.5t56 -154.5t-56 -154.5t-163 -58.5h-134v-274zM220 580v-186h129q92 0 92 93t-92 93h-129z" />
    <glyph glyph-name="afii10035" unicode="&#x421;" horiz-adv-x="700" 
d="M48 350q0 168 96 263t235 95q115 0 190 -55.5t100 -156.5l-117 -30q-46 122 -173 122q-86 0 -142.5 -61t-56.5 -177t56.5 -177t142.5 -61q127 0 173 122l117 -30q-25 -101 -100 -156.5t-190 -55.5q-139 0 -235 95t-96 263z" />
    <glyph glyph-name="afii10036" unicode="&#x422;" horiz-adv-x="534" 
d="M202 580h-194v120h518v-120h-194v-580h-130v580z" />
    <glyph glyph-name="afii10037" unicode="&#x423;" horiz-adv-x="520" 
d="M201 212l-203 488h125l139 -337l136 337h124l-290 -708h-120z" />
    <glyph glyph-name="afii10038" unicode="&#x424;" horiz-adv-x="780" 
d="M43 350q0 115 78 196.5t198 81.5h9v72h124v-72h9q120 0 198 -81.5t78 -196.5t-78 -196.5t-198 -81.5h-9v-72h-124v72h-9q-120 0 -198 81.5t-78 196.5zM173 350q0 -72 39.5 -122t106.5 -50h9v344h-9q-67 0 -106.5 -50t-39.5 -122zM452 522v-344h9q67 0 106.5 50t39.5 122
t-39.5 122t-106.5 50h-9z" />
    <glyph glyph-name="afii10039" unicode="&#x425;" horiz-adv-x="592" 
d="M151 0h-144l218 378l-185 322h142l114 -198l114 198h142l-185 -322l218 -378h-144l-145 253z" />
    <glyph glyph-name="afii10040" unicode="&#x426;" horiz-adv-x="703" 
d="M545 0h-455v700h130v-576h252v576h130v-576h73l-18 -248h-112v124z" />
    <glyph glyph-name="afii10041" unicode="&#x427;" horiz-adv-x="672" 
d="M74 460v240h130v-240q0 -69 28 -104.5t79 -35.5t80 14.5t61 46.5v319h130v-700h-130v239q-61 -43 -164 -43q-99 0 -156.5 65t-57.5 199z" />
    <glyph glyph-name="afii10042" unicode="&#x428;" horiz-adv-x="992" 
d="M902 0h-812v700h130v-576h211v576h130v-576h211v576h130v-700z" />
    <glyph glyph-name="afii10043" unicode="&#x429;" horiz-adv-x="1003" 
d="M845 0h-755v700h130v-576h211v576h130v-576h211v576h130v-576h73l-18 -248h-112v124z" />
    <glyph glyph-name="afii10044" unicode="&#x42a;" horiz-adv-x="678" 
d="M137 580h-127v120h257v-272h131q109 0 170 -55t61 -159t-61 -159t-170 -55h-261v580zM267 308v-188h119q113 0 113 94t-113 94h-119z" />
    <glyph glyph-name="afii10045" unicode="&#x42b;" horiz-adv-x="890" 
d="M351 0h-261v700h130v-272h131q109 0 170 -55t61 -159t-61 -159t-170 -55zM220 308v-188h119q113 0 113 94t-113 94h-119zM800 0h-124v708h124v-708z" />
    <glyph glyph-name="afii10046" unicode="&#x42c;" horiz-adv-x="631" 
d="M351 0h-261v700h130v-272h131q109 0 170 -55t61 -159t-61 -159t-170 -55zM220 308v-188h119q113 0 113 94t-113 94h-119z" />
    <glyph glyph-name="afii10047" unicode="&#x42d;" horiz-adv-x="685" 
d="M31 204l117 32q53 -124 174 -124q72 0 118.5 44.5t60.5 133.5h-316v120h316q-14 89 -60.5 133.5t-118.5 44.5q-119 0 -174 -124l-117 32q33 96 110 154t181 58q140 0 227.5 -93.5t87.5 -264.5t-87.5 -264.5t-227.5 -93.5q-104 0 -181 58t-110 154z" />
    <glyph glyph-name="afii10048" unicode="&#x42e;" horiz-adv-x="1032" 
d="M220 0h-130v700h130v-290h106q17 146 108 222t220 76q91 0 164 -37.5t119.5 -120.5t46.5 -200t-46.5 -200t-119.5 -120.5t-164 -37.5q-129 0 -220 76t-108 222h-106v-290zM456 350q0 -117 56.5 -177.5t141.5 -60.5t141.5 60.5t56.5 177.5t-56.5 177.5t-141.5 60.5
t-141.5 -60.5t-56.5 -177.5z" />
    <glyph glyph-name="afii10049" unicode="&#x42f;" horiz-adv-x="653" 
d="M563 0h-130v302h-68l-188 -302h-145l194 313q-63 20 -97 69t-34 119q0 90 55.5 144.5t157.5 54.5h255v-700zM433 422v158h-126q-82 0 -82 -79t82 -79h126z" />
    <glyph glyph-name="afii10065" unicode="&#x430;" horiz-adv-x="514" 
d="M38 145q0 75 59.5 120t155.5 45h84v22q0 39 -25 56.5t-63 17.5q-67 0 -87 -58l-105 24q12 64 63.5 102t128.5 38q212 0 212 -211v-301h-102l-13 64q-59 -72 -155 -72q-67 0 -110 40.5t-43 112.5zM168 147q0 -20 13.5 -34.5t38.5 -14.5q45 0 81 29t36 75v10h-83
q-86 0 -86 -65z" />
    <glyph glyph-name="afii10066" unicode="&#x431;" horiz-adv-x="598" 
d="M43 310q0 210 68.5 300t193.5 90h36q55 0 75 47h77q0 -155 -145 -155h-39q-57 0 -95 -31.5t-41 -101.5q57 53 143 53q111 0 175 -72.5t64 -187.5q0 -114 -71 -187t-187 -73t-185 86t-69 232zM173 252q0 -65 34 -109.5t92 -44.5t92 44.5t34 109.5t-34 109.5t-92 44.5
t-92 -44.5t-34 -109.5z" />
    <glyph glyph-name="afii10067" unicode="&#x432;" horiz-adv-x="521" 
d="M305 0h-225v504h194q79 0 124.5 -34t45.5 -104q0 -26 -13.5 -51t-34.5 -40q35 -17 57.5 -50.5t22.5 -76.5q0 -74 -45.5 -111t-125.5 -37zM204 212v-106h68q40 0 59 12t19 40q0 54 -78 54h-68zM204 404v-84h63q30 0 43.5 9.5t13.5 32.5t-13.5 32.5t-43.5 9.5h-63z" />
    <glyph glyph-name="afii10068" unicode="&#x433;" horiz-adv-x="431" 
d="M204 0h-124v504h341v-106h-217v-398z" />
    <glyph glyph-name="afii10069" unicode="&#x434;" horiz-adv-x="580" 
d="M51 -114l-16 220h42l64 398h361v-398h37l-15 -220h-108v114h-258v-114h-107zM243 398l-45 -292h180v292h-135z" />
    <glyph glyph-name="afii10070" unicode="&#x435;" horiz-adv-x="556" 
d="M43 252q0 47 14 91.5t41.5 83t76 62t110.5 23.5q60 0 107 -23t74 -61t40.5 -80t13.5 -85v-51h-347q2 -46 33.5 -80t85.5 -34q76 0 122 78l100 -37q-64 -147 -229 -147q-62 0 -110.5 23.5t-76 62t-41.5 83t-14 91.5zM176 310h217q-8 42 -35 69t-73 27q-44 0 -73 -29
t-36 -67z" />
    <glyph glyph-name="afii10072" unicode="&#x436;" horiz-adv-x="790" 
d="M155 0h-152l215 272l-202 232h153l164 -198v198h124v-198l164 198h153l-202 -232l215 -272h-152l-178 238v-238h-124v238z" />
    <glyph glyph-name="afii10073" unicode="&#x437;" horiz-adv-x="444" 
d="M42 146l112 15q13 -74 73 -74q32 0 49.5 20t17.5 53t-18 54t-47 21q-26 0 -49 -13l-56 68l89 114h-145v100h309v-38l-122 -155q3 1 8 1h10q60 0 95.5 -40.5t35.5 -109.5q0 -78 -51 -124t-126 -46q-72 0 -124.5 42t-60.5 112z" />
    <glyph glyph-name="afii10074" unicode="&#x438;" horiz-adv-x="592" 
d="M215 0h-135v504h124v-311l173 311h135v-504h-124v311z" />
    <glyph glyph-name="afii10075" unicode="&#x439;" horiz-adv-x="592" 
d="M215 0h-135v504h124v-311l173 311h135v-504h-124v311zM178 700h91q0 -12 7.5 -20t19.5 -8t19.5 8t7.5 20h91q0 -45 -32.5 -77t-85.5 -32t-85.5 32t-32.5 77z" />
    <glyph glyph-name="afii10076" unicode="&#x43a;" horiz-adv-x="537" 
d="M204 0h-124v504h124v-198l164 198h153l-202 -232l215 -272h-152l-178 238v-238z" />
    <glyph glyph-name="afii10077" unicode="&#x43b;" horiz-adv-x="600" 
d="M30 0v106q45 0 65.5 16t24.5 55l33 327h367v-504h-124v398h-128l-30 -266q-4 -36 -16.5 -60.5t-29.5 -38.5t-45 -21.5t-53 -9.5t-64 -2z" />
    <glyph glyph-name="afii10078" unicode="&#x43c;" horiz-adv-x="648" 
d="M204 0h-124v504h130l114 -290l114 290h130v-504h-124v252l-77 -206h-86l-77 206v-252z" />
    <glyph glyph-name="afii10079" unicode="&#x43d;" horiz-adv-x="576" 
d="M204 0h-124v504h124v-183h168v183h124v-504h-124v215h-168v-215z" />
    <glyph glyph-name="afii10080" unicode="&#x43e;" horiz-adv-x="598" 
d="M43 252q0 114 68.5 187t187.5 73t187.5 -73t68.5 -187t-68.5 -187t-187.5 -73t-187.5 73t-68.5 187zM173 252q0 -65 34 -109.5t92 -44.5t92 44.5t34 109.5t-34 109.5t-92 44.5t-92 -44.5t-34 -109.5z" />
    <glyph glyph-name="afii10081" unicode="&#x43f;" horiz-adv-x="573" 
d="M204 0h-124v504h413v-504h-124v398h-165v-398z" />
    <glyph glyph-name="afii10082" unicode="&#x440;" horiz-adv-x="599" 
d="M204 -204h-124v708h124v-52q11 23 45 41.5t77 18.5q111 0 170.5 -70.5t59.5 -189.5t-59.5 -189.5t-170.5 -70.5q-36 0 -70 16t-52 38v-250zM193 252q0 -73 32.5 -113.5t83.5 -40.5t84 41t33 113t-33 113t-84 41t-83.5 -40.5t-32.5 -113.5z" />
    <glyph glyph-name="afii10083" unicode="&#x441;" horiz-adv-x="551" 
d="M43 252q0 112 64 186t182 74q171 0 229 -144l-111 -45q-42 83 -118 83q-57 0 -86.5 -42t-29.5 -112t29.5 -112t86.5 -42q76 0 118 83l111 -45q-58 -144 -229 -144q-118 0 -182 74t-64 186z" />
    <glyph glyph-name="afii10084" unicode="&#x442;" horiz-adv-x="456" 
d="M166 398h-135v106h394v-106h-135v-398h-124v398z" />
    <glyph glyph-name="afii10085" unicode="&#x443;" horiz-adv-x="481" 
d="M186 32l-183 472h125l117 -316l110 316h124l-260 -708h-120z" />
    <glyph glyph-name="afii10086" unicode="&#x444;" horiz-adv-x="722" 
d="M43 252q0 111 70.5 185.5t185.5 74.5v196h124v-196q115 0 185.5 -74.5t70.5 -185.5t-70.5 -185.5t-185.5 -74.5v-196h-124v196q-115 0 -185.5 74.5t-70.5 185.5zM173 252q0 -66 33 -110t88 -44h5v308h-5q-55 0 -88 -44.5t-33 -109.5zM423 406v-308h5q54 0 87.5 44.5
t33.5 109.5q0 64 -33.5 109t-87.5 45h-5z" />
    <glyph glyph-name="afii10087" unicode="&#x445;" horiz-adv-x="482" 
d="M138 0h-130l167 269l-146 235h130l82 -131l82 131h130l-146 -235l167 -269h-130l-103 164z" />
    <glyph glyph-name="afii10088" unicode="&#x446;" horiz-adv-x="571" 
d="M407 0h-327v504h124v-398h165v398h124v-398h37l-15 -220h-108v114z" />
    <glyph glyph-name="afii10089" unicode="&#x447;" horiz-adv-x="576" 
d="M70 243v261h124v-216q0 -84 72 -84q62 0 106 91v209h124v-504h-124v147q-35 -30 -68.5 -42.5t-79.5 -12.5q-71 0 -112.5 39t-41.5 112z" />
    <glyph glyph-name="afii10090" unicode="&#x448;" horiz-adv-x="830" 
d="M750 0h-670v504h124v-398h149v398h124v-398h149v398h124v-504z" />
    <glyph glyph-name="afii10091" unicode="&#x449;" horiz-adv-x="828" 
d="M664 0h-584v504h124v-398h149v398h124v-398h149v398h124v-398h37l-15 -220h-108v114z" />
    <glyph glyph-name="afii10092" unicode="&#x44a;" horiz-adv-x="550" 
d="M115 398h-87v106h211v-192h92q81 0 127.5 -42t46.5 -114t-46.5 -114t-127.5 -42h-216v398zM239 206v-100h70q70 0 70 50t-70 50h-70z" />
    <glyph glyph-name="afii10093" unicode="&#x44b;" horiz-adv-x="779" 
d="M296 0h-216v504h124v-192h92q81 0 127.5 -42t46.5 -114t-46.5 -114t-127.5 -42zM204 206v-100h70q70 0 70 50t-70 50h-70zM699 0h-124v504h124v-504z" />
    <glyph glyph-name="afii10094" unicode="&#x44c;" horiz-adv-x="515" 
d="M296 0h-216v504h124v-192h92q81 0 127.5 -42t46.5 -114t-46.5 -114t-127.5 -42zM204 206v-100h70q70 0 70 50t-70 50h-70z" />
    <glyph glyph-name="afii10095" unicode="&#x44d;" horiz-adv-x="553" 
d="M33 123l102 52q43 -77 123 -77q45 0 76.5 29t39.5 76h-216v98h216q-8 47 -39.5 76t-76.5 29q-80 0 -123 -77l-102 52q75 131 221 131q121 0 188.5 -74t67.5 -186t-67.5 -186t-188.5 -74q-146 0 -221 131z" />
    <glyph glyph-name="afii10096" unicode="&#x44e;" horiz-adv-x="823" 
d="M204 0h-124v504h124v-199h68q14 92 81.5 149.5t170.5 57.5q119 0 187.5 -73t68.5 -187t-68.5 -187t-187.5 -73q-103 0 -170 57.5t-82 149.5h-68v-199zM398 252q0 -65 34 -109.5t92 -44.5t92 44.5t34 109.5t-34 109.5t-92 44.5t-92 -44.5t-34 -109.5z" />
    <glyph glyph-name="afii10097" unicode="&#x44f;" horiz-adv-x="490" 
d="M150 0h-132l132 224q-46 15 -72.5 50.5t-26.5 86.5q0 63 47 103t120 40h192v-504h-124v218h-14zM171 361q0 -37 40 -37h75v74h-75q-40 0 -40 -37z" />
    <glyph glyph-name="uni0450" unicode="&#x450;" horiz-adv-x="556" 
d="M43 252q0 47 14 91.5t41.5 83t76 62t110.5 23.5q60 0 107 -23t74 -61t40.5 -80t13.5 -85v-51h-347q2 -46 33.5 -80t85.5 -34q76 0 122 78l100 -37q-64 -147 -229 -147q-62 0 -110.5 23.5t-76 62t-41.5 83t-14 91.5zM176 310h217q-8 42 -35 69t-73 27q-44 0 -73 -29
t-36 -67zM257 560l-137 148h168l64 -148h-95z" />
    <glyph glyph-name="afii10071" unicode="&#x451;" horiz-adv-x="556" 
d="M43 252q0 47 14 91.5t41.5 83t76 62t110.5 23.5q60 0 107 -23t74 -61t40.5 -80t13.5 -85v-51h-347q2 -46 33.5 -80t85.5 -34q76 0 122 78l100 -37q-64 -147 -229 -147q-62 0 -110.5 23.5t-76 62t-41.5 83t-14 91.5zM176 310h217q-8 42 -35 69t-73 27q-44 0 -73 -29
t-36 -67zM111 651q0 31 19.5 51t51.5 20t51.5 -20t19.5 -51t-19.5 -51t-51.5 -20t-51.5 20t-19.5 51zM318 651q0 31 19.5 51t51.5 20t51.5 -20t19.5 -51t-19.5 -51t-51.5 -20t-51.5 20t-19.5 51z" />
    <glyph glyph-name="afii10099" unicode="&#x452;" horiz-adv-x="593" 
d="M80 559h-72v92h72v57h124v-57h111v-92h-111v-136q56 89 160 89q74 0 115.5 -38t41.5 -114v-302q0 -118 -51.5 -182t-159.5 -88l-30 109q60 16 88.5 47.5t28.5 98.5v273q0 90 -75 90q-48 0 -83 -49t-35 -144v-213h-124v559z" />
    <glyph glyph-name="afii10100" unicode="&#x453;" horiz-adv-x="431" 
d="M204 0h-124v504h341v-106h-217v-398zM260 560h-95l64 148h168z" />
    <glyph glyph-name="afii10101" unicode="&#x454;" horiz-adv-x="553" 
d="M43 252q0 112 67.5 186t188.5 74q146 0 221 -131l-102 -52q-43 77 -123 77q-45 0 -76.5 -29t-39.5 -76h216v-98h-216q8 -47 39.5 -76t76.5 -29q80 0 123 77l102 -52q-75 -131 -221 -131q-121 0 -188.5 74t-67.5 186z" />
    <glyph glyph-name="afii10102" unicode="&#x455;" horiz-adv-x="456" 
d="M36 128l99 53q32 -83 101 -83q62 0 62 54q0 15 -12.5 26.5t-26.5 17.5t-42.5 16t-44.5 17q-49 21 -75.5 51.5t-26.5 84.5q0 60 45 103.5t116 43.5q50 0 92 -22.5t66 -59.5l-74 -68q-33 44 -84 44q-19 0 -32.5 -11t-13.5 -31q0 -32 48 -49q5 -2 31 -10.5t36 -12.5
t32.5 -14t33.5 -20t24.5 -24.5t19 -33t5.5 -40.5q0 -70 -49.5 -119t-129.5 -49q-73 0 -126 41.5t-74 94.5z" />
    <glyph glyph-name="afii10103" unicode="&#x456;" horiz-adv-x="260" 
d="M50 649q0 34 22.5 57t57.5 23t57.5 -23t22.5 -57t-22.5 -57t-57.5 -23t-57.5 23t-22.5 57zM192 0h-124v504h124v-504z" />
    <glyph glyph-name="afii10104" unicode="&#x457;" horiz-adv-x="260" 
d="M192 0h-124v504h124v-504zM-43 651q0 31 19.5 51t51.5 20t51.5 -20t19.5 -51t-19.5 -51t-51.5 -20t-51.5 20t-19.5 51zM164 651q0 31 19.5 51t51.5 20t51.5 -20t19.5 -51t-19.5 -51t-51.5 -20t-51.5 20t-19.5 51z" />
    <glyph glyph-name="afii10105" unicode="&#x458;" horiz-adv-x="260" 
d="M-19 -212l-30 109q60 16 88.5 47.5t28.5 98.5v461h124v-446q0 -118 -51.5 -182t-159.5 -88zM50 649q0 34 22.5 57t57.5 23t57.5 -23t22.5 -57t-22.5 -57t-57.5 -23t-57.5 23t-22.5 57z" />
    <glyph glyph-name="afii10106" unicode="&#x459;" horiz-adv-x="795" 
d="M30 0v106q45 0 65.5 16t24.5 55l33 327h331v-192h92q81 0 127.5 -42t46.5 -114t-46.5 -114t-127.5 -42h-216v398h-92l-30 -266q-4 -36 -16.5 -60.5t-29.5 -38.5t-45 -21.5t-53 -9.5t-64 -2zM484 206v-100h70q70 0 70 50t-70 50h-70z" />
    <glyph glyph-name="afii10107" unicode="&#x45a;" horiz-adv-x="817" 
d="M204 0h-124v504h124v-192h178v192h124v-192h92q81 0 127.5 -42t46.5 -114t-46.5 -114t-127.5 -42h-216v206h-178v-206zM506 206v-100h70q70 0 70 50t-70 50h-70z" />
    <glyph glyph-name="afii10108" unicode="&#x45b;" horiz-adv-x="593" 
d="M80 559h-72v92h72v57h124v-57h111v-92h-111v-136q56 89 160 89q74 0 115.5 -38t41.5 -114v-360h-124v316q0 90 -75 90q-48 0 -83 -49t-35 -144v-213h-124v559z" />
    <glyph glyph-name="afii10109" unicode="&#x45c;" horiz-adv-x="537" 
d="M204 0h-124v504h124v-198l164 198h153l-202 -232l215 -272h-152l-178 238v-238zM304 560h-95l64 148h168z" />
    <glyph glyph-name="uni045D" unicode="&#x45d;" horiz-adv-x="592" 
d="M215 0h-135v504h124v-311l173 311h135v-504h-124v311zM272 560l-137 148h168l64 -148h-95z" />
    <glyph glyph-name="afii10110" unicode="&#x45e;" horiz-adv-x="481" 
d="M186 32l-183 472h125l117 -316l110 316h124l-260 -708h-120zM127 700h91q0 -12 7.5 -20t19.5 -8t19.5 8t7.5 20h91q0 -45 -32.5 -77t-85.5 -32t-85.5 32t-32.5 77z" />
    <glyph glyph-name="afii10193" unicode="&#x45f;" horiz-adv-x="574" 
d="M225 0h-145v504h124v-398h166v398h124v-504h-145v-114h-124v114z" />
    <glyph glyph-name="uni2000" unicode="&#x2000;" horiz-adv-x="552" 
 />
    <glyph glyph-name="uni2001" unicode="&#x2001;" horiz-adv-x="1104" 
 />
    <glyph glyph-name="uni2002" unicode="&#x2002;" horiz-adv-x="552" 
 />
    <glyph glyph-name="uni2003" unicode="&#x2003;" horiz-adv-x="1104" 
 />
    <glyph glyph-name="uni2004" unicode="&#x2004;" horiz-adv-x="368" 
 />
    <glyph glyph-name="uni2005" unicode="&#x2005;" horiz-adv-x="276" 
 />
    <glyph glyph-name="uni2006" unicode="&#x2006;" horiz-adv-x="184" 
 />
    <glyph glyph-name="uni2007" unicode="&#x2007;" horiz-adv-x="184" 
 />
    <glyph glyph-name="uni2008" unicode="&#x2008;" horiz-adv-x="138" 
 />
    <glyph glyph-name="uni2009" unicode="&#x2009;" horiz-adv-x="220" 
 />
    <glyph glyph-name="uni200A" unicode="&#x200a;" horiz-adv-x="61" 
 />
    <glyph glyph-name="uni2010" unicode="&#x2010;" horiz-adv-x="503" 
d="M438 263h-373v108h373v-108z" />
    <glyph glyph-name="uni2011" unicode="&#x2011;" horiz-adv-x="503" 
d="M438 263h-373v108h373v-108z" />
    <glyph glyph-name="figuredash" unicode="&#x2012;" horiz-adv-x="503" 
d="M438 263h-373v108h373v-108z" />
    <glyph glyph-name="endash" unicode="&#x2013;" horiz-adv-x="585" 
d="M520 263h-455v108h455v-108z" />
    <glyph glyph-name="emdash" unicode="&#x2014;" horiz-adv-x="771" 
d="M706 263h-641v108h641v-108z" />
    <glyph glyph-name="quoteleft" unicode="&#x2018;" horiz-adv-x="334" 
d="M199 464l-149 244h163l78 -244h-92z" />
    <glyph glyph-name="quoteright" unicode="&#x2019;" horiz-adv-x="334" 
d="M142 464h-92l78 244h163z" />
    <glyph glyph-name="quotesinglbase" unicode="&#x201a;" horiz-adv-x="334" 
d="M135 -14h-92l78 244h163z" />
    <glyph glyph-name="quotedblleft" unicode="&#x201c;" horiz-adv-x="554" 
d="M199 464l-149 244h163l78 -244h-92zM419 464l-149 244h163l78 -244h-92z" />
    <glyph glyph-name="quotedblright" unicode="&#x201d;" horiz-adv-x="554" 
d="M135 464h-92l78 244h163zM355 464h-92l78 244h163z" />
    <glyph glyph-name="quotedblbase" unicode="&#x201e;" horiz-adv-x="554" 
d="M135 -14h-92l78 244h163zM355 -14h-92l78 244h163z" />
    <glyph glyph-name="dagger" unicode="&#x2020;" horiz-adv-x="524" 
d="M201 396h-149v108h149v246h122v-246h149v-108h-149v-446h-122v446z" />
    <glyph glyph-name="daggerdbl" unicode="&#x2021;" horiz-adv-x="524" 
d="M201 196h-149v108h149v92h-149v108h149v246h122v-246h149v-108h-149v-92h149v-108h-149v-246h-122v246z" />
    <glyph glyph-name="bullet" unicode="&#x2022;" horiz-adv-x="392" 
d="M78 330q0 48 35 83t83 35t83 -35t35 -83t-35 -83t-83 -35t-83 35t-35 83z" />
    <glyph glyph-name="ellipsis" unicode="&#x2026;" horiz-adv-x="972" 
d="M80 78q0 36 24 60t60 24t60 -24t24 -60t-24 -60t-60 -24t-60 24t-24 60zM402 78q0 36 24 60t60 24t60 -24t24 -60t-24 -60t-60 -24t-60 24t-24 60zM724 78q0 36 24 60t60 24t60 -24t24 -60t-24 -60t-60 -24t-60 24t-24 60z" />
    <glyph glyph-name="uni202F" unicode="&#x202f;" horiz-adv-x="220" 
 />
    <glyph glyph-name="perthousand" unicode="&#x2030;" horiz-adv-x="1237" 
d="M52 548q0 68 46.5 114t117.5 46t117.5 -46t46.5 -114t-46.5 -114t-117.5 -46t-117.5 46t-46.5 114zM192 -38l-72 58l538 718l72 -57zM154 548q0 -28 16.5 -46.5t45.5 -18.5t45.5 18.5t16.5 46.5t-16.5 46.5t-45.5 18.5t-45.5 -18.5t-16.5 -46.5zM458 152q0 68 46.5 114
t117.5 46t117.5 -46t46.5 -114t-46.5 -114t-117.5 -46t-117.5 46t-46.5 114zM560 152q0 -28 16.5 -46.5t45.5 -18.5t45.5 18.5t16.5 46.5t-16.5 46.5t-45.5 18.5t-45.5 -18.5t-16.5 -46.5zM857 152q0 68 46.5 114t117.5 46t117.5 -46t46.5 -114t-46.5 -114t-117.5 -46
t-117.5 46t-46.5 114zM959 152q0 -28 16.5 -46.5t45.5 -18.5t45.5 18.5t16.5 46.5t-16.5 46.5t-45.5 18.5t-45.5 -18.5t-16.5 -46.5z" />
    <glyph glyph-name="guilsinglleft" unicode="&#x2039;" horiz-adv-x="403" 
d="M353 51l-309 218v82l309 218v-128l-185 -131l185 -131v-128z" />
    <glyph glyph-name="guilsinglright" unicode="&#x203a;" horiz-adv-x="403" 
d="M359 269l-309 -218v128l185 131l-185 131v128l309 -218v-82z" />
    <glyph glyph-name="fraction" unicode="&#x2044;" horiz-adv-x="616" 
d="M75 -38l-72 58l538 718l72 -57z" />
    <glyph glyph-name="uni205F" unicode="&#x205f;" horiz-adv-x="276" 
 />
    <glyph glyph-name="uni2070" unicode="&#x2070;" horiz-adv-x="414" 
d="M41 500q0 98 44 151t122 53t122 -53t44 -151q0 -97 -44 -150.5t-122 -53.5t-122 53.5t-44 150.5zM133 500q0 -62 21 -91.5t53 -29.5t53 29.5t21 91.5t-21 91.5t-53 29.5t-53 -29.5t-21 -91.5z" />
    <glyph glyph-name="uni2074" unicode="&#x2074;" horiz-adv-x="351" 
d="M195 365h-167v45l161 290h95v-252h43v-83h-43v-65h-89v65zM195 570l-63 -122h63v122z" />
    <glyph glyph-name="uni2075" unicode="&#x2075;" horiz-adv-x="355" 
d="M42 414l87 10q11 -45 51 -45q54 0 54 59q0 55 -54 55q-32 0 -58 -23l-71 15l21 215h230v-83h-155l-10 -67q27 15 63 15q61 0 94 -35.5t33 -91.5q0 -66 -40 -104t-107 -38q-54 0 -93 33.5t-45 84.5z" />
    <glyph glyph-name="uni2076" unicode="&#x2076;" horiz-adv-x="374" 
d="M49 428q0 44 18 75l113 201h100l-89 -148q7 3 18 3q51 0 86 -33t35 -98q0 -59 -39 -95.5t-102 -36.5t-101.5 36t-38.5 96zM142 428q0 -22 13.5 -35.5t33.5 -13.5t33.5 13.5t13.5 35.5q0 23 -13 35.5t-34 12.5t-34 -12.5t-13 -35.5z" />
    <glyph glyph-name="uni2077" unicode="&#x2077;" horiz-adv-x="316" 
d="M188 617h-148v83h261v-35l-150 -365h-95z" />
    <glyph glyph-name="uni2078" unicode="&#x2078;" horiz-adv-x="362" 
d="M43 426q0 63 58 90q-45 26 -45 80q0 44 34 76t91 32t91 -32t34 -76q0 -54 -45 -80q58 -27 58 -90q0 -60 -37.5 -95t-100.5 -35t-100.5 35t-37.5 95zM136 426q0 -21 12 -34t33 -13t33 13t12 34t-12 34t-33 13t-33 -13t-12 -34zM140 593q0 -44 41 -44t41 44t-41 44t-41 -44
z" />
    <glyph glyph-name="uni2079" unicode="&#x2079;" horiz-adv-x="374" 
d="M44 572q0 59 39 95.5t102 36.5t101.5 -36t38.5 -96q0 -44 -18 -75l-113 -201h-100l89 148q-7 -3 -18 -3q-51 0 -86 33t-35 98zM138 572q0 -23 13 -35.5t34 -12.5t34 12.5t13 35.5q0 22 -13.5 35.5t-33.5 13.5t-33.5 -13.5t-13.5 -35.5z" />
    <glyph glyph-name="uni2080" unicode="&#x2080;" horiz-adv-x="414" 
d="M41 -3q0 98 44 151t122 53t122 -53t44 -151q0 -97 -44 -150.5t-122 -53.5t-122 53.5t-44 150.5zM133 -3q0 -62 21 -91.5t53 -29.5t53 29.5t21 91.5t-21 91.5t-53 29.5t-53 -29.5t-21 -91.5z" />
    <glyph glyph-name="uni2081" unicode="&#x2081;" horiz-adv-x="306" 
d="M137 75l-85 -38v95l137 65h37v-400h-89v278z" />
    <glyph glyph-name="uni2082" unicode="&#x2082;" horiz-adv-x="379" 
d="M324 -203h-271v35l145 177q27 32 27 68q0 41 -38 41q-41 0 -51 -53l-80 23q6 51 42.5 82t88.5 31q59 0 95 -33t36 -89q0 -52 -40 -99l-82 -100h128v-83z" />
    <glyph glyph-name="uni2083" unicode="&#x2083;" horiz-adv-x="388" 
d="M53 -81l80 10q5 -26 21 -39.5t37 -13.5q49 0 49 59q0 27 -13 40t-35 13q-18 0 -37 -10l-40 50l66 86h-110v83h237v-35l-89 -114q49 0 81.5 -34t32.5 -82q0 -65 -35 -102t-105 -37q-60 0 -99 35.5t-41 90.5z" />
    <glyph glyph-name="uni2084" unicode="&#x2084;" horiz-adv-x="351" 
d="M195 -138h-167v45l161 290h95v-252h43v-83h-43v-65h-89v65zM195 67l-63 -122h63v122z" />
    <glyph glyph-name="uni2085" unicode="&#x2085;" horiz-adv-x="355" 
d="M42 -89l87 10q11 -45 51 -45q54 0 54 59q0 55 -54 55q-32 0 -58 -23l-71 15l21 215h230v-83h-155l-10 -67q27 15 63 15q61 0 94 -35.5t33 -91.5q0 -66 -40 -104t-107 -38q-54 0 -93 33.5t-45 84.5z" />
    <glyph glyph-name="uni2086" unicode="&#x2086;" horiz-adv-x="374" 
d="M49 -75q0 43 18 75l113 201h100l-89 -148q7 3 18 3q51 0 86 -33t35 -98q0 -59 -39 -95.5t-102 -36.5t-101.5 36t-38.5 96zM142 -75q0 -22 13.5 -35.5t33.5 -13.5t33.5 13.5t13.5 35.5q0 23 -13 35.5t-34 12.5t-34 -12.5t-13 -35.5z" />
    <glyph glyph-name="uni2087" unicode="&#x2087;" horiz-adv-x="316" 
d="M188 114h-148v83h261v-35l-150 -365h-95z" />
    <glyph glyph-name="uni2088" unicode="&#x2088;" horiz-adv-x="362" 
d="M43 -77q0 63 58 90q-45 25 -45 80q0 44 34 76t91 32t91 -32t34 -76q0 -55 -45 -80q58 -27 58 -90q0 -60 -37.5 -95t-100.5 -35t-100.5 35t-37.5 95zM136 -77q0 -21 12 -34t33 -13t33 13t12 34t-12 34t-33 13t-33 -13t-12 -34zM140 90q0 -44 41 -44t41 44t-41 44t-41 -44z
" />
    <glyph glyph-name="uni2089" unicode="&#x2089;" horiz-adv-x="374" 
d="M44 69q0 59 39 95.5t102 36.5t101.5 -36t38.5 -96q0 -44 -18 -75l-113 -201h-100l89 148q-7 -3 -18 -3q-51 0 -86 33t-35 98zM138 69q0 -23 13 -35.5t34 -12.5t34 12.5t13 35.5q0 22 -13.5 35.5t-33.5 13.5t-33.5 -13.5t-13.5 -35.5z" />
    <glyph glyph-name="Euro" unicode="&#x20ac;" horiz-adv-x="644" 
d="M125 216h-100l50 108h39v52h-89l50 108h50q26 110 96.5 167t170.5 57q154 0 216 -117l-108 -64q-35 65 -108 65q-108 0 -140 -108h210l-50 -108h-174v-52h224l-50 -108h-160q31 -108 140 -108q73 0 108 65l108 -64q-62 -117 -216 -117q-100 0 -170.5 57t-96.5 167z" />
    <glyph glyph-name="trademark" unicode="&#x2122;" horiz-adv-x="852" 
d="M127 610h-104v90h305v-90h-104v-310h-97v310zM485 300h-97v400h97l97 -233l97 233h97v-400h-97v193l-65 -156h-64l-65 156v-193z" />
    <glyph glyph-name="uni2126" unicode="&#x2126;" horiz-adv-x="696" 
d="M314 0h-245v108h130q-29 45 -54 101q-54 122 -54 231q0 119 69 193.5t188 74.5t188 -74.5t69 -193.5q0 -109 -54 -231q-25 -56 -54 -101h130v-108h-245v40q24 53 49 125q50 152 50 275q0 75 -34.5 117.5t-98.5 42.5t-98.5 -42.5t-34.5 -117.5q0 -126 49 -275
q25 -75 50 -125v-40z" />
    <glyph glyph-name="onethird" unicode="&#x2153;" horiz-adv-x="867" 
d="M189 -38l-72 58l538 718l72 -57zM151 578l-85 -38v95l137 65h37v-400h-89v278zM556 123l80 10q5 -26 21 -39.5t37 -13.5q49 0 49 59q0 27 -13.5 40t-34.5 13q-18 0 -37 -10l-40 50l66 86h-110v83h237v-35l-89 -114q49 0 81.5 -34t32.5 -82q0 -65 -35 -102t-105 -37
q-60 0 -99 35.5t-41 90.5z" />
    <glyph glyph-name="twothirds" unicode="&#x2154;" horiz-adv-x="900" 
d="M221 -38l-72 58l538 718l72 -57zM307 300h-271v35l145 177q27 32 27 68q0 41 -38 41q-41 0 -51 -53l-80 23q6 51 42.5 82t88.5 31q59 0 95 -33t36 -89q0 -52 -40 -99l-82 -100h128v-83zM584 123l80 10q5 -26 21 -39.5t37 -13.5q49 0 49 59q0 27 -13.5 40t-34.5 13
q-18 0 -37 -10l-40 50l66 86h-110v83h237v-35l-89 -114q49 0 81.5 -34t32.5 -82q0 -65 -35 -102t-105 -37q-60 0 -99 35.5t-41 90.5z" />
    <glyph glyph-name="oneeighth" unicode="&#x215b;" horiz-adv-x="865" 
d="M190 -38l-72 58l538 718l72 -57zM151 578l-85 -38v95l137 65h37v-400h-89v278zM540 127q0 63 58 90q-45 25 -45 80q0 44 34 76t91 32t91 -32t34 -76q0 -55 -45 -80q58 -27 58 -90q0 -60 -37.5 -95t-100.5 -35t-100.5 35t-37.5 95zM633 127q0 -21 12 -34t33 -13t33 13
t12 34t-12 34t-33 13t-33 -13t-12 -34zM637 294q0 -44 41 -44t41 44t-41 44t-41 -44z" />
    <glyph glyph-name="threeeighths" unicode="&#x215c;" horiz-adv-x="882" 
d="M217 -38l-72 58l538 718l72 -57zM53 422l80 10q5 -26 21 -39.5t37 -13.5q49 0 49 59q0 26 -13 39.5t-35 13.5q-18 0 -37 -10l-40 50l66 86h-110v83h237v-35l-89 -114q49 0 81.5 -34t32.5 -82q0 -65 -35 -102t-105 -37q-60 0 -99 35.5t-41 90.5zM567 127q0 63 58 90
q-45 25 -45 80q0 44 34 76t91 32t91 -32t34 -76q0 -55 -45 -80q58 -27 58 -90q0 -60 -37.5 -95t-100.5 -35t-100.5 35t-37.5 95zM660 127q0 -21 12 -34t33 -13t33 13t12 34t-12 34t-33 13t-33 -13t-12 -34zM664 294q0 -44 41 -44t41 44t-41 44t-41 -44z" />
    <glyph glyph-name="fiveeighths" unicode="&#x215d;" horiz-adv-x="886" 
d="M217 -38l-72 58l538 718l72 -57zM40 414l87 10q11 -45 51 -45q54 0 54 59q0 55 -54 55q-32 0 -58 -23l-71 15l21 215h230v-83h-155l-10 -67q27 15 63 15q61 0 94 -35.5t33 -91.5q0 -66 -40 -104t-107 -38q-54 0 -93 33.5t-45 84.5zM567 127q0 63 58 90q-45 25 -45 80
q0 44 34 76t91 32t91 -32t34 -76q0 -55 -45 -80q58 -27 58 -90q0 -60 -37.5 -95t-100.5 -35t-100.5 35t-37.5 95zM660 127q0 -21 12 -34t33 -13t33 13t12 34t-12 34t-33 13t-33 -13t-12 -34zM664 294q0 -44 41 -44t41 44t-41 44t-41 -44z" />
    <glyph glyph-name="seveneighths" unicode="&#x215e;" horiz-adv-x="819" 
d="M152 -38l-72 58l538 718l72 -57zM198 617h-148v83h261v-35l-150 -365h-95zM503 127q0 63 58 90q-45 25 -45 80q0 44 34 76t91 32t91 -32t34 -76q0 -55 -45 -80q58 -27 58 -90q0 -60 -37.5 -95t-100.5 -35t-100.5 35t-37.5 95zM596 127q0 -21 12 -34t33 -13t33 13t12 34
t-12 34t-33 13t-33 -13t-12 -34zM600 294q0 -44 41 -44t41 44t-41 44t-41 -44z" />
    <glyph glyph-name="partialdiff" unicode="&#x2202;" horiz-adv-x="630" 
d="M44 209q0 132 88 217.5t223 85.5q50 0 87 -22q-9 58 -35.5 85t-76.5 27q-79 0 -115 -74l-113 35q18 62 80.5 103.5t135.5 41.5q133 0 194 -85t61 -255q0 -79 -16.5 -144t-51.5 -118.5t-97 -83.5t-146 -30q-95 0 -156.5 60t-61.5 157zM181 217q0 -51 25 -85t76 -34
q70 0 110.5 55t40.5 134q0 60 -21 89.5t-68 29.5q-69 0 -116 -58.5t-47 -130.5z" />
    <glyph glyph-name="uni2206" unicode="&#x2206;" horiz-adv-x="696" 
d="M647 0h-598v32l248 668h102l248 -668v-32zM348 548l-153 -440h306z" />
    <glyph glyph-name="product" unicode="&#x220f;" horiz-adv-x="585" 
d="M212 0h-124v700h409v-700h-124v592h-161v-592z" />
    <glyph glyph-name="summation" unicode="&#x2211;" horiz-adv-x="553" 
d="M493 0h-441v55l186 295l-186 295v55h441v-108h-272l141 -228v-28l-141 -228h272v-108z" />
    <glyph glyph-name="minus" unicode="&#x2212;" horiz-adv-x="594" 
d="M536 263h-476v108h476v-108z" />
    <glyph glyph-name="radical" unicode="&#x221a;" horiz-adv-x="601" 
d="M168 277h-116v112h184l71 -226l155 545h120l-220 -708h-102z" />
    <glyph glyph-name="infinity" unicode="&#x221e;" horiz-adv-x="884" 
d="M51 359q0 87 50.5 139t142.5 52q56 0 110 -23.5t88 -71.5q34 48 88 71.5t110 23.5q92 0 142.5 -52t50.5 -139t-50.5 -139t-142.5 -52q-56 0 -110 23t-88 72q-34 -49 -88 -72t-110 -23q-92 0 -142.5 52t-50.5 139zM171 359q0 -43 24.5 -65t65.5 -22q69 0 116 87
q-47 87 -116 87q-41 0 -65.5 -22t-24.5 -65zM507 359q47 -87 116 -87q41 0 65.5 22t24.5 65t-24.5 65t-65.5 22q-69 0 -116 -87z" />
    <glyph glyph-name="integral" unicode="&#x222b;" horiz-adv-x="483" 
d="M-75 -192l46 100q30 -14 57 -14q57 0 70 63l112 573q35 178 204 178q62 0 94 -20l-46 -100q-30 14 -57 14q-57 0 -70 -63l-112 -573q-35 -178 -201 -178q-65 0 -97 20z" />
    <glyph glyph-name="approxequal" unicode="&#x2248;" horiz-adv-x="629" 
d="M128 145l-64 69q19 45 61 78t90 33q45 0 106 -29.5t94 -29.5q49 0 91 51l64 -69q-19 -45 -61 -78t-90 -33q-45 0 -106 29.5t-94 29.5q-49 0 -91 -51zM125 351l-64 69q19 45 61 78t90 33q44 0 106 -29.5t94 -29.5q49 0 91 51l64 -69q-19 -45 -61 -78t-90 -33
q-44 0 -105.5 29.5t-94.5 29.5q-49 0 -91 -51z" />
    <glyph glyph-name="notequal" unicode="&#x2260;" horiz-adv-x="577" 
d="M145 166h-75v108h136l41 72h-177v108h238l59 103l94 -52l-29 -51h75v-108h-136l-41 -72h177v-108h-238l-59 -103l-94 52z" />
    <glyph glyph-name="lessequal" unicode="&#x2264;" horiz-adv-x="575" 
d="M525 0h-476v108h476v-108zM482 140l-391 204v116l391 204v-131l-252 -131l252 -131v-131z" />
    <glyph glyph-name="greaterequal" unicode="&#x2265;" horiz-adv-x="575" 
d="M526 0h-476v108h476v-108zM484 344l-391 -204v131l252 131l-252 131v131l391 -204v-116z" />
    <glyph glyph-name="lozenge" unicode="&#x25ca;" horiz-adv-x="606" 
d="M243 0l-182 350l182 350h120l182 -350l-182 -350h-120zM303 594l-118 -244l118 -244l118 244z" />
    <glyph glyph-name="uniE000" unicode="&#xe000;" horiz-adv-x="505" 
d="M0 0v505h505v-505h-505z" />
    <glyph glyph-name="uniF8FF" unicode="&#xf8ff;" horiz-adv-x="772" 
d="M90 22v595q0 18 16 22l270 78q8 2 10 2t10 -2l270 -78q16 -4 16 -22v-595q0 -9 -6.5 -15.5t-15.5 -6.5q-4 0 -7 1l-267 77l-267 -77q-3 -1 -7 -1q-9 0 -15.5 6.5t-6.5 15.5zM133 463v-412l231 67v204q-74 6 -134.5 43t-96.5 98zM364 669l-230 -67q6 -93 71.5 -160.5
t158.5 -75.5v303zM408 322v-204l231 -67v412q-37 -61 -97.5 -98t-133.5 -43zM408 669v-303q93 8 158.5 75.5t71.5 160.5z" />
    <glyph glyph-name="No" horiz-adv-x="1270" 
d="M220 0h-130v700h137l257 -462v462h130v-700h-137l-257 462v-462zM744 0v108h455v-108h-455zM715 448q0 114 68.5 187t187.5 73t187.5 -73t68.5 -187t-68.5 -187t-187.5 -73t-187.5 73t-68.5 187zM845 448q0 -65 34 -109.5t92 -44.5t92 44.5t34 109.5t-34 109.5t-92 44.5
t-92 -44.5t-34 -109.5z" />
    <glyph glyph-name="zero.tn" horiz-adv-x="572" 
d="M28 350q0 169 67 263.5t191 94.5t191 -94.5t67 -263.5t-67 -263.5t-191 -94.5t-191 94.5t-67 263.5zM152 350q0 -242 134 -242t134 242t-134 242t-134 -242z" />
    <glyph glyph-name="one.tn" horiz-adv-x="572" 
d="M246 524l-134 -80v136l205 120h55v-700h-126v524z" />
    <glyph glyph-name="two.tn" horiz-adv-x="572" 
d="M507 0h-445v50l250 323q54 67 54 127q0 43 -22 67.5t-64 24.5q-79 0 -91 -92l-116 22q6 81 64 133.5t146 52.5q98 0 153.5 -56t55.5 -147q0 -88 -60 -166l-171 -223h246v-116z" />
    <glyph glyph-name="three.tn" horiz-adv-x="572" 
d="M54 194l121 16q24 -102 113 -102q49 0 80 32t31 85q0 59 -30 91t-80 32q-32 0 -61 -15l-50 70l132 181h-223v116h401v-44l-165 -223q18 2 28 2q80 0 127 -57t47 -151q0 -106 -67 -170.5t-170 -64.5q-97 0 -161.5 56.5t-72.5 145.5z" />
    <glyph glyph-name="four.tn" horiz-adv-x="572" 
d="M334 130h-301v64l295 506h132v-454h78v-116h-78v-130h-126v130zM334 513l-148 -267h148v267z" />
    <glyph glyph-name="five.tn" horiz-adv-x="572" 
d="M61 183l119 22q20 -97 105 -97q51 0 77.5 32t26.5 92q0 121 -110 121q-68 0 -124 -63l-79 16l39 394h360v-116h-257l-16 -146q44 26 99 26q106 0 160 -62.5t54 -169.5q0 -106 -63 -173t-167 -67q-90 0 -153 52.5t-71 138.5z" />
    <glyph glyph-name="six.tn" horiz-adv-x="572" 
d="M56 220q0 64 34 123l204 365h140l-152 -260h16q97 0 161.5 -63.5t64.5 -164.5q0 -98 -67 -163t-167 -65t-167 65t-67 163zM182 220q0 -50 31.5 -81t76.5 -31q46 0 77 31t31 81q0 52 -30.5 82t-77.5 30t-77.5 -30t-30.5 -82z" />
    <glyph glyph-name="seven.tn" horiz-adv-x="572" 
d="M347 584h-275v116h424v-52l-264 -648h-124z" />
    <glyph glyph-name="eight.tn" horiz-adv-x="572" 
d="M58 209q0 116 92 168q-65 50 -65 140q0 80 56.5 135.5t144.5 55.5t144.5 -55.5t56.5 -135.5q0 -89 -66 -140q93 -52 93 -168q0 -99 -66.5 -158t-161.5 -59t-161.5 59t-66.5 158zM184 209q0 -47 29 -74t73 -27t73 27t29 74t-29 74t-73 27t-73 -27t-29 -74zM202 515
q0 -40 23 -64.5t61 -24.5t61 24.5t23 64.5q0 39 -23 63t-61 24t-61 -24t-23 -63z" />
    <glyph glyph-name="nine.tn" horiz-adv-x="572" 
d="M48 480q0 98 67 163t167 65t167 -65t67 -163q0 -64 -34 -123l-204 -365h-140l152 260h-16q-97 0 -161.5 63.5t-64.5 164.5zM174 480q0 -52 30.5 -82t77.5 -30t77.5 30t30.5 82q0 50 -31.5 81t-76.5 31q-46 0 -77 -31t-31 -81z" />
    <glyph glyph-name="quotedblleft.alt" horiz-adv-x="498" 
d="M53 490q0 122 152 218l28 -36q-36 -31 -54 -55.5t-20 -56.5q58 -22 58 -76q0 -35 -23 -57t-60 -22q-36 0 -58.5 24.5t-22.5 60.5zM253 490q0 122 152 218l28 -36q-36 -31 -54 -55.5t-20 -56.5q58 -22 58 -76q0 -35 -23 -57t-60 -22q-36 0 -58.5 24.5t-22.5 60.5z" />
    <glyph glyph-name="quotedblright.alt" horiz-adv-x="498" 
d="M93 405l-28 36q36 31 54 55.5t20 56.5q-58 22 -58 76q0 35 23 57t60 22q36 0 58.5 -24.5t22.5 -60.5q0 -122 -152 -218zM293 405l-28 36q36 31 54 55.5t20 56.5q-58 22 -58 76q0 35 23 57t60 22q36 0 58.5 -24.5t22.5 -60.5q0 -122 -152 -218z" />
    <glyph glyph-name="quoteleft.alt" horiz-adv-x="298" 
d="M53 490q0 122 152 218l28 -36q-36 -31 -54 -55.5t-20 -56.5q58 -22 58 -76q0 -35 -23 -57t-60 -22q-36 0 -58.5 24.5t-22.5 60.5z" />
    <glyph glyph-name="quoteright.alt" horiz-adv-x="298" 
d="M93 405l-28 36q36 31 54 55.5t20 56.5q-58 22 -58 76q0 35 23 57t60 22q36 0 58.5 -24.5t22.5 -60.5q0 -122 -152 -218z" />
    <glyph glyph-name="quotesinglbase.alt" horiz-adv-x="298" 
d="M93 -122l-28 36q36 31 54 55.5t20 56.5q-58 22 -58 76q0 35 23 57t60 22q36 0 58.5 -24.5t22.5 -60.5q0 -122 -152 -218z" />
    <glyph glyph-name="quotedblbase.alt" horiz-adv-x="498" 
d="M93 -122l-28 36q36 31 54 55.5t20 56.5q-58 22 -58 76q0 35 23 57t60 22q36 0 58.5 -24.5t22.5 -60.5q0 -122 -152 -218zM293 -122l-28 36q36 31 54 55.5t20 56.5q-58 22 -58 76q0 35 23 57t60 22q36 0 58.5 -24.5t22.5 -60.5q0 -122 -152 -218z" />
    <glyph glyph-name="arrow.l" horiz-adv-x="661" 
d="M291 95l-255 255l255 255l71 -73l-127 -129h380v-106h-380l127 -129z" />
    <glyph glyph-name="arrow.r" horiz-adv-x="661" 
d="M416 297h-380v106h380l-127 129l71 73l255 -255l-255 -255l-71 73z" />
    <glyph glyph-name="arrow.u" horiz-adv-x="650" 
d="M143 314l-73 71l255 255l255 -255l-73 -71l-129 127v-381h-106v381z" />
    <glyph glyph-name="arrow.d" horiz-adv-x="650" 
d="M325 60l-255 255l73 71l129 -127v381h106v-381l129 127l73 -71z" />
    <glyph glyph-name="arrow.ul" horiz-adv-x="649" 
d="M204 213h-106v361h361v-106h-181l268 -267l-75 -75l-267 268v-181z" />
    <glyph glyph-name="arrow.ur" horiz-adv-x="649" 
d="M178 126l-75 75l268 267h-181v106h361v-361h-106v181z" />
    <glyph glyph-name="arrow.dl" horiz-adv-x="649" 
d="M459 126h-361v361h106v-181l267 268l75 -75l-268 -267h181v-106z" />
    <glyph glyph-name="arrow.dr" horiz-adv-x="649" 
d="M371 232l-268 267l75 75l267 -268v181h106v-361h-361v106h181z" />
    <glyph glyph-name="arrow.l.xl" horiz-adv-x="782" 
d="M291 95l-255 255l255 255l71 -73l-127 -129h501v-106h-501l127 -129z" />
    <glyph glyph-name="arrow.r.xl" horiz-adv-x="782" 
d="M547 297h-501v106h501l-127 129l71 73l255 -255l-255 -255l-71 73z" />
    <glyph glyph-name="arrow.u.xl" horiz-adv-x="650" 
d="M143 374l-73 71l255 255l255 -255l-73 -71l-129 127v-501h-106v501z" />
    <glyph glyph-name="arrow.d.xl" horiz-adv-x="650" 
d="M325 0l-255 255l73 71l129 -127v501h106v-501l129 127l73 -71z" />
    <glyph glyph-name="arrow.ul.xl" horiz-adv-x="733" 
d="M204 255h-106v361h361v-106h-181l352 -351l-75 -75l-351 352v-181z" />
    <glyph glyph-name="arrow.ur.xl" horiz-adv-x="733" 
d="M178 84l-75 75l352 351h-181v106h361v-361h-106v181z" />
    <glyph glyph-name="arrow.dl.xl" horiz-adv-x="733" 
d="M459 84h-361v361h106v-181l351 352l75 -75l-352 -351h181v-106z" />
    <glyph glyph-name="arrow.dr.xl" horiz-adv-x="733" 
d="M455 190l-352 351l75 75l351 -352v181h106v-361h-361v106h181z" />
    <glyph glyph-name="dcaron.alt" horiz-adv-x="814" 
d="M43 252q0 119 59.5 189.5t170.5 70.5q36 0 70 -16t52 -38v250h124v-708h-124v52q-11 -23 -45 -41.5t-77 -18.5q-111 0 -170.5 70.5t-59.5 189.5zM173 252q0 -72 33 -113t84 -41t83.5 40.5t32.5 113.5t-32.5 113.5t-83.5 40.5t-84 -41t-33 -113zM622 405l-28 36
q36 31 54 55.5t20 56.5q-58 22 -58 76q0 35 23 57t60 22q36 0 58.5 -24.5t22.5 -60.5q0 -122 -152 -218z" />
    <glyph glyph-name="uni0123.alt" horiz-adv-x="515" 
d="M39 -46q0 64 41 100q-26 31 -26 78q0 67 62 106q-35 41 -35 104q0 76 53 123t132 47q50 0 93 -22l95 50l49 -82l-72 -36q20 -35 20 -80q0 -77 -53 -122.5t-132 -45.5q-37 0 -73 11q-24 -13 -24 -38q0 -37 47 -37h103q82 0 129.5 -38.5t47.5 -109.5q0 -87 -67.5 -130.5
t-161.5 -43.5q-101 0 -164.5 43.5t-63.5 122.5zM154 -36q0 -35 31 -53.5t82 -18.5q105 0 105 62q0 30 -20.5 41t-60.5 11h-68q-33 0 -58 4q-11 -17 -11 -46zM197 342q0 -30 19.5 -49t49.5 -19t49.5 19t19.5 49q0 32 -19.5 51t-49.5 19t-49.5 -19t-19.5 -51zM164 647
q0 122 152 218l28 -36q-36 -31 -54 -55.5t-20 -56.5q58 -22 58 -76q0 -35 -23 -57t-60 -22q-36 0 -58.5 24.5t-22.5 60.5z" />
    <glyph glyph-name="lcaron.alt" horiz-adv-x="481" 
d="M202 0h-124v708h124v-708zM289 405l-28 36q36 31 54 55.5t20 56.5q-58 22 -58 76q0 35 23 57t60 22q36 0 58.5 -24.5t22.5 -60.5q0 -122 -152 -218z" />
    <glyph glyph-name="napostrophe.alt" horiz-adv-x="777" 
d="M394 0h-124v504h124v-81q62 89 156 89q70 0 112.5 -39t42.5 -113v-360h-124v323q0 83 -72 83q-48 0 -81.5 -55t-33.5 -150v-201zM92 405l-28 36q36 31 54 55.5t20 56.5q-58 22 -58 76q0 35 23 57t60 22q36 0 58.5 -24.5t22.5 -60.5q0 -122 -152 -218z" />
    <glyph glyph-name="tcaron.alt" horiz-adv-x="609" 
d="M96 398h-78v106h78v126l124 78v-204h133v-106h-133v-218q0 -45 16 -63.5t50 -18.5q25 0 48 12l29 -100q-39 -18 -82 -18q-88 0 -136.5 47t-48.5 139v220zM430 405l-28 36q36 31 54 55.5t20 56.5q-58 22 -58 76q0 35 23 57t60 22q36 0 58.5 -24.5t22.5 -60.5
q0 -122 -152 -218z" />
    </font>
</defs>
</svg>
